{"glyphs":{"0":{"ha":753,"x_min":50,"x_max":706,"o":"m 260 438 q 269 246 260 321 q 293 128 278 171 q 330 68 308 85 q 376 51 351 51 q 423 68 401 51 q 460 128 444 85 q 485 247 476 172 q 494 438 494 321 q 485 629 494 554 q 460 748 476 704 q 423 808 444 792 q 376 825 401 825 q 330 808 351 825 q 293 749 308 792 q 269 630 278 706 q 260 438 260 554 m 376 897 q 500 871 440 897 q 606 788 560 844 q 678 645 651 732 q 706 438 706 558 q 678 231 706 317 q 606 88 651 144 q 500 6 560 32 q 376 -21 440 -21 q 252 6 311 -21 q 148 88 193 32 q 76 231 103 144 q 50 438 50 317 q 76 645 50 558 q 148 788 103 732 q 252 871 193 844 q 376 897 311 897 z "},"1":{"ha":753,"x_min":101,"x_max":658,"o":"m 136 814 l 482 890 l 501 876 l 496 679 l 496 289 q 496 197 496 243 q 497 104 496 151 l 658 65 l 658 0 l 101 0 l 101 65 l 271 104 q 272 197 272 150 q 272 289 272 243 l 272 746 l 136 733 l 136 814 z "},"2":{"ha":753,"x_min":67,"x_max":696,"o":"m 72 0 l 72 124 q 167 217 121 171 q 256 306 214 263 q 342 399 306 356 q 404 483 379 442 q 442 567 429 525 q 454 656 454 608 q 416 781 454 736 q 313 825 378 825 q 295 825 304 825 q 278 824 286 825 l 260 725 q 244 666 254 689 q 219 630 233 643 q 190 612 206 617 q 157 607 174 607 q 103 622 128 607 q 67 664 79 638 q 94 765 68 721 q 165 838 121 808 q 266 882 208 867 q 389 897 324 897 q 519 878 464 897 q 609 828 574 860 q 661 752 644 796 q 678 657 678 708 q 658 560 678 607 q 598 465 639 513 q 494 365 557 417 q 346 256 432 314 q 288 215 318 236 q 225 171 257 194 l 696 171 l 696 0 l 72 0 z "},"3":{"ha":753,"x_min":58,"x_max":707,"o":"m 253 494 l 293 494 q 417 535 372 494 q 463 667 463 575 q 426 785 463 746 q 321 825 389 825 q 308 825 314 825 q 294 824 301 825 l 281 733 q 243 658 271 681 q 176 636 215 636 q 99 681 124 636 q 122 777 99 736 q 183 845 144 818 q 271 885 221 872 q 375 897 321 897 q 509 881 451 897 q 605 834 567 864 q 662 763 643 804 q 681 675 681 722 q 669 610 681 642 q 635 550 658 578 q 574 499 611 522 q 483 463 536 476 q 656 382 606 440 q 707 232 707 324 q 683 131 707 178 q 615 51 660 85 q 507 -2 571 17 q 361 -21 443 -21 q 140 39 215 -21 q 58 208 64 99 q 95 256 71 242 q 144 271 119 271 q 213 244 188 271 q 247 147 238 218 l 260 54 q 276 51 268 51 q 292 51 283 51 q 432 97 385 51 q 479 239 479 143 q 434 372 479 326 q 301 417 389 417 l 253 417 l 253 494 z "},"4":{"ha":753,"x_min":29,"x_max":715,"o":"m 715 185 l 588 185 l 588 0 l 390 0 l 390 185 l 29 185 l 29 313 l 433 879 l 588 879 l 588 339 l 715 339 l 715 185 m 390 339 l 390 686 l 146 339 l 390 339 z "},"5":{"ha":753,"x_min":56,"x_max":714,"o":"m 346 -21 q 137 41 211 -21 q 56 208 63 103 q 92 256 67 240 q 144 271 117 271 q 212 244 188 271 q 244 153 236 218 l 256 58 q 281 53 268 54 q 308 51 293 51 q 433 102 385 51 q 481 243 481 153 q 436 390 481 339 q 313 440 392 440 q 247 436 278 440 q 181 425 215 432 l 142 453 l 171 875 l 679 875 l 679 704 l 249 704 l 236 529 q 371 542 300 542 q 622 472 531 542 q 714 267 714 401 q 686 142 714 196 q 609 51 658 88 q 492 -3 560 15 q 346 -21 425 -21 z "},"6":{"ha":753,"x_min":39,"x_max":711,"o":"m 389 -21 q 245 4 310 -21 q 135 77 181 29 q 64 196 89 125 q 39 358 39 267 q 83 557 39 464 q 206 722 126 650 q 395 839 285 793 q 640 897 506 885 l 649 828 q 269 475 314 744 q 354 528 307 511 q 456 546 401 546 q 647 474 582 546 q 711 279 711 401 q 685 148 711 204 q 616 54 660 92 q 513 -2 572 17 q 389 -21 454 -21 m 389 51 q 464 99 435 51 q 493 251 493 146 q 374 453 493 453 q 317 441 346 453 q 263 401 289 429 l 263 390 q 272 234 263 299 q 299 128 282 169 q 338 69 315 88 q 389 51 361 51 z "},"7":{"ha":753,"x_min":74,"x_max":696,"o":"m 151 14 l 556 704 l 74 704 l 74 875 l 696 875 l 696 769 l 369 0 l 165 0 l 151 14 z "},"8":{"ha":753,"x_min":61,"x_max":694,"o":"m 61 189 q 108 313 61 260 q 243 403 154 365 q 78 646 78 494 q 101 751 78 704 q 165 830 124 797 q 262 880 206 863 q 385 897 318 897 q 510 881 457 897 q 597 838 563 865 q 647 773 631 810 q 664 696 664 736 q 627 592 664 643 q 496 499 590 542 q 645 383 596 449 q 694 231 694 318 q 606 47 694 115 q 358 -21 518 -21 q 135 36 208 -21 q 61 189 61 93 m 263 713 q 269 669 263 690 q 293 625 275 647 q 343 580 311 603 q 425 532 375 557 q 478 617 464 579 q 492 700 492 656 q 462 788 492 753 q 379 824 432 824 q 298 794 333 824 q 263 713 263 764 m 375 51 q 466 90 436 51 q 496 176 496 128 q 487 228 496 204 q 457 276 478 253 q 401 322 436 299 q 315 368 367 344 q 260 289 276 328 q 243 200 243 250 q 280 93 243 135 q 375 51 317 51 z "},"9":{"ha":753,"x_min":39,"x_max":711,"o":"m 140 -28 l 126 43 q 263 101 204 69 q 365 174 322 133 q 434 265 407 214 q 474 382 461 317 q 315 336 408 336 q 205 353 256 336 q 117 405 154 371 q 60 488 81 439 q 39 603 39 538 q 65 731 39 675 q 138 823 92 786 q 243 878 183 860 q 369 897 303 897 q 624 799 536 897 q 711 522 711 700 q 671 324 711 415 q 556 161 631 232 q 375 42 481 90 q 140 -28 269 -7 m 258 621 q 295 476 258 525 q 394 426 332 426 q 443 432 422 426 q 483 451 464 438 q 488 542 488 493 q 479 679 488 625 q 456 766 471 733 q 419 812 440 799 q 372 825 399 825 q 292 777 326 825 q 258 621 258 729 z "}," ":{"ha":297,"x_min":0,"x_max":0,"o":""},"A":{"ha":938,"x_min":13,"x_max":919,"o":"m 13 0 l 13 75 l 125 92 l 407 914 l 550 914 l 835 82 l 919 72 l 919 0 l 490 0 l 490 72 l 597 86 l 542 265 l 261 265 l 206 92 l 311 75 l 311 0 l 13 0 m 515 346 l 403 701 l 288 346 l 515 346 z "},"B":{"ha":904,"x_min":46,"x_max":872,"o":"m 153 436 l 153 476 q 153 651 153 564 q 150 826 153 739 l 46 838 l 46 913 l 494 913 q 644 896 583 913 q 744 851 706 879 q 801 783 783 822 q 818 697 818 743 q 807 629 818 661 q 769 570 796 597 q 696 522 742 543 q 582 489 650 501 q 805 410 738 469 q 872 256 872 350 q 853 167 872 213 q 786 85 835 122 q 654 24 738 47 q 442 0 571 0 l 46 0 l 46 75 l 150 86 q 153 259 153 172 q 153 436 153 346 m 433 832 l 385 832 q 382 674 382 753 q 382 514 382 594 l 421 514 q 551 556 510 514 q 593 681 593 597 q 433 832 593 832 m 429 440 l 382 440 q 382 254 382 342 q 385 81 382 167 l 429 81 q 580 125 526 81 q 633 258 633 169 q 583 397 633 354 q 429 440 533 440 z "},"C":{"ha":864,"x_min":47,"x_max":826,"o":"m 565 54 q 682 81 621 54 l 721 258 l 826 258 l 821 44 q 692 -6 764 14 q 529 -26 619 -26 q 341 3 429 -26 q 188 94 253 33 q 85 244 122 154 q 47 457 47 335 q 88 670 47 579 q 195 821 128 761 q 351 910 263 881 q 539 939 440 939 q 683 922 618 939 q 811 869 749 904 l 817 654 l 711 654 l 671 836 q 571 860 624 860 q 465 836 515 860 q 377 764 415 813 q 316 638 339 715 q 293 456 293 561 q 315 273 293 349 q 374 149 336 197 q 460 77 411 100 q 565 54 510 54 z "},"D":{"ha":979,"x_min":46,"x_max":932,"o":"m 153 435 l 153 482 q 153 654 153 568 q 150 826 153 740 l 46 838 l 46 913 l 458 913 q 657 881 569 913 q 806 791 744 850 q 899 648 867 732 q 932 458 932 564 q 897 265 932 350 q 797 121 861 179 q 640 31 732 63 q 433 0 547 0 l 46 0 l 46 75 l 150 86 q 153 258 153 171 q 153 435 153 344 m 386 436 q 386 256 386 344 q 389 81 386 168 l 435 81 q 623 178 554 81 q 692 457 692 275 q 623 737 692 642 q 436 832 554 832 l 389 832 q 386 658 386 744 q 386 482 386 571 l 386 436 z "},"E":{"ha":826,"x_min":46,"x_max":792,"o":"m 153 431 l 153 482 q 153 654 153 568 q 150 826 153 740 l 46 838 l 46 913 l 754 913 l 764 674 l 649 674 l 621 835 l 389 835 q 386 675 386 756 q 386 513 386 594 l 536 513 l 553 621 l 633 621 l 633 322 l 553 322 l 536 431 l 386 431 q 386 249 386 335 q 389 78 386 163 l 649 78 l 676 239 l 792 239 l 782 0 l 46 0 l 46 75 l 150 86 q 153 257 153 171 q 153 431 153 343 z "},"F":{"ha":806,"x_min":46,"x_max":774,"o":"m 153 431 l 153 482 q 153 654 153 568 q 150 826 153 740 l 46 838 l 46 913 l 764 913 l 774 674 l 658 674 l 631 835 l 389 835 q 386 675 386 756 q 386 513 386 594 l 540 513 l 557 621 l 638 621 l 638 308 l 557 308 l 539 431 l 386 431 q 386 253 386 338 q 389 88 386 169 l 513 75 l 513 0 l 46 0 l 46 75 l 150 86 q 153 257 153 171 q 153 431 153 343 z "},"G":{"ha":938,"x_min":47,"x_max":917,"o":"m 842 114 l 842 56 q 694 -6 768 14 q 528 -26 619 -26 q 332 7 421 -26 q 180 103 243 40 q 82 255 117 165 q 47 458 47 344 q 81 657 47 568 q 178 808 114 746 q 334 905 242 871 q 544 939 426 939 q 682 923 613 939 q 813 875 751 907 l 818 658 l 711 658 l 671 839 q 571 860 621 860 q 464 836 514 860 q 376 763 414 813 q 315 638 338 714 q 293 458 293 563 q 315 278 293 354 q 374 151 336 201 q 461 77 411 101 q 568 53 511 53 q 621 58 599 53 l 621 118 q 620 239 621 181 q 618 358 619 297 l 493 375 l 493 450 l 917 450 l 917 375 l 844 365 q 842 241 843 303 q 842 114 842 179 z "},"H":{"ha":1063,"x_min":46,"x_max":1018,"o":"m 150 431 l 150 482 q 150 653 150 568 q 147 826 150 739 l 46 838 l 46 913 l 483 913 l 483 838 l 386 828 q 383 659 383 742 q 383 510 383 576 l 679 510 q 679 669 679 589 q 676 828 679 749 l 579 838 l 579 913 l 1018 913 l 1018 838 l 915 826 q 913 656 913 742 q 913 482 913 569 l 913 431 q 913 258 913 344 q 915 86 913 172 l 1018 75 l 1018 0 l 579 0 l 579 75 l 676 85 q 679 257 679 171 q 679 428 679 343 l 383 428 q 383 251 383 335 q 386 85 383 168 l 483 75 l 483 0 l 46 0 l 46 75 l 147 86 q 150 257 150 171 q 150 431 150 343 z "},"I":{"ha":539,"x_min":46,"x_max":493,"o":"m 153 431 l 153 482 q 153 654 153 568 q 150 826 153 740 l 46 838 l 46 913 l 493 913 l 493 838 l 389 826 q 386 656 386 742 q 386 482 386 569 l 386 432 q 386 258 386 344 q 389 86 386 172 l 493 75 l 493 0 l 46 0 l 46 75 l 150 86 q 153 257 153 171 q 153 431 153 343 z "},"J":{"ha":549,"x_min":-118,"x_max":511,"o":"m 49 838 l 49 913 l 511 913 l 511 838 l 404 826 q 403 662 403 744 q 403 494 403 579 l 403 350 q 388 110 403 207 q 340 -53 374 14 q 222 -192 300 -144 q 49 -240 144 -240 q -52 -219 -10 -240 q -118 -153 -94 -197 q -85 -77 -117 -104 q -8 -50 -54 -50 q 57 -69 28 -50 q 118 -126 86 -87 l 147 -161 q 171 -78 164 -129 q 178 51 178 -26 q 177 168 178 100 q 174 330 176 236 q 170 546 172 424 q 167 825 168 668 l 49 838 z "},"K":{"ha":967,"x_min":46,"x_max":960,"o":"m 153 431 l 153 482 q 153 654 153 568 q 150 826 153 740 l 46 838 l 46 913 l 483 913 l 483 838 l 378 826 q 375 656 375 742 q 375 482 375 569 l 375 436 l 686 821 l 594 838 l 594 913 l 917 913 l 917 838 l 785 821 l 601 601 l 875 85 l 960 75 l 960 0 l 558 0 l 558 75 l 625 82 l 454 428 l 375 333 q 375 210 375 272 q 378 86 375 149 l 468 75 l 468 0 l 46 0 l 46 75 l 150 86 q 153 257 153 171 q 153 431 153 343 z "},"L":{"ha":806,"x_min":46,"x_max":779,"o":"m 153 482 q 153 655 153 569 q 150 826 153 740 l 46 838 l 46 913 l 504 913 l 504 838 l 389 826 q 386 655 386 740 q 386 482 386 569 l 386 408 q 386 250 386 333 q 389 79 386 167 l 628 79 l 667 272 l 779 272 l 765 0 l 46 0 l 46 75 l 150 86 q 153 251 153 171 q 153 401 153 332 l 153 482 z "},"M":{"ha":1244,"x_min":25,"x_max":1199,"o":"m 25 0 l 25 75 l 160 92 l 160 824 l 38 838 l 38 913 l 404 913 l 631 301 l 843 913 l 1194 913 l 1194 838 l 1096 826 q 1093 655 1093 740 q 1093 482 1093 569 l 1093 431 q 1093 258 1093 343 q 1096 86 1093 172 l 1199 75 l 1199 0 l 756 0 l 756 75 l 857 88 q 859 252 860 172 q 860 401 858 332 l 863 708 l 615 0 l 508 0 l 246 706 q 249 558 247 631 q 250 432 250 485 l 250 93 l 364 75 l 364 0 l 25 0 z "},"N":{"ha":1011,"x_min":39,"x_max":971,"o":"m 39 0 l 39 75 l 157 92 l 157 803 l 138 829 l 42 838 l 42 913 l 356 913 l 764 351 l 764 819 l 606 838 l 606 913 l 971 913 l 971 838 l 853 819 l 853 -3 l 736 -3 l 247 676 l 247 93 l 406 75 l 406 0 l 39 0 z "},"O":{"ha":975,"x_min":47,"x_max":928,"o":"m 293 457 q 304 297 293 371 q 338 169 315 224 q 398 85 361 115 q 488 54 435 54 q 577 85 540 54 q 638 169 614 115 q 672 297 661 224 q 682 457 682 371 q 672 617 682 543 q 638 744 661 690 q 577 828 614 797 q 488 858 540 858 q 398 828 435 858 q 338 744 361 797 q 304 617 315 690 q 293 457 293 543 m 488 939 q 652 909 572 939 q 793 819 732 879 q 891 669 854 760 q 928 457 928 578 q 891 246 928 336 q 793 95 854 156 q 653 4 732 35 q 488 -26 574 -26 q 322 3 401 -26 q 182 94 243 33 q 84 244 121 154 q 47 457 47 335 q 84 667 47 576 q 182 817 121 757 q 322 908 243 878 q 488 939 401 939 z "},"P":{"ha":851,"x_min":46,"x_max":828,"o":"m 153 431 l 153 482 q 153 654 153 568 q 150 826 153 740 l 46 838 l 46 913 l 424 913 q 608 893 532 913 q 734 838 685 874 q 806 751 783 801 q 828 638 828 700 q 807 526 828 578 q 739 434 786 474 q 615 372 692 394 q 425 349 538 349 l 386 349 q 386 224 386 289 q 389 88 386 158 l 513 75 l 513 0 l 46 0 l 46 75 l 150 86 q 153 257 153 171 q 153 431 153 343 m 386 482 l 386 426 l 426 426 q 564 485 518 426 q 610 639 610 543 q 561 783 610 735 q 421 832 513 832 l 389 832 q 386 658 386 744 q 386 482 386 571 z "},"Q":{"ha":975,"x_min":47,"x_max":928,"o":"m 685 -286 q 556 -266 613 -286 q 460 -210 500 -246 q 397 -124 419 -174 q 371 -12 375 -74 q 245 42 304 4 q 142 139 186 81 q 73 276 99 197 q 47 457 47 356 q 84 667 47 576 q 182 817 121 757 q 322 908 243 878 q 488 939 401 939 q 652 909 572 939 q 793 819 732 879 q 891 669 854 760 q 928 457 928 578 q 901 274 928 354 q 829 135 875 194 q 722 39 783 76 q 592 -15 661 1 q 635 -137 594 -94 q 746 -181 676 -181 q 793 -178 767 -181 q 846 -164 819 -175 l 876 -242 q 791 -276 840 -265 q 685 -286 742 -286 m 293 457 q 304 297 293 371 q 338 169 315 224 q 398 85 361 115 q 488 54 435 54 q 577 85 540 54 q 638 169 614 115 q 672 297 661 224 q 682 457 682 371 q 672 617 682 543 q 638 744 661 690 q 577 828 614 797 q 488 858 540 858 q 398 828 435 858 q 338 744 361 797 q 304 617 315 690 q 293 457 293 543 z "},"R":{"ha":949,"x_min":46,"x_max":943,"o":"m 153 431 l 153 482 q 153 654 153 568 q 150 826 153 740 l 46 838 l 46 913 l 497 913 q 749 851 661 913 q 838 682 838 790 q 825 613 838 647 q 783 548 813 578 q 706 496 754 518 q 589 463 658 474 q 687 437 647 454 q 751 392 726 419 q 790 326 776 364 q 811 240 803 289 l 838 86 l 943 75 l 943 0 q 900 -10 918 -6 q 865 -16 882 -14 q 831 -19 849 -18 q 790 -19 814 -19 q 651 10 701 -19 q 589 122 600 40 l 564 283 q 524 387 553 354 q 432 419 494 419 l 382 419 q 382 248 382 329 q 385 86 382 167 l 493 75 l 493 0 l 46 0 l 46 75 l 150 86 q 153 257 153 171 q 153 431 153 343 m 440 832 l 385 832 q 382 660 382 744 q 382 497 382 575 l 435 497 q 521 511 486 497 q 576 549 556 525 q 606 603 597 572 q 615 667 615 633 q 571 792 615 751 q 440 832 526 832 z "},"S":{"ha":751,"x_min":47,"x_max":711,"o":"m 347 57 q 461 94 422 57 q 500 189 500 132 q 472 275 500 244 q 381 333 443 306 l 321 360 q 212 418 260 388 q 131 485 164 449 q 81 567 99 522 q 64 671 64 613 q 88 783 64 733 q 158 867 113 833 q 266 920 203 901 q 408 939 329 939 q 552 920 483 939 q 671 868 621 901 l 660 674 l 532 674 l 506 838 q 461 851 483 846 q 413 856 439 856 q 311 822 353 856 q 269 729 269 788 q 301 641 269 674 q 396 581 333 608 l 461 551 q 575 490 528 521 q 652 425 622 460 q 697 349 682 390 q 711 254 711 307 q 688 142 711 193 q 619 53 665 90 q 506 -6 574 15 q 349 -26 438 -26 q 188 -8 269 -26 q 47 47 107 10 l 56 253 l 185 253 l 213 82 q 276 63 244 69 q 347 57 308 57 z "},"T":{"ha":881,"x_min":28,"x_max":853,"o":"m 324 431 l 324 482 q 324 658 324 569 q 321 835 324 746 l 169 835 l 143 654 l 28 654 l 33 913 l 849 913 l 853 654 l 738 654 l 713 835 l 560 835 q 557 660 557 747 q 557 482 557 572 l 557 432 q 557 259 557 344 q 560 88 557 174 l 679 75 l 679 0 l 203 0 l 203 75 l 321 88 q 324 258 324 172 q 324 431 324 343 z "},"U":{"ha":1015,"x_min":40,"x_max":979,"o":"m 376 389 q 389 254 376 310 q 426 165 401 199 q 488 115 451 131 q 575 100 525 100 q 721 168 668 100 q 774 393 774 236 l 774 826 l 647 838 l 647 913 l 979 913 l 979 838 l 864 828 l 864 393 q 839 203 864 282 q 767 73 814 124 q 653 -2 721 22 q 499 -26 585 -26 q 356 -6 421 -26 q 244 58 292 14 q 169 173 196 103 q 143 344 143 243 l 143 496 q 143 662 143 579 q 140 828 143 744 l 40 838 l 40 913 l 493 913 l 493 838 l 378 826 q 376 661 376 743 q 376 496 376 579 l 376 389 z "},"V":{"ha":918,"x_min":11,"x_max":915,"o":"m 390 -3 l 92 829 l 11 838 l 11 913 l 458 913 l 458 842 l 340 826 l 531 254 l 722 824 l 614 842 l 614 913 l 915 913 l 915 838 l 811 821 l 525 -3 l 390 -3 z "},"W":{"ha":1363,"x_min":11,"x_max":1358,"o":"m 869 -3 l 674 631 l 481 -3 l 344 -3 l 96 829 l 11 838 l 11 913 l 442 913 l 442 838 l 340 826 l 482 264 l 649 825 l 547 838 l 547 913 l 964 913 l 964 838 l 842 822 l 1003 257 l 1163 822 l 1065 838 l 1065 913 l 1358 913 l 1358 838 l 1250 819 l 1006 -3 l 869 -3 z "},"X":{"ha":908,"x_min":10,"x_max":899,"o":"m 10 0 l 10 75 l 118 85 l 346 425 l 111 826 l 15 838 l 15 913 l 450 913 l 450 838 l 367 828 l 504 592 l 649 831 l 563 838 l 563 913 l 853 913 l 853 838 l 749 829 l 547 518 l 800 85 l 899 75 l 899 0 l 442 0 l 442 75 l 543 86 l 389 351 l 218 82 l 306 75 l 306 0 l 10 0 z "},"Y":{"ha":867,"x_min":11,"x_max":864,"o":"m 675 0 l 199 0 l 199 75 l 318 88 q 319 207 319 144 q 319 358 319 269 l 89 829 l 11 838 l 11 913 l 458 913 l 458 838 l 354 825 l 513 474 l 672 822 l 576 838 l 576 913 l 864 913 l 864 838 l 763 821 l 553 394 q 553 299 553 342 q 553 219 553 256 q 553 151 553 183 q 554 88 554 118 l 675 75 l 675 0 z "},"Z":{"ha":782,"x_min":28,"x_max":754,"o":"m 643 258 l 754 258 l 743 0 l 28 0 l 28 64 l 474 833 l 188 833 l 151 654 l 42 654 l 53 913 l 740 913 l 740 849 l 293 79 l 607 79 l 643 258 z "},"a":{"ha":738,"x_min":43,"x_max":743,"o":"m 332 92 q 370 101 351 92 q 417 129 389 110 l 417 356 q 381 343 397 349 q 351 332 364 338 q 276 277 304 313 q 249 193 249 242 q 272 116 249 140 q 332 92 296 92 m 576 -19 q 477 6 515 -19 q 424 81 439 32 q 381 38 401 57 q 338 6 361 19 q 288 -14 315 -7 q 225 -21 261 -21 q 94 24 144 -21 q 43 157 43 69 q 55 226 43 194 q 97 285 67 257 q 178 339 126 314 q 311 388 231 364 q 360 401 332 394 q 417 415 388 408 l 417 461 q 412 538 417 507 q 394 588 407 569 q 359 613 381 606 q 304 621 338 621 q 286 621 294 621 q 267 619 278 621 l 260 558 q 228 459 257 489 q 158 429 199 429 q 65 499 82 429 q 152 640 71 586 q 385 693 233 693 q 576 631 518 693 q 633 431 633 569 l 633 119 q 664 79 633 79 q 685 85 675 79 q 706 110 694 92 l 743 85 q 678 4 718 28 q 576 -19 639 -19 z "},"b":{"ha":847,"x_min":29,"x_max":807,"o":"m 40 -1 l 40 64 l 114 79 q 115 188 115 131 q 115 290 115 246 l 115 876 l 29 888 l 29 946 l 317 1008 l 339 994 l 333 800 l 333 604 q 535 693 421 693 q 641 671 592 693 q 727 604 690 649 q 785 494 764 560 q 807 342 807 428 q 783 190 807 257 q 717 76 758 122 q 622 4 676 29 q 510 -21 568 -21 q 407 0 451 -21 q 326 63 363 21 l 303 -19 l 40 -1 m 432 96 q 533 155 493 96 q 572 338 572 214 q 534 517 572 461 q 433 572 496 572 q 383 561 407 572 q 338 532 360 550 l 338 135 q 432 96 381 96 z "},"c":{"ha":713,"x_min":39,"x_max":674,"o":"m 438 621 q 378 606 408 621 q 324 560 349 592 q 285 480 300 529 q 271 360 271 431 q 324 175 271 239 q 465 111 378 111 q 553 133 515 111 q 621 189 590 154 l 669 146 q 557 20 629 61 q 385 -21 485 -21 q 251 1 314 -21 q 141 69 188 24 q 67 180 94 114 q 39 333 39 246 q 68 485 39 418 q 149 599 97 553 q 268 669 200 644 q 414 693 336 693 q 515 677 469 693 q 595 633 561 661 q 649 569 629 606 q 674 490 669 532 q 579 418 651 418 q 508 447 539 418 q 474 550 478 476 l 464 619 q 451 621 457 621 q 438 621 444 621 z "},"d":{"ha":825,"x_min":40,"x_max":794,"o":"m 275 332 q 315 158 275 217 q 419 100 356 100 q 506 132 467 100 l 506 546 q 424 575 468 575 q 317 516 360 575 q 275 332 275 457 m 524 -15 l 513 65 q 317 -21 432 -21 q 208 2 258 -21 q 119 69 157 25 q 61 179 82 114 q 40 329 40 244 q 66 481 40 414 q 134 596 92 549 q 232 668 176 643 q 346 693 288 693 q 442 674 403 693 q 514 618 482 654 l 514 874 l 417 888 l 417 946 l 710 1008 l 732 994 l 726 800 l 726 81 l 794 65 l 794 0 l 524 -15 z "},"e":{"ha":724,"x_min":40,"x_max":685,"o":"m 397 693 q 519 671 465 693 q 610 609 574 649 q 665 515 646 569 q 685 399 685 461 q 676 325 685 358 l 275 325 q 294 229 279 269 q 335 163 310 189 q 392 124 360 136 q 461 111 425 111 q 558 133 518 111 q 629 186 597 154 l 678 142 q 561 19 635 58 q 386 -21 488 -21 q 247 3 310 -21 q 138 74 183 28 q 66 185 92 119 q 40 335 40 251 q 71 489 40 422 q 151 601 101 556 q 266 669 201 646 q 397 693 331 693 m 383 621 q 345 610 364 621 q 312 572 326 599 q 287 503 297 546 q 275 397 276 461 l 393 397 q 460 417 443 397 q 478 485 478 438 q 450 588 478 554 q 383 621 422 621 z "},"f":{"ha":503,"x_min":31,"x_max":638,"o":"m 121 292 l 121 576 l 31 576 l 31 658 l 124 669 q 141 763 129 722 q 168 834 153 803 q 201 888 183 865 q 239 931 219 911 q 352 1002 293 982 q 471 1022 411 1022 q 576 1001 529 1022 q 638 924 624 979 q 610 857 636 883 q 538 831 585 831 q 472 853 501 831 q 413 929 442 876 l 401 946 q 378 917 385 929 q 345 816 354 875 q 339 671 336 757 l 488 671 l 488 576 l 342 576 l 342 292 q 342 190 342 240 q 343 88 342 139 l 450 65 l 450 0 l 42 0 l 42 65 l 118 81 q 120 186 119 133 q 121 292 121 239 z "},"g":{"ha":754,"x_min":21,"x_max":740,"o":"m 342 -233 q 499 -203 446 -233 q 551 -126 551 -172 q 529 -72 551 -96 q 450 -47 507 -47 l 304 -47 q 178 -35 228 -47 q 161 -72 167 -54 q 156 -115 156 -90 q 201 -206 156 -178 q 342 -233 246 -233 m 51 468 q 69 558 51 517 q 122 629 86 599 q 213 676 158 660 q 342 693 268 693 q 472 676 417 693 q 563 629 526 660 l 718 696 l 740 682 l 740 575 l 608 575 q 633 468 633 529 q 615 381 633 421 q 561 310 597 340 q 470 263 525 281 q 342 246 415 246 q 215 263 269 246 q 199 199 199 233 q 217 160 199 175 q 279 146 235 146 l 442 146 q 575 131 521 146 q 663 90 629 117 q 712 26 697 63 q 726 -57 726 -11 q 700 -156 726 -110 q 623 -238 674 -203 q 496 -294 572 -274 q 319 -315 419 -315 q 176 -302 233 -315 q 83 -266 118 -289 q 35 -214 49 -243 q 21 -153 21 -185 q 136 -10 21 -64 q 74 38 93 8 q 56 101 56 67 q 83 194 56 150 q 163 282 111 238 q 78 360 106 311 q 51 468 51 408 m 343 626 q 272 585 296 626 q 249 469 249 544 q 270 353 249 394 q 340 311 292 311 q 413 353 389 311 q 438 471 438 396 q 413 585 438 544 q 343 626 389 626 z "},"h":{"ha":857,"x_min":29,"x_max":828,"o":"m 554 693 q 701 634 646 693 q 757 454 757 575 l 757 292 q 757 188 757 246 q 758 79 757 131 l 828 65 l 828 0 l 463 0 l 463 65 l 535 81 q 536 190 536 132 q 536 292 536 247 l 536 438 q 520 532 536 506 q 461 558 504 558 q 401 542 433 558 q 338 494 369 525 l 338 292 q 338 189 338 247 q 339 79 338 131 l 404 65 l 404 0 l 39 0 l 39 65 l 114 82 q 115 190 115 132 q 115 292 115 247 l 115 874 l 29 888 l 29 946 l 317 1008 l 339 994 l 333 800 l 333 576 q 442 667 390 642 q 554 693 493 693 z "},"i":{"ha":439,"x_min":28,"x_max":410,"o":"m 226 796 q 143 826 178 796 q 108 906 108 857 q 143 985 108 954 q 226 1017 178 1017 q 310 985 275 1017 q 344 906 344 954 q 310 826 344 857 q 226 796 275 796 m 410 0 l 42 0 l 42 65 l 117 82 q 118 190 118 132 q 118 292 118 247 l 118 358 q 117 453 118 415 q 114 533 115 492 l 28 546 l 28 600 l 319 693 l 343 678 l 339 476 l 339 292 q 339 189 339 247 q 340 79 339 131 l 410 65 l 410 0 z "},"j":{"ha":426,"x_min":-164,"x_max":340,"o":"m 222 796 q 139 826 174 796 q 104 906 104 857 q 139 985 104 954 q 222 1017 174 1017 q 306 985 271 1017 q 340 906 340 954 q 306 826 340 857 q 222 796 271 796 m 114 117 l 114 358 q 113 453 114 415 q 110 533 111 492 l 25 546 l 25 600 l 314 693 l 338 678 l 333 476 l 333 75 q 328 -34 333 13 q 313 -117 324 -81 q 285 -181 303 -153 q 243 -235 268 -210 q 128 -309 190 -289 q 14 -329 67 -329 q -105 -300 -61 -329 q -164 -233 -149 -271 q -124 -158 -158 -185 q -47 -132 -89 -132 q 79 -212 29 -132 l 96 -240 q 108 -207 104 -225 q 115 -146 114 -182 q 117 -67 117 -110 q 115 22 117 -25 q 114 117 114 69 z "},"k":{"ha":831,"x_min":29,"x_max":829,"o":"m 29 946 l 321 1008 l 343 994 l 338 800 l 338 374 l 563 593 l 468 610 l 468 671 l 792 671 l 792 610 l 667 592 l 544 476 l 739 88 l 829 65 l 829 0 l 546 0 l 389 332 l 338 283 q 338 183 338 238 q 339 81 339 128 l 414 65 l 414 0 l 36 0 l 36 65 l 114 82 q 115 192 115 133 q 115 292 115 250 l 115 874 l 29 888 l 29 946 z "},"l":{"ha":449,"x_min":29,"x_max":417,"o":"m 29 946 l 321 1008 l 343 994 l 338 800 l 338 292 q 338 186 338 239 q 340 81 339 133 l 417 65 l 417 0 l 36 0 l 36 65 l 113 82 q 115 187 114 135 q 115 292 115 239 l 115 874 l 29 888 l 29 946 z "},"m":{"ha":1260,"x_min":26,"x_max":1232,"o":"m 550 693 q 735 569 693 693 q 846 667 793 640 q 958 693 899 693 q 1113 633 1064 693 q 1161 447 1161 572 l 1161 292 q 1161 189 1161 247 q 1163 81 1161 131 l 1232 65 l 1232 0 l 874 0 l 874 65 l 942 82 q 943 190 943 132 q 943 292 943 247 l 943 426 q 925 531 943 504 q 864 558 907 558 q 747 508 806 558 q 749 483 749 496 q 750 454 750 469 l 750 292 q 750 188 750 246 q 751 79 750 131 l 817 65 l 817 0 l 458 0 l 458 65 l 531 82 q 532 190 532 132 q 532 292 532 247 l 532 425 q 515 528 532 499 q 451 558 497 558 q 393 544 422 558 q 338 508 364 531 l 338 292 q 338 189 338 247 q 339 79 338 131 l 404 65 l 404 0 l 39 0 l 39 65 l 114 82 q 115 190 115 132 q 115 292 115 247 l 115 372 q 115 422 115 401 q 115 460 115 443 q 113 495 114 478 q 111 533 113 513 l 26 546 l 26 600 l 300 693 l 325 678 l 333 576 q 435 664 383 635 q 550 693 488 693 z "},"n":{"ha":856,"x_min":26,"x_max":826,"o":"m 556 693 q 701 634 646 693 q 756 454 756 575 l 756 292 q 756 188 756 246 q 757 79 756 131 l 826 65 l 826 0 l 460 0 l 460 65 l 532 81 q 533 190 533 132 q 533 292 533 247 l 533 438 q 515 531 533 504 q 457 558 497 558 q 338 507 401 558 l 338 292 q 338 189 338 247 q 339 79 338 131 l 404 65 l 404 0 l 39 0 l 39 65 l 114 82 q 115 190 115 132 q 115 292 115 247 l 115 372 q 115 422 115 401 q 115 460 115 443 q 113 495 114 478 q 111 533 113 513 l 26 546 l 26 600 l 300 693 l 325 678 l 333 578 q 442 667 389 642 q 556 693 494 693 z "},"o":{"ha":785,"x_min":40,"x_max":746,"o":"m 393 -21 q 246 6 311 -21 q 135 79 181 32 q 65 192 89 126 q 40 339 40 258 q 67 483 40 418 q 142 595 94 549 q 254 667 190 642 q 393 693 318 693 q 531 668 467 693 q 644 597 596 643 q 719 485 692 551 q 746 339 746 419 q 721 191 746 257 q 650 78 696 125 q 539 5 604 31 q 393 -21 474 -21 m 393 51 q 481 119 451 51 q 510 335 510 186 q 481 551 510 483 q 393 619 451 619 q 304 551 333 619 q 275 335 275 483 q 304 119 275 186 q 393 51 333 51 z "},"p":{"ha":849,"x_min":31,"x_max":810,"o":"m 574 336 q 536 516 574 460 q 436 572 499 572 q 387 561 410 572 q 342 533 364 550 l 342 131 q 432 96 383 96 q 534 153 494 96 q 574 336 574 211 m 121 -4 l 121 372 q 121 422 121 401 q 120 460 121 443 q 119 495 119 478 q 117 533 118 513 l 31 546 l 31 600 l 303 693 l 326 679 l 332 600 q 538 693 421 693 q 644 670 594 693 q 730 602 693 647 q 788 491 767 557 q 810 339 810 425 q 785 189 810 256 q 720 76 761 122 q 625 4 679 29 q 513 -21 571 -21 q 415 -2 457 -21 q 338 53 372 17 l 338 -3 q 338 -110 338 -54 q 340 -229 339 -165 l 429 -250 l 429 -315 l 40 -315 l 40 -250 l 118 -233 q 120 -111 119 -167 q 121 -4 121 -56 z "},"q":{"ha":810,"x_min":40,"x_max":800,"o":"m 275 331 q 315 158 275 215 q 419 100 356 100 q 507 133 467 100 l 507 551 q 425 575 465 575 q 317 515 358 575 q 275 331 275 456 m 728 -22 q 728 -128 728 -75 q 731 -235 729 -182 l 800 -250 l 800 -315 l 419 -315 l 419 -250 l 510 -229 q 511 -125 511 -176 q 511 -22 511 -74 l 511 65 q 423 0 471 21 q 317 -21 375 -21 q 208 2 258 -21 q 119 69 157 25 q 61 178 82 113 q 40 328 40 243 q 66 482 40 414 q 135 597 92 550 q 235 668 178 643 q 354 693 292 693 q 447 674 404 693 q 529 610 490 654 l 692 693 l 732 679 l 728 492 l 728 -22 z "},"r":{"ha":646,"x_min":26,"x_max":644,"o":"m 38 0 l 38 65 l 114 81 q 115 190 115 132 q 115 292 115 247 l 115 374 q 115 423 115 403 q 115 461 115 443 q 113 496 114 479 q 111 533 113 513 l 26 546 l 26 600 l 300 693 l 325 678 l 338 514 q 373 592 351 558 q 419 649 394 626 q 472 682 444 671 q 524 693 499 693 q 603 667 569 693 q 644 590 636 642 q 615 506 642 536 q 546 476 588 476 q 489 492 514 476 q 439 542 464 508 l 431 553 q 374 479 399 524 q 338 386 349 435 l 338 292 q 338 193 338 249 q 339 89 338 138 l 449 65 l 449 0 l 38 0 z "},"s":{"ha":632,"x_min":42,"x_max":599,"o":"m 283 -21 q 42 43 151 -21 l 46 213 l 157 213 l 181 75 q 231 60 206 65 q 285 56 256 56 q 376 76 344 56 q 408 138 408 96 q 385 193 408 169 q 292 236 361 217 l 217 258 q 92 334 135 282 q 49 465 49 386 q 67 554 49 513 q 123 627 86 596 q 214 676 160 658 q 339 693 268 693 q 453 678 401 693 q 558 636 504 664 l 549 485 l 438 485 l 410 604 q 375 613 393 611 q 333 615 357 615 q 258 596 286 615 q 229 538 229 576 q 234 511 229 524 q 251 488 239 499 q 287 466 264 476 q 346 444 310 456 l 414 425 q 556 342 514 396 q 599 210 599 289 q 515 40 599 100 q 283 -21 431 -21 z "},"t":{"ha":497,"x_min":15,"x_max":507,"o":"m 326 188 q 346 116 326 139 q 397 93 365 93 q 472 124 433 93 l 507 90 q 430 8 479 38 q 303 -21 381 -21 q 156 24 208 -21 q 104 172 104 68 q 105 240 104 208 q 106 311 106 271 l 106 576 l 15 576 l 15 658 l 118 672 l 188 867 l 329 867 l 326 671 l 472 671 l 472 576 l 326 576 l 326 188 z "},"u":{"ha":843,"x_min":26,"x_max":815,"o":"m 815 -1 l 531 -15 l 522 100 q 422 10 478 42 q 297 -21 365 -21 q 217 -8 253 -21 q 154 35 181 6 q 114 113 128 65 q 101 229 100 160 l 107 568 l 26 586 l 26 644 l 310 685 l 332 669 l 325 474 l 325 228 q 344 138 325 163 q 400 114 364 114 q 460 131 429 114 q 519 176 492 149 l 525 568 l 449 586 l 449 640 l 725 685 l 747 669 l 743 474 l 743 79 l 815 64 l 815 -1 z "},"v":{"ha":732,"x_min":-10,"x_max":724,"o":"m 414 -3 l 308 -3 l 58 596 l -10 610 l -10 671 l 385 671 l 385 610 l 297 593 l 428 238 l 549 593 l 461 610 l 461 671 l 724 671 l 724 610 l 643 594 l 414 -3 z "},"w":{"ha":1096,"x_min":-10,"x_max":1088,"o":"m 693 -3 q 592 269 629 164 q 533 444 554 375 l 375 -3 l 271 -3 l 51 600 l -10 610 l -10 671 l 356 671 l 356 610 l 275 599 l 385 243 l 506 597 l 424 610 l 424 671 l 764 671 l 764 610 l 688 597 l 801 250 l 914 597 l 835 610 l 835 671 l 1088 671 l 1088 610 l 1010 597 l 797 -3 l 693 -3 z "},"x":{"ha":767,"x_min":14,"x_max":753,"o":"m 276 65 l 276 0 l 14 0 l 14 65 l 110 81 l 276 307 l 96 599 l 18 610 l 18 671 l 408 671 l 408 610 l 347 600 l 449 439 l 551 594 l 485 610 l 485 671 l 728 671 l 728 610 l 649 594 l 488 376 l 674 79 l 753 65 l 753 0 l 356 0 l 356 65 l 419 75 l 317 242 l 208 78 l 276 65 z "},"y":{"ha":742,"x_min":-3,"x_max":736,"o":"m 144 -329 q 92 -321 117 -329 q 47 -299 67 -312 q 15 -266 28 -285 q 1 -225 3 -247 q 42 -157 10 -179 q 115 -135 75 -135 q 175 -147 143 -135 q 235 -200 207 -158 l 244 -214 q 339 -54 306 -149 l 339 -53 l 63 600 l -3 611 l -3 671 l 392 671 l 392 611 l 299 594 l 435 218 l 567 594 l 475 611 l 475 671 l 736 671 l 736 611 l 657 597 l 404 -57 q 353 -174 379 -124 q 297 -260 328 -225 q 230 -312 267 -294 q 144 -329 193 -329 z "},"z":{"ha":644,"x_min":25,"x_max":625,"o":"m 44 671 l 611 671 l 611 618 l 276 64 l 471 64 l 513 232 l 625 232 l 611 0 l 25 0 l 25 54 l 374 608 l 183 608 l 146 454 l 33 460 l 44 671 z "},"À":{"ha":938,"x_min":13,"x_max":919,"o":"m 13 0 l 13 75 l 125 92 l 407 914 l 550 914 l 835 82 l 919 72 l 919 0 l 490 0 l 490 72 l 597 86 l 542 265 l 261 265 l 206 92 l 311 75 l 311 0 l 13 0 m 515 346 l 403 701 l 288 346 l 515 346 m 561 1019 l 522 965 q 416 1012 469 989 q 308 1058 363 1035 q 243 1107 258 1082 q 228 1151 228 1132 q 249 1201 228 1179 q 304 1222 271 1222 q 351 1210 328 1222 q 407 1167 374 1199 q 483 1095 443 1132 q 561 1019 522 1058 z "},"Á":{"ha":938,"x_min":13,"x_max":919,"o":"m 13 0 l 13 75 l 125 92 l 407 914 l 550 914 l 835 82 l 919 72 l 919 0 l 490 0 l 490 72 l 597 86 l 542 265 l 261 265 l 206 92 l 311 75 l 311 0 l 13 0 m 515 346 l 403 701 l 288 346 l 515 346 m 372 1019 q 450 1094 411 1057 q 526 1167 489 1131 q 583 1210 560 1199 q 629 1222 606 1222 q 684 1201 663 1222 q 706 1151 706 1179 q 690 1108 706 1132 q 626 1061 675 1083 q 518 1013 572 1036 q 411 965 464 989 l 372 1019 z "},"Â":{"ha":938,"x_min":13,"x_max":919,"o":"m 13 0 l 13 75 l 125 92 l 407 914 l 550 914 l 835 82 l 919 72 l 919 0 l 490 0 l 490 72 l 597 86 l 542 265 l 261 265 l 206 92 l 311 75 l 311 0 l 13 0 m 515 346 l 403 701 l 288 346 l 515 346 m 519 1206 l 728 996 l 686 946 l 472 1064 l 258 946 l 217 996 l 425 1206 l 519 1206 z "},"Ã":{"ha":938,"x_min":13,"x_max":919,"o":"m 13 0 l 13 75 l 125 92 l 407 914 l 550 914 l 835 82 l 919 72 l 919 0 l 490 0 l 490 72 l 597 86 l 542 265 l 261 265 l 206 92 l 311 75 l 311 0 l 13 0 m 515 346 l 403 701 l 288 346 l 515 346 m 218 1000 q 272 1142 229 1092 q 376 1193 314 1193 q 434 1182 410 1193 q 482 1156 458 1171 q 526 1126 503 1140 q 575 1111 549 1111 q 628 1133 607 1111 q 664 1194 650 1156 l 722 1171 q 669 1028 711 1079 q 567 976 626 976 q 507 988 535 976 q 457 1014 479 999 q 414 1044 436 1029 q 364 1058 392 1058 q 311 1036 332 1058 q 276 976 290 1014 l 218 1000 z "},"Ä":{"ha":938,"x_min":13,"x_max":919,"o":"m 13 0 l 13 75 l 125 92 l 407 914 l 550 914 l 835 82 l 919 72 l 919 0 l 490 0 l 490 72 l 597 86 l 542 265 l 261 265 l 206 92 l 311 75 l 311 0 l 13 0 m 515 346 l 403 701 l 288 346 l 515 346 m 303 990 q 232 1016 263 990 q 201 1086 201 1042 q 232 1156 201 1131 q 303 1182 263 1182 q 375 1156 344 1182 q 406 1086 406 1131 q 375 1016 406 1042 q 303 990 344 990 m 649 990 q 578 1016 608 990 q 547 1086 547 1042 q 578 1156 547 1131 q 649 1182 608 1182 q 721 1156 690 1182 q 751 1086 751 1131 q 721 1016 751 1042 q 649 990 690 990 z "},"Ā":{"ha":938,"x_min":13,"x_max":919,"o":"m 13 0 l 13 75 l 125 92 l 407 914 l 550 914 l 835 82 l 919 72 l 919 0 l 490 0 l 490 72 l 597 86 l 542 265 l 261 265 l 206 92 l 311 75 l 311 0 l 13 0 m 515 346 l 403 701 l 288 346 l 515 346 m 253 1013 l 253 1136 l 700 1136 l 700 1013 l 253 1013 z "},"Ă":{"ha":938,"x_min":13,"x_max":919,"o":"m 13 0 l 13 75 l 125 92 l 407 914 l 550 914 l 835 82 l 919 72 l 919 0 l 490 0 l 490 72 l 597 86 l 542 265 l 261 265 l 206 92 l 311 75 l 311 0 l 13 0 m 515 346 l 403 701 l 288 346 l 515 346 m 247 1165 l 311 1190 q 374 1117 335 1143 q 476 1090 414 1090 q 578 1117 539 1090 q 642 1190 618 1143 l 706 1165 q 682 1094 699 1128 q 637 1034 665 1060 q 569 993 608 1008 q 476 978 529 978 q 384 993 424 978 q 316 1034 344 1008 q 271 1094 288 1060 q 247 1165 254 1128 z "},"Ắ":{"ha":938,"x_min":13,"x_max":919,"o":"m 13 0 l 13 75 l 125 92 l 407 914 l 550 914 l 835 82 l 919 72 l 919 0 l 490 0 l 490 72 l 597 86 l 542 265 l 261 265 l 206 92 l 311 75 l 311 0 l 13 0 m 515 346 l 403 701 l 288 346 l 515 346 m 474 982 q 380 997 419 982 q 313 1038 340 1013 q 268 1098 285 1064 q 244 1169 251 1132 l 308 1194 q 372 1121 332 1147 q 474 1094 411 1094 q 576 1121 536 1094 q 639 1194 615 1147 l 703 1169 q 679 1098 696 1132 q 635 1038 663 1064 q 567 997 607 1013 q 474 982 528 982 m 404 1199 l 499 1351 q 542 1403 521 1388 q 592 1418 564 1418 q 642 1399 619 1418 q 665 1356 665 1381 q 653 1310 665 1332 q 604 1261 640 1288 l 454 1153 l 404 1199 z "},"Ặ":{"ha":938,"x_min":13,"x_max":919,"o":"m 13 0 l 13 75 l 125 92 l 407 914 l 550 914 l 835 82 l 919 72 l 919 0 l 490 0 l 490 72 l 597 86 l 542 265 l 261 265 l 206 92 l 311 75 l 311 0 l 13 0 m 515 346 l 403 701 l 288 346 l 515 346 m 247 1165 l 311 1190 q 374 1117 335 1143 q 476 1090 414 1090 q 578 1117 539 1090 q 642 1190 618 1143 l 706 1165 q 682 1094 699 1128 q 637 1034 665 1060 q 569 993 608 1008 q 476 978 529 978 q 384 993 424 978 q 316 1034 344 1008 q 271 1094 288 1060 q 247 1165 254 1128 m 454 -312 q 371 -282 406 -312 q 336 -203 336 -251 q 371 -123 336 -154 q 454 -92 406 -92 q 538 -123 503 -92 q 572 -203 572 -154 q 538 -282 572 -251 q 454 -312 503 -312 z "},"Ằ":{"ha":938,"x_min":13,"x_max":919,"o":"m 13 0 l 13 75 l 125 92 l 407 914 l 550 914 l 835 82 l 919 72 l 919 0 l 490 0 l 490 72 l 597 86 l 542 265 l 261 265 l 206 92 l 311 75 l 311 0 l 13 0 m 515 346 l 403 701 l 288 346 l 515 346 m 474 982 q 380 997 419 982 q 313 1038 340 1013 q 268 1098 285 1064 q 244 1169 251 1132 l 308 1194 q 372 1121 332 1147 q 474 1094 411 1094 q 576 1121 536 1094 q 639 1194 615 1147 l 703 1169 q 679 1098 696 1132 q 635 1038 663 1064 q 567 997 607 1013 q 474 982 528 982 m 543 1199 l 493 1153 l 343 1261 q 294 1310 307 1288 q 282 1356 282 1332 q 305 1399 282 1381 q 356 1418 328 1418 q 405 1403 383 1418 q 449 1351 426 1388 l 543 1199 z "},"Ẳ":{"ha":938,"x_min":13,"x_max":919,"o":"m 13 0 l 13 75 l 125 92 l 407 914 l 550 914 l 835 82 l 919 72 l 919 0 l 490 0 l 490 72 l 597 86 l 542 265 l 261 265 l 206 92 l 311 75 l 311 0 l 13 0 m 515 346 l 403 701 l 288 346 l 515 346 m 429 1135 l 417 1193 q 477 1213 464 1203 q 490 1233 490 1222 q 465 1258 490 1249 q 376 1274 440 1268 l 389 1413 q 597 1263 597 1396 q 553 1176 597 1208 q 429 1135 510 1144 m 244 1169 l 308 1194 q 372 1121 332 1147 q 474 1094 411 1094 q 576 1121 536 1094 q 639 1194 615 1147 l 703 1169 q 679 1098 696 1132 q 634 1038 663 1064 q 566 997 606 1013 q 474 982 526 982 q 381 997 421 982 q 313 1038 342 1013 q 268 1098 285 1064 q 244 1169 251 1132 z "},"Ẵ":{"ha":938,"x_min":13,"x_max":919,"o":"m 13 0 l 13 75 l 125 92 l 407 914 l 550 914 l 835 82 l 919 72 l 919 0 l 490 0 l 490 72 l 597 86 l 542 265 l 261 265 l 206 92 l 311 75 l 311 0 l 13 0 m 515 346 l 403 701 l 288 346 l 515 346 m 228 1232 q 277 1347 239 1307 q 378 1388 315 1388 q 439 1378 414 1388 q 486 1361 464 1369 q 530 1346 508 1353 q 578 1339 551 1339 q 664 1396 638 1339 l 719 1376 q 672 1260 708 1301 q 575 1218 635 1218 q 511 1227 539 1218 q 460 1246 483 1236 q 417 1260 439 1253 q 368 1268 396 1268 q 317 1253 339 1268 q 283 1211 296 1238 l 228 1232 m 474 982 q 381 997 421 982 q 315 1035 342 1011 q 271 1092 288 1060 q 246 1161 254 1125 l 308 1186 q 373 1118 335 1142 q 474 1094 411 1094 q 575 1118 536 1094 q 639 1186 614 1142 l 701 1161 q 676 1092 693 1125 q 633 1035 660 1060 q 566 997 606 1011 q 474 982 526 982 z "},"Ǎ":{"ha":938,"x_min":13,"x_max":919,"o":"m 13 0 l 13 75 l 125 92 l 407 914 l 550 914 l 835 82 l 919 72 l 919 0 l 490 0 l 490 72 l 597 86 l 542 265 l 261 265 l 206 92 l 311 75 l 311 0 l 13 0 m 515 346 l 403 701 l 288 346 l 515 346 m 282 1229 l 474 1104 l 665 1229 l 713 1185 l 533 979 l 414 979 l 236 1185 l 282 1229 z "},"Ấ":{"ha":938,"x_min":13,"x_max":919,"o":"m 13 0 l 13 75 l 125 92 l 407 914 l 550 914 l 835 82 l 919 72 l 919 0 l 490 0 l 490 72 l 597 86 l 542 265 l 261 265 l 206 92 l 311 75 l 311 0 l 13 0 m 515 346 l 403 701 l 288 346 l 515 346 m 260 954 l 218 1004 l 426 1214 l 521 1214 l 729 1004 l 688 954 l 474 1072 l 260 954 m 701 1094 l 658 1147 l 697 1210 q 753 1280 725 1263 q 804 1297 781 1297 q 852 1278 832 1297 q 872 1226 872 1258 q 849 1173 872 1199 q 781 1128 826 1147 l 701 1094 z "},"Ậ":{"ha":938,"x_min":13,"x_max":919,"o":"m 13 0 l 13 75 l 125 92 l 407 914 l 550 914 l 835 82 l 919 72 l 919 0 l 490 0 l 490 72 l 597 86 l 542 265 l 261 265 l 206 92 l 311 75 l 311 0 l 13 0 m 515 346 l 403 701 l 288 346 l 515 346 m 519 1206 l 728 996 l 686 946 l 472 1064 l 258 946 l 217 996 l 425 1206 l 519 1206 m 433 -312 q 350 -282 385 -312 q 315 -203 315 -251 q 350 -123 315 -154 q 433 -92 385 -92 q 517 -123 482 -92 q 551 -203 551 -154 q 517 -282 551 -251 q 433 -312 482 -312 z "},"Ầ":{"ha":938,"x_min":13,"x_max":919,"o":"m 13 0 l 13 75 l 125 92 l 407 914 l 550 914 l 835 82 l 919 72 l 919 0 l 490 0 l 490 72 l 597 86 l 542 265 l 261 265 l 206 92 l 311 75 l 311 0 l 13 0 m 515 346 l 403 701 l 288 346 l 515 346 m 688 954 l 474 1072 l 260 954 l 218 1004 l 426 1214 l 521 1214 l 729 1004 l 688 954 m 242 1094 l 163 1128 q 71 1226 71 1167 q 91 1278 71 1258 q 139 1297 111 1297 q 190 1281 163 1297 q 247 1210 218 1264 l 285 1147 l 242 1094 z "},"Ẩ":{"ha":938,"x_min":13,"x_max":919,"o":"m 13 0 l 13 75 l 125 92 l 407 914 l 550 914 l 835 82 l 919 72 l 919 0 l 490 0 l 490 72 l 597 86 l 542 265 l 261 265 l 206 92 l 311 75 l 311 0 l 13 0 m 515 346 l 403 701 l 288 346 l 515 346 m 260 954 l 218 1004 l 426 1214 l 521 1214 l 729 1004 l 688 954 l 474 1072 l 260 954 m 661 1157 q 721 1176 707 1165 q 735 1199 735 1188 q 709 1224 735 1214 q 619 1239 683 1233 l 633 1379 q 840 1229 840 1361 q 797 1140 840 1174 q 674 1097 753 1107 l 661 1157 z "},"Ẫ":{"ha":938,"x_min":13,"x_max":919,"o":"m 13 0 l 13 75 l 125 92 l 407 914 l 550 914 l 835 82 l 919 72 l 919 0 l 490 0 l 490 72 l 597 86 l 542 265 l 261 265 l 206 92 l 311 75 l 311 0 l 13 0 m 515 346 l 403 701 l 288 346 l 515 346 m 258 950 l 218 1000 l 426 1174 l 521 1174 l 729 1000 l 689 950 l 474 1047 l 258 950 m 228 1218 q 280 1333 239 1293 q 378 1374 321 1374 q 439 1365 414 1374 q 486 1347 464 1356 q 530 1332 508 1339 q 578 1325 551 1325 q 664 1382 638 1325 l 719 1363 q 668 1246 708 1288 q 575 1204 628 1204 q 511 1213 539 1204 q 460 1232 483 1222 q 417 1247 439 1239 q 368 1254 396 1254 q 317 1239 339 1254 q 283 1197 296 1224 l 228 1218 z "},"Ạ":{"ha":938,"x_min":13,"x_max":919,"o":"m 13 0 l 13 75 l 125 92 l 407 914 l 550 914 l 835 82 l 919 72 l 919 0 l 490 0 l 490 72 l 597 86 l 542 265 l 261 265 l 206 92 l 311 75 l 311 0 l 13 0 m 515 346 l 403 701 l 288 346 l 515 346 m 433 -312 q 350 -282 385 -312 q 315 -203 315 -251 q 350 -123 315 -154 q 433 -92 385 -92 q 517 -123 482 -92 q 551 -203 551 -154 q 517 -282 551 -251 q 433 -312 482 -312 z "},"Ả":{"ha":938,"x_min":13,"x_max":919,"o":"m 13 0 l 13 75 l 125 92 l 407 914 l 550 914 l 835 82 l 919 72 l 919 0 l 490 0 l 490 72 l 597 86 l 542 265 l 261 265 l 206 92 l 311 75 l 311 0 l 13 0 m 515 346 l 403 701 l 288 346 l 515 346 m 419 983 l 407 1042 q 467 1061 454 1051 q 481 1082 481 1071 q 456 1107 481 1097 q 367 1122 431 1117 l 379 1261 q 588 1111 588 1244 q 544 1025 588 1057 q 419 983 500 993 z "},"Å":{"ha":938,"x_min":13,"x_max":919,"o":"m 13 0 l 13 75 l 125 92 l 407 914 l 550 914 l 835 82 l 919 72 l 919 0 l 490 0 l 490 72 l 597 86 l 542 265 l 261 265 l 206 92 l 311 75 l 311 0 l 13 0 m 515 346 l 403 701 l 288 346 l 515 346 m 476 974 q 375 1010 417 974 q 333 1111 333 1047 q 375 1211 333 1174 q 476 1249 417 1249 q 578 1213 536 1249 q 619 1111 619 1176 q 578 1010 619 1046 q 476 974 536 974 m 476 1038 q 528 1058 508 1038 q 547 1111 547 1079 q 528 1163 547 1143 q 476 1183 508 1183 q 425 1163 444 1183 q 406 1111 406 1143 q 425 1058 406 1079 q 476 1038 444 1038 z "},"Ą":{"ha":938,"x_min":13,"x_max":928,"o":"m 13 0 l 13 75 l 125 92 l 407 914 l 550 914 l 835 82 l 919 72 l 919 0 l 490 0 l 490 72 l 597 86 l 542 265 l 261 265 l 206 92 l 311 75 l 311 0 l 13 0 m 515 346 l 403 701 l 288 346 l 515 346 m 590 -178 q 635 -65 590 -111 q 754 13 679 -18 l 811 13 q 751 -41 769 -11 q 733 -107 733 -71 q 760 -174 733 -150 q 832 -199 788 -199 q 873 -195 856 -199 q 907 -185 890 -192 l 928 -244 q 847 -295 896 -278 q 744 -312 797 -312 q 630 -274 669 -312 q 590 -178 590 -236 z "},"Æ":{"ha":1239,"x_min":13,"x_max":1206,"o":"m 13 0 l 13 75 l 104 88 l 463 822 l 332 838 l 332 913 l 1168 913 l 1178 674 l 1061 674 l 1033 835 l 801 835 q 799 675 799 756 q 799 513 799 594 l 950 513 l 967 621 l 1047 621 l 1047 322 l 967 322 l 950 431 l 799 431 q 799 249 799 335 q 801 78 799 163 l 1061 78 l 1089 239 l 1206 239 l 1196 0 l 461 0 l 461 75 l 563 86 q 565 213 564 149 q 565 339 565 276 l 321 339 l 203 93 l 311 75 l 311 0 l 13 0 m 565 419 l 565 817 l 550 817 l 360 419 l 565 419 z "},"Ç":{"ha":864,"x_min":47,"x_max":826,"o":"m 565 54 q 682 81 621 54 l 721 258 l 826 258 l 821 44 q 692 -6 764 14 q 529 -26 619 -26 q 341 3 429 -26 q 188 94 253 33 q 85 244 122 154 q 47 457 47 335 q 88 670 47 579 q 195 821 128 761 q 351 910 263 881 q 539 939 440 939 q 683 922 618 939 q 811 869 749 904 l 817 654 l 711 654 l 671 836 q 571 860 624 860 q 465 836 515 860 q 377 764 415 813 q 316 638 339 715 q 293 456 293 561 q 315 273 293 349 q 374 149 336 197 q 460 77 411 100 q 565 54 510 54 m 456 -124 l 475 6 l 547 6 l 539 -71 q 645 -116 613 -85 q 678 -189 678 -147 q 631 -277 678 -242 q 490 -312 585 -312 q 431 -308 457 -312 q 382 -294 406 -303 l 397 -231 q 434 -239 417 -236 q 471 -242 451 -242 q 526 -227 508 -242 q 543 -189 543 -212 q 522 -142 543 -157 q 456 -124 500 -126 z "},"Ć":{"ha":864,"x_min":47,"x_max":826,"o":"m 565 54 q 682 81 621 54 l 721 258 l 826 258 l 821 44 q 692 -6 764 14 q 529 -26 619 -26 q 341 3 429 -26 q 188 94 253 33 q 85 244 122 154 q 47 457 47 335 q 88 670 47 579 q 195 821 128 761 q 351 910 263 881 q 539 939 440 939 q 683 922 618 939 q 811 869 749 904 l 817 654 l 711 654 l 671 836 q 571 860 624 860 q 465 836 515 860 q 377 764 415 813 q 316 638 339 715 q 293 456 293 561 q 315 273 293 349 q 374 149 336 197 q 460 77 411 100 q 565 54 510 54 m 435 1029 q 513 1103 474 1067 q 589 1176 551 1140 q 645 1220 622 1208 q 692 1232 668 1232 q 747 1210 725 1232 q 768 1161 768 1189 q 753 1117 768 1142 q 689 1071 738 1093 q 581 1022 635 1046 q 474 975 526 999 l 435 1029 z "},"Č":{"ha":864,"x_min":47,"x_max":826,"o":"m 565 54 q 682 81 621 54 l 721 258 l 826 258 l 821 44 q 692 -6 764 14 q 529 -26 619 -26 q 341 3 429 -26 q 188 94 253 33 q 85 244 122 154 q 47 457 47 335 q 88 670 47 579 q 195 821 128 761 q 351 910 263 881 q 539 939 440 939 q 683 922 618 939 q 811 869 749 904 l 817 654 l 711 654 l 671 836 q 571 860 624 860 q 465 836 515 860 q 377 764 415 813 q 316 638 339 715 q 293 456 293 561 q 315 273 293 349 q 374 149 336 197 q 460 77 411 100 q 565 54 510 54 m 338 1239 l 529 1114 l 721 1239 l 768 1194 l 589 989 l 469 989 l 292 1194 l 338 1239 z "},"Ĉ":{"ha":864,"x_min":47,"x_max":826,"o":"m 565 54 q 682 81 621 54 l 721 258 l 826 258 l 821 44 q 692 -6 764 14 q 529 -26 619 -26 q 341 3 429 -26 q 188 94 253 33 q 85 244 122 154 q 47 457 47 335 q 88 670 47 579 q 195 821 128 761 q 351 910 263 881 q 539 939 440 939 q 683 922 618 939 q 811 869 749 904 l 817 654 l 711 654 l 671 836 q 571 860 624 860 q 465 836 515 860 q 377 764 415 813 q 316 638 339 715 q 293 456 293 561 q 315 273 293 349 q 374 149 336 197 q 460 77 411 100 q 565 54 510 54 m 558 1214 l 767 1004 l 725 954 l 511 1072 l 297 954 l 256 1004 l 464 1214 l 558 1214 z "},"Ċ":{"ha":864,"x_min":47,"x_max":826,"o":"m 565 54 q 682 81 621 54 l 721 258 l 826 258 l 821 44 q 692 -6 764 14 q 529 -26 619 -26 q 341 3 429 -26 q 188 94 253 33 q 85 244 122 154 q 47 457 47 335 q 88 670 47 579 q 195 821 128 761 q 351 910 263 881 q 539 939 440 939 q 683 922 618 939 q 811 869 749 904 l 817 654 l 711 654 l 671 836 q 571 860 624 860 q 465 836 515 860 q 377 764 415 813 q 316 638 339 715 q 293 456 293 561 q 315 273 293 349 q 374 149 336 197 q 460 77 411 100 q 565 54 510 54 m 515 985 q 432 1016 467 985 q 397 1096 397 1047 q 432 1175 397 1144 q 515 1206 467 1206 q 599 1175 564 1206 q 633 1096 633 1144 q 599 1016 633 1047 q 515 985 564 985 z "},"Ď":{"ha":979,"x_min":46,"x_max":932,"o":"m 153 435 l 153 482 q 153 654 153 568 q 150 826 153 740 l 46 838 l 46 913 l 458 913 q 657 881 569 913 q 806 791 744 850 q 899 648 867 732 q 932 458 932 564 q 897 265 932 350 q 797 121 861 179 q 640 31 732 63 q 433 0 547 0 l 46 0 l 46 75 l 150 86 q 153 258 153 171 q 153 435 153 344 m 386 436 q 386 256 386 344 q 389 81 386 168 l 435 81 q 623 178 554 81 q 692 457 692 275 q 623 737 692 642 q 436 832 554 832 l 389 832 q 386 658 386 744 q 386 482 386 571 l 386 436 m 275 1229 l 467 1104 l 658 1229 l 706 1185 l 526 979 l 407 979 l 229 1185 l 275 1229 z "},"Đ":{"ha":979,"x_min":46,"x_max":932,"o":"m 547 428 l 386 428 q 386 248 386 332 q 389 81 386 164 l 435 81 q 623 178 554 81 q 692 457 692 275 q 623 737 692 642 q 436 832 554 832 l 389 832 q 386 661 386 744 q 386 508 386 578 l 547 508 l 547 428 m 46 0 l 46 75 l 150 86 q 153 257 153 171 q 153 428 153 343 l 46 428 l 46 508 l 153 508 q 153 667 153 588 q 150 826 153 747 l 46 838 l 46 913 l 458 913 q 657 881 569 913 q 806 791 744 850 q 899 648 867 732 q 932 458 932 564 q 897 265 932 350 q 797 121 861 179 q 640 31 732 63 q 433 0 547 0 l 46 0 z "},"Ḍ":{"ha":979,"x_min":46,"x_max":932,"o":"m 153 435 l 153 482 q 153 654 153 568 q 150 826 153 740 l 46 838 l 46 913 l 458 913 q 657 881 569 913 q 806 791 744 850 q 899 648 867 732 q 932 458 932 564 q 897 265 932 350 q 797 121 861 179 q 640 31 732 63 q 433 0 547 0 l 46 0 l 46 75 l 150 86 q 153 258 153 171 q 153 435 153 344 m 386 436 q 386 256 386 344 q 389 81 386 168 l 435 81 q 623 178 554 81 q 692 457 692 275 q 623 737 692 642 q 436 832 554 832 l 389 832 q 386 658 386 744 q 386 482 386 571 l 386 436 m 475 -312 q 392 -282 426 -312 q 357 -203 357 -251 q 392 -123 357 -154 q 475 -92 426 -92 q 558 -123 524 -92 q 593 -203 593 -154 q 558 -282 593 -251 q 475 -312 524 -312 z "},"Ḏ":{"ha":979,"x_min":46,"x_max":932,"o":"m 153 435 l 153 482 q 153 654 153 568 q 150 826 153 740 l 46 838 l 46 913 l 458 913 q 657 881 569 913 q 806 791 744 850 q 899 648 867 732 q 932 458 932 564 q 897 265 932 350 q 797 121 861 179 q 640 31 732 63 q 433 0 547 0 l 46 0 l 46 75 l 150 86 q 153 258 153 171 q 153 435 153 344 m 386 436 q 386 256 386 344 q 389 81 386 168 l 435 81 q 623 178 554 81 q 692 457 692 275 q 623 737 692 642 q 436 832 554 832 l 389 832 q 386 658 386 744 q 386 482 386 571 l 386 436 m 263 -268 l 263 -144 l 704 -144 l 704 -268 l 263 -268 z "},"È":{"ha":826,"x_min":46,"x_max":792,"o":"m 153 431 l 153 482 q 153 654 153 568 q 150 826 153 740 l 46 838 l 46 913 l 754 913 l 764 674 l 649 674 l 621 835 l 389 835 q 386 675 386 756 q 386 513 386 594 l 536 513 l 553 621 l 633 621 l 633 322 l 553 322 l 536 431 l 386 431 q 386 249 386 335 q 389 78 386 163 l 649 78 l 676 239 l 792 239 l 782 0 l 46 0 l 46 75 l 150 86 q 153 257 153 171 q 153 431 153 343 m 518 1019 l 479 965 q 373 1012 426 989 q 265 1058 319 1035 q 200 1107 215 1082 q 185 1151 185 1132 q 206 1201 185 1179 q 261 1222 228 1222 q 308 1210 285 1222 q 364 1167 331 1199 q 440 1095 400 1132 q 518 1019 479 1058 z "},"É":{"ha":826,"x_min":46,"x_max":792,"o":"m 153 431 l 153 482 q 153 654 153 568 q 150 826 153 740 l 46 838 l 46 913 l 754 913 l 764 674 l 649 674 l 621 835 l 389 835 q 386 675 386 756 q 386 513 386 594 l 536 513 l 553 621 l 633 621 l 633 322 l 553 322 l 536 431 l 386 431 q 386 249 386 335 q 389 78 386 163 l 649 78 l 676 239 l 792 239 l 782 0 l 46 0 l 46 75 l 150 86 q 153 257 153 171 q 153 431 153 343 m 333 1019 q 411 1094 372 1057 q 488 1167 450 1131 q 544 1210 521 1199 q 590 1222 567 1222 q 645 1201 624 1222 q 667 1151 667 1179 q 651 1108 667 1132 q 588 1061 636 1083 q 479 1013 533 1036 q 372 965 425 989 l 333 1019 z "},"Ê":{"ha":826,"x_min":46,"x_max":792,"o":"m 153 431 l 153 482 q 153 654 153 568 q 150 826 153 740 l 46 838 l 46 913 l 754 913 l 764 674 l 649 674 l 621 835 l 389 835 q 386 675 386 756 q 386 513 386 594 l 536 513 l 553 621 l 633 621 l 633 322 l 553 322 l 536 431 l 386 431 q 386 249 386 335 q 389 78 386 163 l 649 78 l 676 239 l 792 239 l 782 0 l 46 0 l 46 75 l 150 86 q 153 257 153 171 q 153 431 153 343 m 496 1214 l 704 1004 l 663 954 l 449 1072 l 235 954 l 193 1004 l 401 1214 l 496 1214 z "},"Ě":{"ha":826,"x_min":46,"x_max":792,"o":"m 153 431 l 153 482 q 153 654 153 568 q 150 826 153 740 l 46 838 l 46 913 l 754 913 l 764 674 l 649 674 l 621 835 l 389 835 q 386 675 386 756 q 386 513 386 594 l 536 513 l 553 621 l 633 621 l 633 322 l 553 322 l 536 431 l 386 431 q 386 249 386 335 q 389 78 386 163 l 649 78 l 676 239 l 792 239 l 782 0 l 46 0 l 46 75 l 150 86 q 153 257 153 171 q 153 431 153 343 m 246 1229 l 438 1104 l 629 1229 l 676 1185 l 497 979 l 378 979 l 200 1185 l 246 1229 z "},"Ë":{"ha":826,"x_min":46,"x_max":792,"o":"m 153 431 l 153 482 q 153 654 153 568 q 150 826 153 740 l 46 838 l 46 913 l 754 913 l 764 674 l 649 674 l 621 835 l 389 835 q 386 675 386 756 q 386 513 386 594 l 536 513 l 553 621 l 633 621 l 633 322 l 553 322 l 536 431 l 386 431 q 386 249 386 335 q 389 78 386 163 l 649 78 l 676 239 l 792 239 l 782 0 l 46 0 l 46 75 l 150 86 q 153 257 153 171 q 153 431 153 343 m 258 990 q 188 1016 218 990 q 157 1086 157 1042 q 188 1156 157 1131 q 258 1182 218 1182 q 331 1156 300 1182 q 361 1086 361 1131 q 331 1016 361 1042 q 258 990 300 990 m 604 990 q 533 1016 564 990 q 503 1086 503 1042 q 533 1156 503 1131 q 604 1182 564 1182 q 676 1156 646 1182 q 707 1086 707 1131 q 676 1016 707 1042 q 604 990 646 990 z "},"Ē":{"ha":826,"x_min":46,"x_max":792,"o":"m 153 431 l 153 482 q 153 654 153 568 q 150 826 153 740 l 46 838 l 46 913 l 754 913 l 764 674 l 649 674 l 621 835 l 389 835 q 386 675 386 756 q 386 513 386 594 l 536 513 l 553 621 l 633 621 l 633 322 l 553 322 l 536 431 l 386 431 q 386 249 386 335 q 389 78 386 163 l 649 78 l 676 239 l 792 239 l 782 0 l 46 0 l 46 75 l 150 86 q 153 257 153 171 q 153 431 153 343 m 225 1013 l 225 1136 l 672 1136 l 672 1013 l 225 1013 z "},"Ė":{"ha":826,"x_min":46,"x_max":792,"o":"m 153 431 l 153 482 q 153 654 153 568 q 150 826 153 740 l 46 838 l 46 913 l 754 913 l 764 674 l 649 674 l 621 835 l 389 835 q 386 675 386 756 q 386 513 386 594 l 536 513 l 553 621 l 633 621 l 633 322 l 553 322 l 536 431 l 386 431 q 386 249 386 335 q 389 78 386 163 l 649 78 l 676 239 l 792 239 l 782 0 l 46 0 l 46 75 l 150 86 q 153 257 153 171 q 153 431 153 343 m 444 985 q 361 1016 396 985 q 326 1096 326 1047 q 361 1175 326 1144 q 444 1206 396 1206 q 528 1175 493 1206 q 563 1096 563 1144 q 528 1016 563 1047 q 444 985 493 985 z "},"Ę":{"ha":826,"x_min":46,"x_max":822,"o":"m 153 431 l 153 482 q 153 654 153 568 q 150 826 153 740 l 46 838 l 46 913 l 754 913 l 764 674 l 649 674 l 621 835 l 389 835 q 386 675 386 756 q 386 513 386 594 l 536 513 l 553 621 l 633 621 l 633 322 l 553 322 l 536 431 l 386 431 q 386 249 386 335 q 389 78 386 163 l 649 78 l 676 239 l 792 239 l 782 0 l 46 0 l 46 75 l 150 86 q 153 257 153 171 q 153 431 153 343 m 485 -178 q 529 -65 485 -111 q 649 13 574 -18 l 706 13 q 646 -41 664 -11 q 628 -107 628 -71 q 655 -174 628 -150 q 726 -199 682 -199 q 767 -195 750 -199 q 801 -185 785 -192 l 822 -244 q 741 -295 790 -278 q 639 -312 692 -312 q 524 -274 564 -312 q 485 -178 485 -236 z "},"Ĕ":{"ha":826,"x_min":46,"x_max":792,"o":"m 153 431 l 153 482 q 153 654 153 568 q 150 826 153 740 l 46 838 l 46 913 l 754 913 l 764 674 l 649 674 l 621 835 l 389 835 q 386 675 386 756 q 386 513 386 594 l 536 513 l 553 621 l 633 621 l 633 322 l 553 322 l 536 431 l 386 431 q 386 249 386 335 q 389 78 386 163 l 649 78 l 676 239 l 792 239 l 782 0 l 46 0 l 46 75 l 150 86 q 153 257 153 171 q 153 431 153 343 m 203 1169 l 267 1194 q 330 1121 290 1147 q 432 1094 369 1094 q 534 1121 494 1094 q 597 1194 574 1147 l 661 1169 q 638 1098 654 1132 q 592 1038 621 1064 q 524 997 564 1013 q 432 982 485 982 q 340 997 379 982 q 272 1038 300 1013 q 226 1098 243 1064 q 203 1169 210 1132 z "},"Ế":{"ha":826,"x_min":46,"x_max":835,"o":"m 153 431 l 153 482 q 153 654 153 568 q 150 826 153 740 l 46 838 l 46 913 l 754 913 l 764 674 l 649 674 l 621 835 l 389 835 q 386 675 386 756 q 386 513 386 594 l 536 513 l 553 621 l 633 621 l 633 322 l 553 322 l 536 431 l 386 431 q 386 249 386 335 q 389 78 386 163 l 649 78 l 676 239 l 792 239 l 782 0 l 46 0 l 46 75 l 150 86 q 153 257 153 171 q 153 431 153 343 m 222 954 l 181 1004 l 389 1214 l 483 1214 l 692 1004 l 650 954 l 436 1072 l 222 954 m 664 1094 l 621 1147 l 660 1210 q 715 1280 688 1263 q 767 1297 743 1297 q 815 1278 794 1297 q 835 1226 835 1258 q 812 1173 835 1199 q 743 1128 789 1147 l 664 1094 z "},"Ệ":{"ha":826,"x_min":46,"x_max":792,"o":"m 153 431 l 153 482 q 153 654 153 568 q 150 826 153 740 l 46 838 l 46 913 l 754 913 l 764 674 l 649 674 l 621 835 l 389 835 q 386 675 386 756 q 386 513 386 594 l 536 513 l 553 621 l 633 621 l 633 322 l 553 322 l 536 431 l 386 431 q 386 249 386 335 q 389 78 386 163 l 649 78 l 676 239 l 792 239 l 782 0 l 46 0 l 46 75 l 150 86 q 153 257 153 171 q 153 431 153 343 m 496 1214 l 704 1004 l 663 954 l 449 1072 l 235 954 l 193 1004 l 401 1214 l 496 1214 m 442 -312 q 358 -282 393 -312 q 324 -203 324 -251 q 358 -123 324 -154 q 442 -92 393 -92 q 525 -123 490 -92 q 560 -203 560 -154 q 525 -282 560 -251 q 442 -312 490 -312 z "},"Ề":{"ha":826,"x_min":29,"x_max":792,"o":"m 153 431 l 153 482 q 153 654 153 568 q 150 826 153 740 l 46 838 l 46 913 l 754 913 l 764 674 l 649 674 l 621 835 l 389 835 q 386 675 386 756 q 386 513 386 594 l 536 513 l 553 621 l 633 621 l 633 322 l 553 322 l 536 431 l 386 431 q 386 249 386 335 q 389 78 386 163 l 649 78 l 676 239 l 792 239 l 782 0 l 46 0 l 46 75 l 150 86 q 153 257 153 171 q 153 431 153 343 m 646 954 l 432 1072 l 218 954 l 176 1004 l 385 1214 l 479 1214 l 688 1004 l 646 954 m 200 1094 l 121 1128 q 29 1226 29 1167 q 49 1278 29 1258 q 97 1297 69 1297 q 149 1281 121 1297 q 206 1210 176 1264 l 243 1147 l 200 1094 z "},"Ể":{"ha":826,"x_min":46,"x_max":799,"o":"m 153 431 l 153 482 q 153 654 153 568 q 150 826 153 740 l 46 838 l 46 913 l 754 913 l 764 674 l 649 674 l 621 835 l 389 835 q 386 675 386 756 q 386 513 386 594 l 536 513 l 553 621 l 633 621 l 633 322 l 553 322 l 536 431 l 386 431 q 386 249 386 335 q 389 78 386 163 l 649 78 l 676 239 l 792 239 l 782 0 l 46 0 l 46 75 l 150 86 q 153 257 153 171 q 153 431 153 343 m 218 954 l 176 1004 l 385 1214 l 479 1214 l 688 1004 l 646 954 l 432 1072 l 218 954 m 619 1157 q 679 1176 665 1165 q 693 1199 693 1188 q 667 1224 693 1214 q 578 1239 642 1233 l 592 1379 q 799 1229 799 1361 q 755 1140 799 1174 q 632 1097 711 1107 l 619 1157 z "},"Ễ":{"ha":826,"x_min":46,"x_max":792,"o":"m 153 431 l 153 482 q 153 654 153 568 q 150 826 153 740 l 46 838 l 46 913 l 754 913 l 764 674 l 649 674 l 621 835 l 389 835 q 386 675 386 756 q 386 513 386 594 l 536 513 l 553 621 l 633 621 l 633 322 l 553 322 l 536 431 l 386 431 q 386 249 386 335 q 389 78 386 163 l 649 78 l 676 239 l 792 239 l 782 0 l 46 0 l 46 75 l 150 86 q 153 257 153 171 q 153 431 153 343 m 217 950 l 176 1000 l 385 1174 l 479 1174 l 688 1000 l 647 950 l 432 1047 l 217 950 m 186 1218 q 238 1333 197 1293 q 336 1374 279 1374 q 397 1365 372 1374 q 444 1347 422 1356 q 488 1332 467 1339 q 536 1325 510 1325 q 622 1382 596 1325 l 678 1363 q 626 1246 667 1288 q 533 1204 586 1204 q 469 1213 497 1204 q 418 1232 442 1222 q 376 1247 397 1239 q 326 1254 354 1254 q 276 1239 297 1254 q 242 1197 254 1224 l 186 1218 z "},"Ẹ":{"ha":826,"x_min":46,"x_max":792,"o":"m 153 431 l 153 482 q 153 654 153 568 q 150 826 153 740 l 46 838 l 46 913 l 754 913 l 764 674 l 649 674 l 621 835 l 389 835 q 386 675 386 756 q 386 513 386 594 l 536 513 l 553 621 l 633 621 l 633 322 l 553 322 l 536 431 l 386 431 q 386 249 386 335 q 389 78 386 163 l 649 78 l 676 239 l 792 239 l 782 0 l 46 0 l 46 75 l 150 86 q 153 257 153 171 q 153 431 153 343 m 442 -312 q 358 -282 393 -312 q 324 -203 324 -251 q 358 -123 324 -154 q 442 -92 393 -92 q 525 -123 490 -92 q 560 -203 560 -154 q 525 -282 560 -251 q 442 -312 490 -312 z "},"Ẻ":{"ha":826,"x_min":46,"x_max":792,"o":"m 153 431 l 153 482 q 153 654 153 568 q 150 826 153 740 l 46 838 l 46 913 l 754 913 l 764 674 l 649 674 l 621 835 l 389 835 q 386 675 386 756 q 386 513 386 594 l 536 513 l 553 621 l 633 621 l 633 322 l 553 322 l 536 431 l 386 431 q 386 249 386 335 q 389 78 386 163 l 649 78 l 676 239 l 792 239 l 782 0 l 46 0 l 46 75 l 150 86 q 153 257 153 171 q 153 431 153 343 m 388 983 l 375 1042 q 435 1061 422 1051 q 449 1082 449 1071 q 424 1107 449 1097 q 335 1122 399 1117 l 347 1261 q 556 1111 556 1244 q 512 1025 556 1057 q 388 983 468 993 z "},"Ẽ":{"ha":826,"x_min":46,"x_max":792,"o":"m 153 431 l 153 482 q 153 654 153 568 q 150 826 153 740 l 46 838 l 46 913 l 754 913 l 764 674 l 649 674 l 621 835 l 389 835 q 386 675 386 756 q 386 513 386 594 l 536 513 l 553 621 l 633 621 l 633 322 l 553 322 l 536 431 l 386 431 q 386 249 386 335 q 389 78 386 163 l 649 78 l 676 239 l 792 239 l 782 0 l 46 0 l 46 75 l 150 86 q 153 257 153 171 q 153 431 153 343 m 181 1000 q 234 1142 192 1092 q 339 1193 276 1193 q 397 1182 372 1193 q 444 1156 421 1171 q 488 1126 465 1140 q 538 1111 511 1111 q 591 1133 569 1111 q 626 1194 613 1156 l 685 1171 q 631 1028 674 1079 q 529 976 589 976 q 469 988 497 976 q 419 1014 442 999 q 376 1044 399 1029 q 326 1058 354 1058 q 274 1036 294 1058 q 239 976 253 1014 l 181 1000 z "},"Ğ":{"ha":938,"x_min":47,"x_max":917,"o":"m 842 114 l 842 56 q 694 -6 768 14 q 528 -26 619 -26 q 332 7 421 -26 q 180 103 243 40 q 82 255 117 165 q 47 458 47 344 q 81 657 47 568 q 178 808 114 746 q 334 905 242 871 q 544 939 426 939 q 682 923 613 939 q 813 875 751 907 l 818 658 l 711 658 l 671 839 q 571 860 621 860 q 464 836 514 860 q 376 763 414 813 q 315 638 338 714 q 293 458 293 563 q 315 278 293 354 q 374 151 336 201 q 461 77 411 101 q 568 53 511 53 q 621 58 599 53 l 621 118 q 620 239 621 181 q 618 358 619 297 l 493 375 l 493 450 l 917 450 l 917 375 l 844 365 q 842 241 843 303 q 842 114 842 179 m 296 1169 l 360 1194 q 423 1121 383 1147 q 525 1094 463 1094 q 627 1121 588 1094 q 690 1194 667 1147 l 754 1169 q 731 1098 747 1132 q 685 1038 714 1064 q 617 997 657 1013 q 525 982 578 982 q 433 997 472 982 q 365 1038 393 1013 q 319 1098 336 1064 q 296 1169 303 1132 z "},"Ġ":{"ha":938,"x_min":47,"x_max":917,"o":"m 842 114 l 842 56 q 694 -6 768 14 q 528 -26 619 -26 q 332 7 421 -26 q 180 103 243 40 q 82 255 117 165 q 47 458 47 344 q 81 657 47 568 q 178 808 114 746 q 334 905 242 871 q 544 939 426 939 q 682 923 613 939 q 813 875 751 907 l 818 658 l 711 658 l 671 839 q 571 860 621 860 q 464 836 514 860 q 376 763 414 813 q 315 638 338 714 q 293 458 293 563 q 315 278 293 354 q 374 151 336 201 q 461 77 411 101 q 568 53 511 53 q 621 58 599 53 l 621 118 q 620 239 621 181 q 618 358 619 297 l 493 375 l 493 450 l 917 450 l 917 375 l 844 365 q 842 241 843 303 q 842 114 842 179 m 526 985 q 443 1016 478 985 q 408 1096 408 1047 q 443 1175 408 1144 q 526 1206 478 1206 q 610 1175 575 1206 q 644 1096 644 1144 q 610 1016 644 1047 q 526 985 575 985 z "},"Ģ":{"ha":938,"x_min":47,"x_max":917,"o":"m 842 114 l 842 56 q 694 -6 768 14 q 528 -26 619 -26 q 332 7 421 -26 q 180 103 243 40 q 82 255 117 165 q 47 458 47 344 q 81 657 47 568 q 178 808 114 746 q 334 905 242 871 q 544 939 426 939 q 682 923 613 939 q 813 875 751 907 l 818 658 l 711 658 l 671 839 q 571 860 621 860 q 464 836 514 860 q 376 763 414 813 q 315 638 338 714 q 293 458 293 563 q 315 278 293 354 q 374 151 336 201 q 461 77 411 101 q 568 53 511 53 q 621 58 599 53 l 621 118 q 620 239 621 181 q 618 358 619 297 l 493 375 l 493 450 l 917 450 l 917 375 l 844 365 q 842 241 843 303 q 842 114 842 179 m 653 -171 q 636 -237 653 -207 q 591 -292 619 -267 q 525 -337 563 -317 q 444 -371 488 -357 l 424 -315 q 485 -286 460 -300 q 532 -250 511 -272 q 477 -208 497 -233 q 457 -150 457 -183 q 485 -92 457 -114 q 553 -69 513 -69 q 594 -75 575 -69 q 639 -99 613 -81 q 653 -171 653 -139 z "},"Ǧ":{"ha":938,"x_min":47,"x_max":917,"o":"m 842 114 l 842 56 q 694 -6 768 14 q 528 -26 619 -26 q 332 7 421 -26 q 180 103 243 40 q 82 255 117 165 q 47 458 47 344 q 81 657 47 568 q 178 808 114 746 q 334 905 242 871 q 544 939 426 939 q 682 923 613 939 q 813 875 751 907 l 818 658 l 711 658 l 671 839 q 571 860 621 860 q 464 836 514 860 q 376 763 414 813 q 315 638 338 714 q 293 458 293 563 q 315 278 293 354 q 374 151 336 201 q 461 77 411 101 q 568 53 511 53 q 621 58 599 53 l 621 118 q 620 239 621 181 q 618 358 619 297 l 493 375 l 493 450 l 917 450 l 917 375 l 844 365 q 842 241 843 303 q 842 114 842 179 m 344 1229 l 536 1104 l 728 1229 l 775 1185 l 596 979 l 476 979 l 299 1185 l 344 1229 z "},"Ĝ":{"ha":938,"x_min":47,"x_max":917,"o":"m 842 114 l 842 56 q 694 -6 768 14 q 528 -26 619 -26 q 332 7 421 -26 q 180 103 243 40 q 82 255 117 165 q 47 458 47 344 q 81 657 47 568 q 178 808 114 746 q 334 905 242 871 q 544 939 426 939 q 682 923 613 939 q 813 875 751 907 l 818 658 l 711 658 l 671 839 q 571 860 621 860 q 464 836 514 860 q 376 763 414 813 q 315 638 338 714 q 293 458 293 563 q 315 278 293 354 q 374 151 336 201 q 461 77 411 101 q 568 53 511 53 q 621 58 599 53 l 621 118 q 620 239 621 181 q 618 358 619 297 l 493 375 l 493 450 l 917 450 l 917 375 l 844 365 q 842 241 843 303 q 842 114 842 179 m 563 1214 l 771 1004 l 729 954 l 515 1072 l 301 954 l 260 1004 l 468 1214 l 563 1214 z "},"Ḡ":{"ha":938,"x_min":47,"x_max":917,"o":"m 842 114 l 842 56 q 694 -6 768 14 q 528 -26 619 -26 q 332 7 421 -26 q 180 103 243 40 q 82 255 117 165 q 47 458 47 344 q 81 657 47 568 q 178 808 114 746 q 334 905 242 871 q 544 939 426 939 q 682 923 613 939 q 813 875 751 907 l 818 658 l 711 658 l 671 839 q 571 860 621 860 q 464 836 514 860 q 376 763 414 813 q 315 638 338 714 q 293 458 293 563 q 315 278 293 354 q 374 151 336 201 q 461 77 411 101 q 568 53 511 53 q 621 58 599 53 l 621 118 q 620 239 621 181 q 618 358 619 297 l 493 375 l 493 450 l 917 450 l 917 375 l 844 365 q 842 241 843 303 q 842 114 842 179 m 282 1013 l 282 1136 l 729 1136 l 729 1013 l 282 1013 z "},"Ħ":{"ha":1060,"x_min":29,"x_max":1029,"o":"m 383 492 l 383 472 l 675 472 l 675 492 l 675 614 l 383 614 l 383 492 m 150 431 l 150 482 l 150 614 l 29 614 l 29 694 l 150 694 q 149 760 149 728 q 147 826 149 793 l 46 838 l 46 913 l 483 913 l 483 838 l 386 828 q 385 761 385 794 q 383 694 385 728 l 675 694 q 674 761 674 728 q 672 828 674 794 l 575 838 l 575 913 l 1014 913 l 1014 838 l 911 826 q 910 761 910 794 q 908 694 910 728 l 1029 694 l 1029 614 l 908 614 l 908 482 l 908 431 q 908 258 908 344 q 911 86 908 172 l 1014 75 l 1014 0 l 575 0 l 575 75 l 672 85 q 675 235 675 160 q 675 390 675 311 l 383 390 q 383 235 383 311 q 386 85 383 160 l 483 75 l 483 0 l 46 0 l 46 75 l 147 86 q 150 257 150 171 q 150 431 150 343 z "},"Ḫ":{"ha":1063,"x_min":46,"x_max":1018,"o":"m 150 431 l 150 482 q 150 653 150 568 q 147 826 150 739 l 46 838 l 46 913 l 483 913 l 483 838 l 386 828 q 383 659 383 742 q 383 510 383 576 l 679 510 q 679 669 679 589 q 676 828 679 749 l 579 838 l 579 913 l 1018 913 l 1018 838 l 915 826 q 913 656 913 742 q 913 482 913 569 l 913 431 q 913 258 913 344 q 915 86 913 172 l 1018 75 l 1018 0 l 579 0 l 579 75 l 676 85 q 679 257 679 171 q 679 428 679 343 l 383 428 q 383 251 383 335 q 386 85 383 168 l 483 75 l 483 0 l 46 0 l 46 75 l 147 86 q 150 257 150 171 q 150 431 150 343 m 306 -115 l 374 -94 q 433 -181 396 -146 q 531 -217 469 -217 q 630 -181 592 -217 q 688 -94 668 -144 l 756 -115 q 740 -190 753 -151 q 700 -259 726 -228 q 632 -311 674 -290 q 531 -332 590 -332 q 429 -311 471 -332 q 361 -259 388 -290 q 322 -190 335 -228 q 306 -115 308 -151 z "},"Ĥ":{"ha":1063,"x_min":46,"x_max":1018,"o":"m 150 431 l 150 482 q 150 653 150 568 q 147 826 150 739 l 46 838 l 46 913 l 483 913 l 483 838 l 386 828 q 383 659 383 742 q 383 510 383 576 l 679 510 q 679 669 679 589 q 676 828 679 749 l 579 838 l 579 913 l 1018 913 l 1018 838 l 915 826 q 913 656 913 742 q 913 482 913 569 l 913 431 q 913 258 913 344 q 915 86 913 172 l 1018 75 l 1018 0 l 579 0 l 579 75 l 676 85 q 679 257 679 171 q 679 428 679 343 l 383 428 q 383 251 383 335 q 386 85 383 168 l 483 75 l 483 0 l 46 0 l 46 75 l 147 86 q 150 257 150 171 q 150 431 150 343 m 579 1214 l 788 1004 l 746 954 l 532 1072 l 318 954 l 276 1004 l 485 1214 l 579 1214 z "},"Ḥ":{"ha":1063,"x_min":46,"x_max":1018,"o":"m 150 431 l 150 482 q 150 653 150 568 q 147 826 150 739 l 46 838 l 46 913 l 483 913 l 483 838 l 386 828 q 383 659 383 742 q 383 510 383 576 l 679 510 q 679 669 679 589 q 676 828 679 749 l 579 838 l 579 913 l 1018 913 l 1018 838 l 915 826 q 913 656 913 742 q 913 482 913 569 l 913 431 q 913 258 913 344 q 915 86 913 172 l 1018 75 l 1018 0 l 579 0 l 579 75 l 676 85 q 679 257 679 171 q 679 428 679 343 l 383 428 q 383 251 383 335 q 386 85 383 168 l 483 75 l 483 0 l 46 0 l 46 75 l 147 86 q 150 257 150 171 q 150 431 150 343 m 531 -312 q 447 -282 482 -312 q 413 -203 413 -251 q 447 -123 413 -154 q 531 -92 482 -92 q 614 -123 579 -92 q 649 -203 649 -154 q 614 -282 649 -251 q 531 -312 579 -312 z "},"Ì":{"ha":539,"x_min":40,"x_max":493,"o":"m 153 431 l 153 482 q 153 654 153 568 q 150 826 153 740 l 46 838 l 46 913 l 493 913 l 493 838 l 389 826 q 386 656 386 742 q 386 482 386 569 l 386 432 q 386 258 386 344 q 389 86 386 172 l 493 75 l 493 0 l 46 0 l 46 75 l 150 86 q 153 257 153 171 q 153 431 153 343 m 374 1019 l 335 965 q 228 1012 282 989 q 121 1058 175 1035 q 56 1107 71 1082 q 40 1151 40 1132 q 62 1201 40 1179 q 117 1222 83 1222 q 163 1210 140 1222 q 219 1167 186 1199 q 295 1095 256 1132 q 374 1019 335 1058 z "},"Í":{"ha":539,"x_min":46,"x_max":506,"o":"m 153 431 l 153 482 q 153 654 153 568 q 150 826 153 740 l 46 838 l 46 913 l 493 913 l 493 838 l 389 826 q 386 656 386 742 q 386 482 386 569 l 386 432 q 386 258 386 344 q 389 86 386 172 l 493 75 l 493 0 l 46 0 l 46 75 l 150 86 q 153 257 153 171 q 153 431 153 343 m 172 1019 q 250 1094 211 1057 q 326 1167 289 1131 q 383 1210 360 1199 q 429 1222 406 1222 q 484 1201 463 1222 q 506 1151 506 1179 q 490 1108 506 1132 q 426 1061 475 1083 q 318 1013 372 1036 q 211 965 264 989 l 172 1019 z "},"Î":{"ha":539,"x_min":14,"x_max":525,"o":"m 153 431 l 153 482 q 153 654 153 568 q 150 826 153 740 l 46 838 l 46 913 l 493 913 l 493 838 l 389 826 q 386 656 386 742 q 386 482 386 569 l 386 432 q 386 258 386 344 q 389 86 386 172 l 493 75 l 493 0 l 46 0 l 46 75 l 150 86 q 153 257 153 171 q 153 431 153 343 m 317 1214 l 525 1004 l 483 954 l 269 1072 l 56 954 l 14 1004 l 222 1214 l 317 1214 z "},"Ï":{"ha":539,"x_min":-6,"x_max":544,"o":"m 153 431 l 153 482 q 153 654 153 568 q 150 826 153 740 l 46 838 l 46 913 l 493 913 l 493 838 l 389 826 q 386 656 386 742 q 386 482 386 569 l 386 432 q 386 258 386 344 q 389 86 386 172 l 493 75 l 493 0 l 46 0 l 46 75 l 150 86 q 153 257 153 171 q 153 431 153 343 m 96 990 q 25 1016 56 990 q -6 1086 -6 1042 q 25 1156 -6 1131 q 96 1182 56 1182 q 168 1156 138 1182 q 199 1086 199 1131 q 168 1016 199 1042 q 96 990 138 990 m 442 990 q 371 1016 401 990 q 340 1086 340 1042 q 371 1156 340 1131 q 442 1182 401 1182 q 514 1156 483 1182 q 544 1086 544 1131 q 514 1016 544 1042 q 442 990 483 990 z "},"Ī":{"ha":539,"x_min":46,"x_max":493,"o":"m 153 431 l 153 482 q 153 654 153 568 q 150 826 153 740 l 46 838 l 46 913 l 493 913 l 493 838 l 389 826 q 386 656 386 742 q 386 482 386 569 l 386 432 q 386 258 386 344 q 389 86 386 172 l 493 75 l 493 0 l 46 0 l 46 75 l 150 86 q 153 257 153 171 q 153 431 153 343 m 46 1013 l 46 1136 l 493 1136 l 493 1013 l 46 1013 z "},"İ":{"ha":539,"x_min":46,"x_max":493,"o":"m 153 431 l 153 482 q 153 654 153 568 q 150 826 153 740 l 46 838 l 46 913 l 493 913 l 493 838 l 389 826 q 386 656 386 742 q 386 482 386 569 l 386 432 q 386 258 386 344 q 389 86 386 172 l 493 75 l 493 0 l 46 0 l 46 75 l 150 86 q 153 257 153 171 q 153 431 153 343 m 269 985 q 186 1016 221 985 q 151 1096 151 1047 q 186 1175 151 1144 q 269 1206 221 1206 q 353 1175 318 1206 q 388 1096 388 1144 q 353 1016 388 1047 q 269 985 318 985 z "},"Į":{"ha":539,"x_min":46,"x_max":517,"o":"m 153 431 l 153 482 q 153 654 153 568 q 150 826 153 740 l 46 838 l 46 913 l 493 913 l 493 838 l 389 826 q 386 656 386 742 q 386 482 386 569 l 386 432 q 386 258 386 344 q 389 86 386 172 l 493 75 l 493 0 l 46 0 l 46 75 l 150 86 q 153 257 153 171 q 153 431 153 343 m 179 -178 q 224 -65 179 -111 q 343 13 268 -18 l 400 13 q 340 -41 358 -11 q 322 -107 322 -71 q 349 -174 322 -150 q 421 -199 376 -199 q 462 -195 444 -199 q 496 -185 479 -192 l 517 -244 q 435 -295 485 -278 q 333 -312 386 -312 q 219 -274 258 -312 q 179 -178 179 -236 z "},"Ǐ":{"ha":539,"x_min":32,"x_max":508,"o":"m 153 431 l 153 482 q 153 654 153 568 q 150 826 153 740 l 46 838 l 46 913 l 493 913 l 493 838 l 389 826 q 386 656 386 742 q 386 482 386 569 l 386 432 q 386 258 386 344 q 389 86 386 172 l 493 75 l 493 0 l 46 0 l 46 75 l 150 86 q 153 257 153 171 q 153 431 153 343 m 78 1229 l 269 1104 l 461 1229 l 508 1185 l 329 979 l 210 979 l 32 1185 l 78 1229 z "},"Ị":{"ha":539,"x_min":46,"x_max":493,"o":"m 153 431 l 153 482 q 153 654 153 568 q 150 826 153 740 l 46 838 l 46 913 l 493 913 l 493 838 l 389 826 q 386 656 386 742 q 386 482 386 569 l 386 432 q 386 258 386 344 q 389 86 386 172 l 493 75 l 493 0 l 46 0 l 46 75 l 150 86 q 153 257 153 171 q 153 431 153 343 m 269 -312 q 186 -282 221 -312 q 151 -203 151 -251 q 186 -123 151 -154 q 269 -92 221 -92 q 353 -123 318 -92 q 388 -203 388 -154 q 353 -282 388 -251 q 269 -312 318 -312 z "},"Ỉ":{"ha":539,"x_min":46,"x_max":493,"o":"m 153 431 l 153 482 q 153 654 153 568 q 150 826 153 740 l 46 838 l 46 913 l 493 913 l 493 838 l 389 826 q 386 656 386 742 q 386 482 386 569 l 386 432 q 386 258 386 344 q 389 86 386 172 l 493 75 l 493 0 l 46 0 l 46 75 l 150 86 q 153 257 153 171 q 153 431 153 343 m 225 983 l 213 1042 q 273 1061 260 1051 q 286 1082 286 1071 q 261 1107 286 1097 q 172 1122 236 1117 l 185 1261 q 393 1111 393 1244 q 349 1025 393 1057 q 225 983 306 993 z "},"Ĩ":{"ha":539,"x_min":18,"x_max":522,"o":"m 153 431 l 153 482 q 153 654 153 568 q 150 826 153 740 l 46 838 l 46 913 l 493 913 l 493 838 l 389 826 q 386 656 386 742 q 386 482 386 569 l 386 432 q 386 258 386 344 q 389 86 386 172 l 493 75 l 493 0 l 46 0 l 46 75 l 150 86 q 153 257 153 171 q 153 431 153 343 m 18 1000 q 72 1142 29 1092 q 176 1193 114 1193 q 234 1182 210 1193 q 282 1156 258 1171 q 326 1126 303 1140 q 375 1111 349 1111 q 428 1133 407 1111 q 464 1194 450 1156 l 522 1171 q 469 1028 511 1079 q 367 976 426 976 q 307 988 335 976 q 257 1014 279 999 q 214 1044 236 1029 q 164 1058 192 1058 q 111 1036 132 1058 q 76 976 90 1014 l 18 1000 z "},"Ĵ":{"ha":549,"x_min":-118,"x_max":535,"o":"m 49 838 l 49 913 l 511 913 l 511 838 l 404 826 q 403 662 403 744 q 403 494 403 579 l 403 350 q 388 110 403 207 q 340 -53 374 14 q 222 -192 300 -144 q 49 -240 144 -240 q -52 -219 -10 -240 q -118 -153 -94 -197 q -85 -77 -117 -104 q -8 -50 -54 -50 q 57 -69 28 -50 q 118 -126 86 -87 l 147 -161 q 171 -78 164 -129 q 178 51 178 -26 q 177 168 178 100 q 174 330 176 236 q 170 546 172 424 q 167 825 168 668 l 49 838 m 326 1214 l 535 1004 l 493 954 l 279 1072 l 65 954 l 24 1004 l 232 1214 l 326 1214 z "},"Ķ":{"ha":967,"x_min":46,"x_max":960,"o":"m 153 431 l 153 482 q 153 654 153 568 q 150 826 153 740 l 46 838 l 46 913 l 483 913 l 483 838 l 378 826 q 375 656 375 742 q 375 482 375 569 l 375 436 l 686 821 l 594 838 l 594 913 l 917 913 l 917 838 l 785 821 l 601 601 l 875 85 l 960 75 l 960 0 l 558 0 l 558 75 l 625 82 l 454 428 l 375 333 q 375 210 375 272 q 378 86 375 149 l 468 75 l 468 0 l 46 0 l 46 75 l 150 86 q 153 257 153 171 q 153 431 153 343 m 608 -171 q 592 -237 608 -207 q 547 -292 575 -267 q 481 -337 518 -317 q 400 -371 443 -357 l 379 -315 q 441 -286 415 -300 q 488 -250 467 -272 q 433 -208 453 -233 q 413 -150 413 -183 q 440 -92 413 -114 q 508 -69 468 -69 q 549 -75 531 -69 q 594 -99 568 -81 q 608 -171 608 -139 z "},"Ĺ":{"ha":806,"x_min":46,"x_max":779,"o":"m 153 482 q 153 655 153 569 q 150 826 153 740 l 46 838 l 46 913 l 504 913 l 504 838 l 389 826 q 386 655 386 740 q 386 482 386 569 l 386 408 q 386 250 386 333 q 389 79 386 167 l 628 79 l 667 272 l 779 272 l 765 0 l 46 0 l 46 75 l 150 86 q 153 251 153 171 q 153 401 153 332 l 153 482 m 260 1019 q 338 1094 299 1057 q 414 1167 376 1131 q 470 1210 447 1199 q 517 1222 493 1222 q 572 1201 550 1222 q 593 1151 593 1179 q 578 1108 593 1132 q 514 1061 563 1083 q 406 1013 460 1036 q 299 965 351 989 l 260 1019 z "},"Ľ":{"ha":806,"x_min":46,"x_max":779,"o":"m 153 482 q 153 655 153 569 q 150 826 153 740 l 46 838 l 46 913 l 504 913 l 504 838 l 389 826 q 386 655 386 740 q 386 482 386 569 l 386 408 q 386 250 386 333 q 389 79 386 167 l 628 79 l 667 272 l 779 272 l 765 0 l 46 0 l 46 75 l 150 86 q 153 251 153 171 q 153 401 153 332 l 153 482 m 700 1000 q 753 981 740 1000 q 767 933 767 963 q 755 865 767 904 q 724 782 743 825 l 682 696 l 615 696 l 622 976 q 700 1000 661 1000 z "},"Ļ":{"ha":806,"x_min":46,"x_max":779,"o":"m 153 482 q 153 655 153 569 q 150 826 153 740 l 46 838 l 46 913 l 504 913 l 504 838 l 389 826 q 386 655 386 740 q 386 482 386 569 l 386 408 q 386 250 386 333 q 389 79 386 167 l 628 79 l 667 272 l 779 272 l 765 0 l 46 0 l 46 75 l 150 86 q 153 251 153 171 q 153 401 153 332 l 153 482 m 519 -171 q 503 -237 519 -207 q 458 -292 486 -267 q 392 -337 429 -317 q 311 -371 354 -357 l 290 -315 q 352 -286 326 -300 q 399 -250 378 -272 q 344 -208 364 -233 q 324 -150 324 -183 q 351 -92 324 -114 q 419 -69 379 -69 q 460 -75 442 -69 q 506 -99 479 -81 q 519 -171 519 -139 z "},"Ŀ":{"ha":806,"x_min":46,"x_max":789,"o":"m 153 482 q 153 655 153 569 q 150 826 153 740 l 46 838 l 46 913 l 504 913 l 504 838 l 389 826 q 386 655 386 740 q 386 482 386 569 l 386 408 q 386 250 386 333 q 389 79 386 167 l 628 79 l 667 272 l 779 272 l 765 0 l 46 0 l 46 75 l 150 86 q 153 251 153 171 q 153 401 153 332 l 153 482 m 664 425 q 615 435 638 425 q 575 461 592 444 q 549 501 558 478 q 539 549 539 524 q 549 597 539 574 q 575 637 558 619 q 615 665 592 654 q 664 675 638 675 q 713 665 690 675 q 753 637 736 654 q 779 597 769 619 q 789 549 789 574 q 779 501 789 524 q 753 461 769 478 q 713 435 736 444 q 664 425 690 425 z "},"Ḷ":{"ha":806,"x_min":46,"x_max":779,"o":"m 153 482 q 153 655 153 569 q 150 826 153 740 l 46 838 l 46 913 l 504 913 l 504 838 l 389 826 q 386 655 386 740 q 386 482 386 569 l 386 408 q 386 250 386 333 q 389 79 386 167 l 628 79 l 667 272 l 779 272 l 765 0 l 46 0 l 46 75 l 150 86 q 153 251 153 171 q 153 401 153 332 l 153 482 m 446 -312 q 363 -282 397 -312 q 328 -203 328 -251 q 363 -123 328 -154 q 446 -92 397 -92 q 529 -123 494 -92 q 564 -203 564 -154 q 529 -282 564 -251 q 446 -312 494 -312 z "},"Ḹ":{"ha":806,"x_min":46,"x_max":779,"o":"m 153 482 q 153 655 153 569 q 150 826 153 740 l 46 838 l 46 913 l 504 913 l 504 838 l 389 826 q 386 655 386 740 q 386 482 386 569 l 386 408 q 386 250 386 333 q 389 79 386 167 l 628 79 l 667 272 l 779 272 l 765 0 l 46 0 l 46 75 l 150 86 q 153 251 153 171 q 153 401 153 332 l 153 482 m 446 -312 q 363 -282 397 -312 q 328 -203 328 -251 q 363 -123 328 -154 q 446 -92 397 -92 q 529 -123 494 -92 q 564 -203 564 -154 q 529 -282 564 -251 q 446 -312 494 -312 m 50 1013 l 50 1136 l 497 1136 l 497 1013 l 50 1013 z "},"Ḻ":{"ha":806,"x_min":46,"x_max":779,"o":"m 153 482 q 153 655 153 569 q 150 826 153 740 l 46 838 l 46 913 l 504 913 l 504 838 l 389 826 q 386 655 386 740 q 386 482 386 569 l 386 408 q 386 250 386 333 q 389 79 386 167 l 628 79 l 667 272 l 779 272 l 765 0 l 46 0 l 46 75 l 150 86 q 153 251 153 171 q 153 401 153 332 l 153 482 m 221 -268 l 221 -144 l 663 -144 l 663 -268 l 221 -268 z "},"Ł":{"ha":806,"x_min":43,"x_max":779,"o":"m 558 647 l 558 532 l 386 440 l 386 408 q 386 250 386 333 q 389 79 386 167 l 628 79 l 667 272 l 779 272 l 765 0 l 46 0 l 46 75 l 150 86 q 153 209 153 149 q 153 326 153 269 l 43 268 l 43 383 l 153 442 l 153 482 q 153 655 153 569 q 150 826 153 740 l 46 838 l 46 913 l 504 913 l 504 838 l 389 826 q 386 692 386 758 q 386 557 386 625 l 558 647 z "},"Ḿ":{"ha":1244,"x_min":25,"x_max":1199,"o":"m 25 0 l 25 75 l 160 92 l 160 824 l 38 838 l 38 913 l 404 913 l 631 301 l 843 913 l 1194 913 l 1194 838 l 1096 826 q 1093 655 1093 740 q 1093 482 1093 569 l 1093 431 q 1093 258 1093 343 q 1096 86 1093 172 l 1199 75 l 1199 0 l 756 0 l 756 75 l 857 88 q 859 252 860 172 q 860 401 858 332 l 863 708 l 615 0 l 508 0 l 246 706 q 249 558 247 631 q 250 432 250 485 l 250 93 l 364 75 l 364 0 l 25 0 m 535 1006 q 613 1080 574 1043 q 689 1153 651 1117 q 745 1197 722 1185 q 792 1208 768 1208 q 847 1187 825 1208 q 868 1138 868 1165 q 853 1094 868 1118 q 789 1047 838 1069 q 681 999 735 1022 q 574 951 626 975 l 535 1006 z "},"Ṃ":{"ha":1244,"x_min":25,"x_max":1199,"o":"m 25 0 l 25 75 l 160 92 l 160 824 l 38 838 l 38 913 l 404 913 l 631 301 l 843 913 l 1194 913 l 1194 838 l 1096 826 q 1093 655 1093 740 q 1093 482 1093 569 l 1093 431 q 1093 258 1093 343 q 1096 86 1093 172 l 1199 75 l 1199 0 l 756 0 l 756 75 l 857 88 q 859 252 860 172 q 860 401 858 332 l 863 708 l 615 0 l 508 0 l 246 706 q 249 558 247 631 q 250 432 250 485 l 250 93 l 364 75 l 364 0 l 25 0 m 564 -312 q 481 -282 515 -312 q 446 -203 446 -251 q 481 -123 446 -154 q 564 -92 515 -92 q 647 -123 613 -92 q 682 -203 682 -154 q 647 -282 682 -251 q 564 -312 613 -312 z "},"Ń":{"ha":1011,"x_min":39,"x_max":971,"o":"m 39 0 l 39 75 l 157 92 l 157 803 l 138 829 l 42 838 l 42 913 l 356 913 l 764 351 l 764 819 l 606 838 l 606 913 l 971 913 l 971 838 l 853 819 l 853 -3 l 736 -3 l 247 676 l 247 93 l 406 75 l 406 0 l 39 0 m 404 1014 q 482 1088 443 1051 q 558 1161 521 1125 q 615 1205 592 1193 q 661 1217 638 1217 q 716 1195 694 1217 q 738 1146 738 1174 q 722 1102 738 1126 q 658 1056 707 1078 q 550 1007 604 1031 q 443 960 496 983 l 404 1014 z "},"Ň":{"ha":1011,"x_min":39,"x_max":971,"o":"m 39 0 l 39 75 l 157 92 l 157 803 l 138 829 l 42 838 l 42 913 l 356 913 l 764 351 l 764 819 l 606 838 l 606 913 l 971 913 l 971 838 l 853 819 l 853 -3 l 736 -3 l 247 676 l 247 93 l 406 75 l 406 0 l 39 0 m 315 1225 l 507 1100 l 699 1225 l 746 1181 l 567 975 l 447 975 l 269 1181 l 315 1225 z "},"Ǹ":{"ha":1011,"x_min":39,"x_max":971,"o":"m 39 0 l 39 75 l 157 92 l 157 803 l 138 829 l 42 838 l 42 913 l 356 913 l 764 351 l 764 819 l 606 838 l 606 913 l 971 913 l 971 838 l 853 819 l 853 -3 l 736 -3 l 247 676 l 247 93 l 406 75 l 406 0 l 39 0 m 599 1019 l 560 965 q 453 1012 507 989 q 346 1058 400 1035 q 281 1107 296 1082 q 265 1151 265 1132 q 287 1201 265 1179 q 342 1222 308 1222 q 388 1210 365 1222 q 444 1167 411 1199 q 520 1095 481 1132 q 599 1019 560 1058 z "},"Ñ":{"ha":1011,"x_min":39,"x_max":971,"o":"m 39 0 l 39 75 l 157 92 l 157 803 l 138 829 l 42 838 l 42 913 l 356 913 l 764 351 l 764 819 l 606 838 l 606 913 l 971 913 l 971 838 l 853 819 l 853 -3 l 736 -3 l 247 676 l 247 93 l 406 75 l 406 0 l 39 0 m 257 996 q 310 1138 268 1088 q 415 1189 353 1189 q 473 1178 449 1189 q 521 1151 497 1167 q 565 1122 542 1136 q 614 1107 588 1107 q 667 1129 646 1107 q 703 1190 689 1151 l 761 1167 q 708 1024 750 1075 q 606 972 665 972 q 546 983 574 972 q 496 1010 518 994 q 453 1040 475 1025 q 403 1054 431 1054 q 350 1032 371 1054 q 315 972 329 1010 l 257 996 z "},"Ņ":{"ha":1011,"x_min":39,"x_max":971,"o":"m 39 0 l 39 75 l 157 92 l 157 803 l 138 829 l 42 838 l 42 913 l 356 913 l 764 351 l 764 819 l 606 838 l 606 913 l 971 913 l 971 838 l 853 819 l 853 -3 l 736 -3 l 247 676 l 247 93 l 406 75 l 406 0 l 39 0 m 629 -167 q 613 -233 629 -203 q 567 -287 596 -262 q 501 -333 539 -312 q 421 -367 464 -353 l 400 -311 q 462 -282 436 -296 q 508 -246 488 -268 q 453 -204 474 -229 q 433 -146 433 -179 q 461 -87 433 -110 q 529 -65 489 -65 q 570 -71 551 -65 q 615 -94 589 -76 q 629 -167 629 -135 z "},"Ṅ":{"ha":1011,"x_min":39,"x_max":971,"o":"m 39 0 l 39 75 l 157 92 l 157 803 l 138 829 l 42 838 l 42 913 l 356 913 l 764 351 l 764 819 l 606 838 l 606 913 l 971 913 l 971 838 l 853 819 l 853 -3 l 736 -3 l 247 676 l 247 93 l 406 75 l 406 0 l 39 0 m 504 976 q 421 1008 456 976 q 386 1088 386 1039 q 421 1167 386 1136 q 504 1197 456 1197 q 588 1167 553 1197 q 622 1088 622 1136 q 588 1008 622 1039 q 504 976 553 976 z "},"Ṇ":{"ha":1011,"x_min":39,"x_max":971,"o":"m 39 0 l 39 75 l 157 92 l 157 803 l 138 829 l 42 838 l 42 913 l 356 913 l 764 351 l 764 819 l 606 838 l 606 913 l 971 913 l 971 838 l 853 819 l 853 -3 l 736 -3 l 247 676 l 247 93 l 406 75 l 406 0 l 39 0 m 525 -312 q 442 -282 476 -312 q 407 -203 407 -251 q 442 -123 407 -154 q 525 -92 476 -92 q 608 -123 574 -92 q 643 -203 643 -154 q 608 -282 643 -251 q 525 -312 574 -312 z "},"Ṉ":{"ha":1011,"x_min":39,"x_max":971,"o":"m 39 0 l 39 75 l 157 92 l 157 803 l 138 829 l 42 838 l 42 913 l 356 913 l 764 351 l 764 819 l 606 838 l 606 913 l 971 913 l 971 838 l 853 819 l 853 -3 l 736 -3 l 247 676 l 247 93 l 406 75 l 406 0 l 39 0 m 285 -268 l 285 -144 l 726 -144 l 726 -268 l 285 -268 z "},"Ò":{"ha":975,"x_min":47,"x_max":928,"o":"m 293 457 q 304 297 293 371 q 338 169 315 224 q 398 85 361 115 q 488 54 435 54 q 577 85 540 54 q 638 169 614 115 q 672 297 661 224 q 682 457 682 371 q 672 617 682 543 q 638 744 661 690 q 577 828 614 797 q 488 858 540 858 q 398 828 435 858 q 338 744 361 797 q 304 617 315 690 q 293 457 293 543 m 488 939 q 652 909 572 939 q 793 819 732 879 q 891 669 854 760 q 928 457 928 578 q 891 246 928 336 q 793 95 854 156 q 653 4 732 35 q 488 -26 574 -26 q 322 3 401 -26 q 182 94 243 33 q 84 244 121 154 q 47 457 47 335 q 84 667 47 576 q 182 817 121 757 q 322 908 243 878 q 488 939 401 939 m 592 1024 l 553 969 q 447 1016 500 993 q 339 1063 393 1039 q 274 1111 289 1086 q 258 1156 258 1136 q 280 1205 258 1183 q 335 1226 301 1226 q 381 1215 358 1226 q 438 1171 404 1203 q 513 1099 474 1136 q 592 1024 553 1063 z "},"Ó":{"ha":975,"x_min":47,"x_max":928,"o":"m 293 457 q 304 297 293 371 q 338 169 315 224 q 398 85 361 115 q 488 54 435 54 q 577 85 540 54 q 638 169 614 115 q 672 297 661 224 q 682 457 682 371 q 672 617 682 543 q 638 744 661 690 q 577 828 614 797 q 488 858 540 858 q 398 828 435 858 q 338 744 361 797 q 304 617 315 690 q 293 457 293 543 m 488 939 q 652 909 572 939 q 793 819 732 879 q 891 669 854 760 q 928 457 928 578 q 891 246 928 336 q 793 95 854 156 q 653 4 732 35 q 488 -26 574 -26 q 322 3 401 -26 q 182 94 243 33 q 84 244 121 154 q 47 457 47 335 q 84 667 47 576 q 182 817 121 757 q 322 908 243 878 q 488 939 401 939 m 390 1024 q 468 1098 429 1061 q 544 1171 507 1135 q 601 1215 578 1203 q 647 1226 624 1226 q 702 1205 681 1226 q 724 1156 724 1183 q 708 1112 724 1136 q 644 1065 693 1088 q 536 1017 590 1040 q 429 969 482 993 l 390 1024 z "},"Ŏ":{"ha":975,"x_min":47,"x_max":928,"o":"m 293 457 q 304 297 293 371 q 338 169 315 224 q 398 85 361 115 q 488 54 435 54 q 577 85 540 54 q 638 169 614 115 q 672 297 661 224 q 682 457 682 371 q 672 617 682 543 q 638 744 661 690 q 577 828 614 797 q 488 858 540 858 q 398 828 435 858 q 338 744 361 797 q 304 617 315 690 q 293 457 293 543 m 488 939 q 652 909 572 939 q 793 819 732 879 q 891 669 854 760 q 928 457 928 578 q 891 246 928 336 q 793 95 854 156 q 653 4 732 35 q 488 -26 574 -26 q 322 3 401 -26 q 182 94 243 33 q 84 244 121 154 q 47 457 47 335 q 84 667 47 576 q 182 817 121 757 q 322 908 243 878 q 488 939 401 939 m 258 1183 l 322 1208 q 385 1135 346 1161 q 488 1108 425 1108 q 590 1135 550 1108 q 653 1208 629 1161 l 717 1183 q 693 1112 710 1146 q 648 1052 676 1078 q 580 1011 619 1026 q 488 996 540 996 q 395 1011 435 996 q 327 1052 356 1026 q 282 1112 299 1078 q 258 1183 265 1146 z "},"Ô":{"ha":975,"x_min":47,"x_max":928,"o":"m 293 457 q 304 297 293 371 q 338 169 315 224 q 398 85 361 115 q 488 54 435 54 q 577 85 540 54 q 638 169 614 115 q 672 297 661 224 q 682 457 682 371 q 672 617 682 543 q 638 744 661 690 q 577 828 614 797 q 488 858 540 858 q 398 828 435 858 q 338 744 361 797 q 304 617 315 690 q 293 457 293 543 m 488 939 q 652 909 572 939 q 793 819 732 879 q 891 669 854 760 q 928 457 928 578 q 891 246 928 336 q 793 95 854 156 q 653 4 732 35 q 488 -26 574 -26 q 322 3 401 -26 q 182 94 243 33 q 84 244 121 154 q 47 457 47 335 q 84 667 47 576 q 182 817 121 757 q 322 908 243 878 q 488 939 401 939 m 535 1214 l 743 1004 l 701 954 l 488 1072 l 274 954 l 232 1004 l 440 1214 l 535 1214 z "},"Õ":{"ha":975,"x_min":47,"x_max":928,"o":"m 293 457 q 304 297 293 371 q 338 169 315 224 q 398 85 361 115 q 488 54 435 54 q 577 85 540 54 q 638 169 614 115 q 672 297 661 224 q 682 457 682 371 q 672 617 682 543 q 638 744 661 690 q 577 828 614 797 q 488 858 540 858 q 398 828 435 858 q 338 744 361 797 q 304 617 315 690 q 293 457 293 543 m 488 939 q 652 909 572 939 q 793 819 732 879 q 891 669 854 760 q 928 457 928 578 q 891 246 928 336 q 793 95 854 156 q 653 4 732 35 q 488 -26 574 -26 q 322 3 401 -26 q 182 94 243 33 q 84 244 121 154 q 47 457 47 335 q 84 667 47 576 q 182 817 121 757 q 322 908 243 878 q 488 939 401 939 m 236 1010 q 290 1152 247 1101 q 394 1203 332 1203 q 452 1192 428 1203 q 500 1165 476 1181 q 544 1135 521 1150 q 593 1121 567 1121 q 647 1143 625 1121 q 682 1204 668 1165 l 740 1181 q 687 1038 729 1089 q 585 986 644 986 q 525 997 553 986 q 475 1024 497 1008 q 432 1053 454 1039 q 382 1068 410 1068 q 329 1046 350 1068 q 294 986 308 1024 l 236 1010 z "},"Ö":{"ha":975,"x_min":47,"x_max":928,"o":"m 293 457 q 304 297 293 371 q 338 169 315 224 q 398 85 361 115 q 488 54 435 54 q 577 85 540 54 q 638 169 614 115 q 672 297 661 224 q 682 457 682 371 q 672 617 682 543 q 638 744 661 690 q 577 828 614 797 q 488 858 540 858 q 398 828 435 858 q 338 744 361 797 q 304 617 315 690 q 293 457 293 543 m 488 939 q 652 909 572 939 q 793 819 732 879 q 891 669 854 760 q 928 457 928 578 q 891 246 928 336 q 793 95 854 156 q 653 4 732 35 q 488 -26 574 -26 q 322 3 401 -26 q 182 94 243 33 q 84 244 121 154 q 47 457 47 335 q 84 667 47 576 q 182 817 121 757 q 322 908 243 878 q 488 939 401 939 m 314 990 q 243 1016 274 990 q 213 1086 213 1042 q 243 1156 213 1131 q 314 1182 274 1182 q 386 1156 356 1182 q 417 1086 417 1131 q 386 1016 417 1042 q 314 990 356 990 m 660 990 q 589 1016 619 990 q 558 1086 558 1042 q 589 1156 558 1131 q 660 1182 619 1182 q 732 1156 701 1182 q 763 1086 763 1131 q 732 1016 763 1042 q 660 990 701 990 z "},"Ō":{"ha":975,"x_min":47,"x_max":928,"o":"m 293 457 q 304 297 293 371 q 338 169 315 224 q 398 85 361 115 q 488 54 435 54 q 577 85 540 54 q 638 169 614 115 q 672 297 661 224 q 682 457 682 371 q 672 617 682 543 q 638 744 661 690 q 577 828 614 797 q 488 858 540 858 q 398 828 435 858 q 338 744 361 797 q 304 617 315 690 q 293 457 293 543 m 488 939 q 652 909 572 939 q 793 819 732 879 q 891 669 854 760 q 928 457 928 578 q 891 246 928 336 q 793 95 854 156 q 653 4 732 35 q 488 -26 574 -26 q 322 3 401 -26 q 182 94 243 33 q 84 244 121 154 q 47 457 47 335 q 84 667 47 576 q 182 817 121 757 q 322 908 243 878 q 488 939 401 939 m 264 1013 l 264 1136 l 711 1136 l 711 1013 l 264 1013 z "},"Ő":{"ha":975,"x_min":47,"x_max":928,"o":"m 293 457 q 304 297 293 371 q 338 169 315 224 q 398 85 361 115 q 488 54 435 54 q 577 85 540 54 q 638 169 614 115 q 672 297 661 224 q 682 457 682 371 q 672 617 682 543 q 638 744 661 690 q 577 828 614 797 q 488 858 540 858 q 398 828 435 858 q 338 744 361 797 q 304 617 315 690 q 293 457 293 543 m 488 939 q 652 909 572 939 q 793 819 732 879 q 891 669 854 760 q 928 457 928 578 q 891 246 928 336 q 793 95 854 156 q 653 4 732 35 q 488 -26 574 -26 q 322 3 401 -26 q 182 94 243 33 q 84 244 121 154 q 47 457 47 335 q 84 667 47 576 q 182 817 121 757 q 322 908 243 878 q 488 939 401 939 m 321 997 l 397 1181 q 479 1246 426 1246 q 524 1231 504 1246 q 544 1190 544 1217 q 537 1158 544 1172 q 514 1124 529 1143 l 376 965 l 321 997 m 542 997 l 619 1181 q 700 1246 646 1246 q 745 1231 725 1246 q 765 1190 765 1217 q 758 1158 765 1172 q 735 1124 751 1143 l 597 965 l 542 997 z "},"Ǒ":{"ha":975,"x_min":47,"x_max":928,"o":"m 293 457 q 304 297 293 371 q 338 169 315 224 q 398 85 361 115 q 488 54 435 54 q 577 85 540 54 q 638 169 614 115 q 672 297 661 224 q 682 457 682 371 q 672 617 682 543 q 638 744 661 690 q 577 828 614 797 q 488 858 540 858 q 398 828 435 858 q 338 744 361 797 q 304 617 315 690 q 293 457 293 543 m 488 939 q 652 909 572 939 q 793 819 732 879 q 891 669 854 760 q 928 457 928 578 q 891 246 928 336 q 793 95 854 156 q 653 4 732 35 q 488 -26 574 -26 q 322 3 401 -26 q 182 94 243 33 q 84 244 121 154 q 47 457 47 335 q 84 667 47 576 q 182 817 121 757 q 322 908 243 878 q 488 939 401 939 m 296 1229 l 488 1104 l 679 1229 l 726 1185 l 547 979 l 428 979 l 250 1185 l 296 1229 z "},"Ố":{"ha":975,"x_min":47,"x_max":928,"o":"m 293 457 q 304 297 293 371 q 338 169 315 224 q 398 85 361 115 q 488 54 435 54 q 577 85 540 54 q 638 169 614 115 q 672 297 661 224 q 682 457 682 371 q 672 617 682 543 q 638 744 661 690 q 577 828 614 797 q 488 858 540 858 q 398 828 435 858 q 338 744 361 797 q 304 617 315 690 q 293 457 293 543 m 488 939 q 652 909 572 939 q 793 819 732 879 q 891 669 854 760 q 928 457 928 578 q 891 246 928 336 q 793 95 854 156 q 653 4 732 35 q 488 -26 574 -26 q 322 3 401 -26 q 182 94 243 33 q 84 244 121 154 q 47 457 47 335 q 84 667 47 576 q 182 817 121 757 q 322 908 243 878 q 488 939 401 939 m 278 954 l 236 1004 l 444 1214 l 539 1214 l 747 1004 l 706 954 l 492 1072 l 278 954 m 719 1094 l 676 1147 l 715 1210 q 771 1280 743 1263 q 822 1297 799 1297 q 870 1278 850 1297 q 890 1226 890 1258 q 867 1173 890 1199 q 799 1128 844 1147 l 719 1094 z "},"Ộ":{"ha":975,"x_min":47,"x_max":928,"o":"m 293 457 q 304 297 293 371 q 338 169 315 224 q 398 85 361 115 q 488 54 435 54 q 577 85 540 54 q 638 169 614 115 q 672 297 661 224 q 682 457 682 371 q 672 617 682 543 q 638 744 661 690 q 577 828 614 797 q 488 858 540 858 q 398 828 435 858 q 338 744 361 797 q 304 617 315 690 q 293 457 293 543 m 488 939 q 652 909 572 939 q 793 819 732 879 q 891 669 854 760 q 928 457 928 578 q 891 246 928 336 q 793 95 854 156 q 653 4 732 35 q 488 -26 574 -26 q 322 3 401 -26 q 182 94 243 33 q 84 244 121 154 q 47 457 47 335 q 84 667 47 576 q 182 817 121 757 q 322 908 243 878 q 488 939 401 939 m 535 1214 l 743 1004 l 701 954 l 488 1072 l 274 954 l 232 1004 l 440 1214 l 535 1214 m 488 -312 q 404 -282 439 -312 q 369 -203 369 -251 q 404 -123 369 -154 q 488 -92 439 -92 q 571 -123 536 -92 q 606 -203 606 -154 q 571 -282 606 -251 q 488 -312 536 -312 z "},"Ồ":{"ha":975,"x_min":47,"x_max":928,"o":"m 293 457 q 304 297 293 371 q 338 169 315 224 q 398 85 361 115 q 488 54 435 54 q 577 85 540 54 q 638 169 614 115 q 672 297 661 224 q 682 457 682 371 q 672 617 682 543 q 638 744 661 690 q 577 828 614 797 q 488 858 540 858 q 398 828 435 858 q 338 744 361 797 q 304 617 315 690 q 293 457 293 543 m 488 939 q 652 909 572 939 q 793 819 732 879 q 891 669 854 760 q 928 457 928 578 q 891 246 928 336 q 793 95 854 156 q 653 4 732 35 q 488 -26 574 -26 q 322 3 401 -26 q 182 94 243 33 q 84 244 121 154 q 47 457 47 335 q 84 667 47 576 q 182 817 121 757 q 322 908 243 878 q 488 939 401 939 m 701 954 l 488 1072 l 274 954 l 232 1004 l 440 1214 l 535 1214 l 743 1004 l 701 954 m 256 1094 l 176 1128 q 85 1226 85 1167 q 105 1278 85 1258 q 153 1297 125 1297 q 204 1281 176 1297 q 261 1210 232 1264 l 299 1147 l 256 1094 z "},"Ổ":{"ha":975,"x_min":47,"x_max":928,"o":"m 293 457 q 304 297 293 371 q 338 169 315 224 q 398 85 361 115 q 488 54 435 54 q 577 85 540 54 q 638 169 614 115 q 672 297 661 224 q 682 457 682 371 q 672 617 682 543 q 638 744 661 690 q 577 828 614 797 q 488 858 540 858 q 398 828 435 858 q 338 744 361 797 q 304 617 315 690 q 293 457 293 543 m 488 939 q 652 909 572 939 q 793 819 732 879 q 891 669 854 760 q 928 457 928 578 q 891 246 928 336 q 793 95 854 156 q 653 4 732 35 q 488 -26 574 -26 q 322 3 401 -26 q 182 94 243 33 q 84 244 121 154 q 47 457 47 335 q 84 667 47 576 q 182 817 121 757 q 322 908 243 878 q 488 939 401 939 m 274 954 l 232 1004 l 440 1214 l 535 1214 l 743 1004 l 701 954 l 488 1072 l 274 954 m 675 1157 q 735 1176 721 1165 q 749 1199 749 1188 q 723 1224 749 1214 q 633 1239 697 1233 l 647 1379 q 854 1229 854 1361 q 810 1140 854 1174 q 688 1097 767 1107 l 675 1157 z "},"Ỗ":{"ha":975,"x_min":47,"x_max":928,"o":"m 293 457 q 304 297 293 371 q 338 169 315 224 q 398 85 361 115 q 488 54 435 54 q 577 85 540 54 q 638 169 614 115 q 672 297 661 224 q 682 457 682 371 q 672 617 682 543 q 638 744 661 690 q 577 828 614 797 q 488 858 540 858 q 398 828 435 858 q 338 744 361 797 q 304 617 315 690 q 293 457 293 543 m 488 939 q 652 909 572 939 q 793 819 732 879 q 891 669 854 760 q 928 457 928 578 q 891 246 928 336 q 793 95 854 156 q 653 4 732 35 q 488 -26 574 -26 q 322 3 401 -26 q 182 94 243 33 q 84 244 121 154 q 47 457 47 335 q 84 667 47 576 q 182 817 121 757 q 322 908 243 878 q 488 939 401 939 m 272 950 l 232 1000 l 440 1174 l 535 1174 l 743 1000 l 703 950 l 488 1047 l 272 950 m 242 1218 q 294 1333 253 1293 q 392 1374 335 1374 q 453 1365 428 1374 q 500 1347 478 1356 q 544 1332 522 1339 q 592 1325 565 1325 q 678 1382 651 1325 l 733 1363 q 682 1246 722 1288 q 589 1204 642 1204 q 525 1213 553 1204 q 474 1232 497 1222 q 431 1247 453 1239 q 382 1254 410 1254 q 331 1239 353 1254 q 297 1197 310 1224 l 242 1218 z "},"Ọ":{"ha":975,"x_min":47,"x_max":928,"o":"m 293 457 q 304 297 293 371 q 338 169 315 224 q 398 85 361 115 q 488 54 435 54 q 577 85 540 54 q 638 169 614 115 q 672 297 661 224 q 682 457 682 371 q 672 617 682 543 q 638 744 661 690 q 577 828 614 797 q 488 858 540 858 q 398 828 435 858 q 338 744 361 797 q 304 617 315 690 q 293 457 293 543 m 488 939 q 652 909 572 939 q 793 819 732 879 q 891 669 854 760 q 928 457 928 578 q 891 246 928 336 q 793 95 854 156 q 653 4 732 35 q 488 -26 574 -26 q 322 3 401 -26 q 182 94 243 33 q 84 244 121 154 q 47 457 47 335 q 84 667 47 576 q 182 817 121 757 q 322 908 243 878 q 488 939 401 939 m 488 -312 q 404 -282 439 -312 q 369 -203 369 -251 q 404 -123 369 -154 q 488 -92 439 -92 q 571 -123 536 -92 q 606 -203 606 -154 q 571 -282 606 -251 q 488 -312 536 -312 z "},"Ỏ":{"ha":975,"x_min":47,"x_max":928,"o":"m 293 457 q 304 297 293 371 q 338 169 315 224 q 398 85 361 115 q 488 54 435 54 q 577 85 540 54 q 638 169 614 115 q 672 297 661 224 q 682 457 682 371 q 672 617 682 543 q 638 744 661 690 q 577 828 614 797 q 488 858 540 858 q 398 828 435 858 q 338 744 361 797 q 304 617 315 690 q 293 457 293 543 m 488 939 q 652 909 572 939 q 793 819 732 879 q 891 669 854 760 q 928 457 928 578 q 891 246 928 336 q 793 95 854 156 q 653 4 732 35 q 488 -26 574 -26 q 322 3 401 -26 q 182 94 243 33 q 84 244 121 154 q 47 457 47 335 q 84 667 47 576 q 182 817 121 757 q 322 908 243 878 q 488 939 401 939 m 453 983 l 440 1042 q 501 1061 488 1051 q 514 1082 514 1071 q 489 1107 514 1097 q 400 1122 464 1117 l 413 1261 q 621 1111 621 1244 q 577 1025 621 1057 q 453 983 533 993 z "},"Ơ":{"ha":975,"x_min":47,"x_max":928,"o":"m 293 457 q 304 297 293 371 q 338 169 315 224 q 398 85 361 115 q 488 54 435 54 q 577 85 540 54 q 638 169 614 115 q 672 297 661 224 q 682 457 682 371 q 672 617 682 543 q 638 744 661 690 q 577 828 614 797 q 488 858 540 858 q 398 828 435 858 q 338 744 361 797 q 304 617 315 690 q 293 457 293 543 m 488 939 q 652 909 572 939 q 793 819 732 879 q 891 669 854 760 q 928 457 928 578 q 891 246 928 336 q 793 95 854 156 q 653 4 732 35 q 488 -26 574 -26 q 322 3 401 -26 q 182 94 243 33 q 84 244 121 154 q 47 457 47 335 q 84 667 47 576 q 182 817 121 757 q 322 908 243 878 q 488 939 401 939 m 689 768 l 682 828 q 779 858 743 835 q 815 918 815 882 q 808 947 815 933 q 792 974 801 960 q 776 1003 783 988 q 769 1039 769 1018 q 792 1088 769 1067 q 849 1110 814 1110 q 882 1105 867 1110 q 913 1088 897 1100 q 926 1044 924 1064 q 928 1001 928 1025 q 908 910 928 951 q 856 839 889 869 q 779 790 822 808 q 689 768 736 771 z "},"Ớ":{"ha":975,"x_min":47,"x_max":928,"o":"m 293 457 q 304 297 293 371 q 338 169 315 224 q 398 85 361 115 q 488 54 435 54 q 577 85 540 54 q 638 169 614 115 q 672 297 661 224 q 682 457 682 371 q 672 617 682 543 q 638 744 661 690 q 577 828 614 797 q 488 858 540 858 q 398 828 435 858 q 338 744 361 797 q 304 617 315 690 q 293 457 293 543 m 488 939 q 652 909 572 939 q 793 819 732 879 q 891 669 854 760 q 928 457 928 578 q 891 246 928 336 q 793 95 854 156 q 653 4 732 35 q 488 -26 574 -26 q 322 3 401 -26 q 182 94 243 33 q 84 244 121 154 q 47 457 47 335 q 84 667 47 576 q 182 817 121 757 q 322 908 243 878 q 488 939 401 939 m 689 768 l 682 828 q 779 858 743 835 q 815 918 815 882 q 808 947 815 933 q 792 974 801 960 q 776 1003 783 988 q 769 1039 769 1018 q 792 1088 769 1067 q 849 1110 814 1110 q 882 1105 867 1110 q 913 1088 897 1100 q 926 1044 924 1064 q 928 1001 928 1025 q 908 910 928 951 q 856 839 889 869 q 779 790 822 808 q 689 768 736 771 m 372 1024 q 450 1098 411 1061 q 526 1171 489 1135 q 583 1215 560 1203 q 629 1226 606 1226 q 684 1205 663 1226 q 706 1156 706 1183 q 690 1112 706 1136 q 626 1065 675 1088 q 518 1017 572 1040 q 411 969 464 993 l 372 1024 z "},"Ợ":{"ha":975,"x_min":47,"x_max":928,"o":"m 293 457 q 304 297 293 371 q 338 169 315 224 q 398 85 361 115 q 488 54 435 54 q 577 85 540 54 q 638 169 614 115 q 672 297 661 224 q 682 457 682 371 q 672 617 682 543 q 638 744 661 690 q 577 828 614 797 q 488 858 540 858 q 398 828 435 858 q 338 744 361 797 q 304 617 315 690 q 293 457 293 543 m 488 939 q 652 909 572 939 q 793 819 732 879 q 891 669 854 760 q 928 457 928 578 q 891 246 928 336 q 793 95 854 156 q 653 4 732 35 q 488 -26 574 -26 q 322 3 401 -26 q 182 94 243 33 q 84 244 121 154 q 47 457 47 335 q 84 667 47 576 q 182 817 121 757 q 322 908 243 878 q 488 939 401 939 m 689 768 l 682 828 q 779 858 743 835 q 815 918 815 882 q 808 947 815 933 q 792 974 801 960 q 776 1003 783 988 q 769 1039 769 1018 q 792 1088 769 1067 q 849 1110 814 1110 q 882 1105 867 1110 q 913 1088 897 1100 q 926 1044 924 1064 q 928 1001 928 1025 q 908 910 928 951 q 856 839 889 869 q 779 790 822 808 q 689 768 736 771 m 488 -312 q 404 -282 439 -312 q 369 -203 369 -251 q 404 -123 369 -154 q 488 -92 439 -92 q 571 -123 536 -92 q 606 -203 606 -154 q 571 -282 606 -251 q 488 -312 536 -312 z "},"Ờ":{"ha":975,"x_min":47,"x_max":928,"o":"m 293 457 q 304 297 293 371 q 338 169 315 224 q 398 85 361 115 q 488 54 435 54 q 577 85 540 54 q 638 169 614 115 q 672 297 661 224 q 682 457 682 371 q 672 617 682 543 q 638 744 661 690 q 577 828 614 797 q 488 858 540 858 q 398 828 435 858 q 338 744 361 797 q 304 617 315 690 q 293 457 293 543 m 488 939 q 652 909 572 939 q 793 819 732 879 q 891 669 854 760 q 928 457 928 578 q 891 246 928 336 q 793 95 854 156 q 653 4 732 35 q 488 -26 574 -26 q 322 3 401 -26 q 182 94 243 33 q 84 244 121 154 q 47 457 47 335 q 84 667 47 576 q 182 817 121 757 q 322 908 243 878 q 488 939 401 939 m 689 768 l 682 828 q 779 858 743 835 q 815 918 815 882 q 808 947 815 933 q 792 974 801 960 q 776 1003 783 988 q 769 1039 769 1018 q 792 1088 769 1067 q 849 1110 814 1110 q 882 1105 867 1110 q 913 1088 897 1100 q 926 1044 924 1064 q 928 1001 928 1025 q 908 910 928 951 q 856 839 889 869 q 779 790 822 808 q 689 768 736 771 m 622 1024 l 583 969 q 477 1016 531 993 q 369 1063 424 1039 q 304 1111 319 1086 q 289 1156 289 1136 q 310 1205 289 1183 q 365 1226 332 1226 q 412 1215 389 1226 q 468 1171 435 1203 q 544 1099 504 1136 q 622 1024 583 1063 z "},"Ở":{"ha":975,"x_min":47,"x_max":928,"o":"m 293 457 q 304 297 293 371 q 338 169 315 224 q 398 85 361 115 q 488 54 435 54 q 577 85 540 54 q 638 169 614 115 q 672 297 661 224 q 682 457 682 371 q 672 617 682 543 q 638 744 661 690 q 577 828 614 797 q 488 858 540 858 q 398 828 435 858 q 338 744 361 797 q 304 617 315 690 q 293 457 293 543 m 488 939 q 652 909 572 939 q 793 819 732 879 q 891 669 854 760 q 928 457 928 578 q 891 246 928 336 q 793 95 854 156 q 653 4 732 35 q 488 -26 574 -26 q 322 3 401 -26 q 182 94 243 33 q 84 244 121 154 q 47 457 47 335 q 84 667 47 576 q 182 817 121 757 q 322 908 243 878 q 488 939 401 939 m 689 768 l 682 828 q 779 858 743 835 q 815 918 815 882 q 808 947 815 933 q 792 974 801 960 q 776 1003 783 988 q 769 1039 769 1018 q 792 1088 769 1067 q 849 1110 814 1110 q 882 1105 867 1110 q 913 1088 897 1100 q 926 1044 924 1064 q 928 1001 928 1025 q 908 910 928 951 q 856 839 889 869 q 779 790 822 808 q 689 768 736 771 m 443 983 l 431 1042 q 491 1061 478 1051 q 504 1082 504 1071 q 479 1107 504 1097 q 390 1122 454 1117 l 403 1261 q 611 1111 611 1244 q 567 1025 611 1057 q 443 983 524 993 z "},"Ỡ":{"ha":975,"x_min":47,"x_max":928,"o":"m 293 457 q 304 297 293 371 q 338 169 315 224 q 398 85 361 115 q 488 54 435 54 q 577 85 540 54 q 638 169 614 115 q 672 297 661 224 q 682 457 682 371 q 672 617 682 543 q 638 744 661 690 q 577 828 614 797 q 488 858 540 858 q 398 828 435 858 q 338 744 361 797 q 304 617 315 690 q 293 457 293 543 m 488 939 q 652 909 572 939 q 793 819 732 879 q 891 669 854 760 q 928 457 928 578 q 891 246 928 336 q 793 95 854 156 q 653 4 732 35 q 488 -26 574 -26 q 322 3 401 -26 q 182 94 243 33 q 84 244 121 154 q 47 457 47 335 q 84 667 47 576 q 182 817 121 757 q 322 908 243 878 q 488 939 401 939 m 689 768 l 682 828 q 779 858 743 835 q 815 918 815 882 q 808 947 815 933 q 792 974 801 960 q 776 1003 783 988 q 769 1039 769 1018 q 792 1088 769 1067 q 849 1110 814 1110 q 882 1105 867 1110 q 913 1088 897 1100 q 926 1044 924 1064 q 928 1001 928 1025 q 908 910 928 951 q 856 839 889 869 q 779 790 822 808 q 689 768 736 771 m 233 1000 q 287 1142 244 1092 q 392 1193 329 1193 q 449 1182 425 1193 q 497 1156 474 1171 q 541 1126 518 1140 q 590 1111 564 1111 q 644 1133 622 1111 q 679 1194 665 1156 l 738 1171 q 684 1028 726 1079 q 582 976 642 976 q 522 988 550 976 q 472 1014 494 999 q 429 1044 451 1029 q 379 1058 407 1058 q 326 1036 347 1058 q 292 976 306 1014 l 233 1000 z "},"Ø":{"ha":975,"x_min":47,"x_max":928,"o":"m 906 896 l 819 790 q 899 648 869 731 q 928 457 928 565 q 891 246 928 336 q 793 95 854 156 q 653 4 732 35 q 488 -26 574 -26 q 350 -6 417 -26 q 226 56 283 14 l 143 -47 l 67 17 l 153 124 q 76 266 104 183 q 47 457 47 349 q 84 667 47 576 q 182 817 121 757 q 322 908 243 878 q 488 939 401 939 q 624 919 558 939 q 746 858 690 899 l 828 960 l 906 896 m 293 457 q 295 380 293 417 q 303 308 297 343 l 643 731 q 582 824 619 790 q 488 858 544 858 q 398 828 435 858 q 338 744 361 797 q 304 617 315 690 q 293 457 293 543 m 488 54 q 577 85 540 54 q 638 169 614 115 q 672 297 661 224 q 682 457 682 371 q 680 535 682 497 q 672 608 678 572 l 332 186 q 393 89 356 124 q 488 54 431 54 z "},"Œ":{"ha":1292,"x_min":47,"x_max":1258,"o":"m 293 457 q 310 293 293 367 q 360 166 326 219 q 444 83 394 113 q 561 54 494 54 q 588 55 575 54 q 615 57 601 56 q 618 242 618 149 q 618 431 618 335 l 618 482 q 618 668 618 575 q 615 856 618 761 q 588 858 601 857 q 561 858 575 858 q 444 829 494 858 q 360 747 394 800 q 310 619 326 693 q 293 457 293 546 m 1142 239 l 1258 239 l 1249 0 l 733 0 q 644 -19 693 -11 q 543 -26 596 -26 q 351 3 440 -26 q 193 92 261 32 q 86 242 125 151 q 47 457 47 333 q 86 670 47 579 q 193 821 125 761 q 351 910 261 881 q 543 939 440 939 q 641 932 592 939 q 733 913 690 925 l 1221 913 l 1231 674 l 1114 674 l 1086 835 l 854 835 q 851 675 851 756 q 851 513 851 594 l 1001 513 l 1018 621 l 1099 621 l 1099 322 l 1018 322 l 1001 431 l 851 431 q 851 249 851 335 q 854 78 851 163 l 1114 78 l 1142 239 z "},"Ŕ":{"ha":949,"x_min":46,"x_max":943,"o":"m 153 431 l 153 482 q 153 654 153 568 q 150 826 153 740 l 46 838 l 46 913 l 497 913 q 749 851 661 913 q 838 682 838 790 q 825 613 838 647 q 783 548 813 578 q 706 496 754 518 q 589 463 658 474 q 687 437 647 454 q 751 392 726 419 q 790 326 776 364 q 811 240 803 289 l 838 86 l 943 75 l 943 0 q 900 -10 918 -6 q 865 -16 882 -14 q 831 -19 849 -18 q 790 -19 814 -19 q 651 10 701 -19 q 589 122 600 40 l 564 283 q 524 387 553 354 q 432 419 494 419 l 382 419 q 382 248 382 329 q 385 86 382 167 l 493 75 l 493 0 l 46 0 l 46 75 l 150 86 q 153 257 153 171 q 153 431 153 343 m 440 832 l 385 832 q 382 660 382 744 q 382 497 382 575 l 435 497 q 521 511 486 497 q 576 549 556 525 q 606 603 597 572 q 615 667 615 633 q 571 792 615 751 q 440 832 526 832 m 369 1019 q 447 1094 408 1057 q 524 1167 486 1131 q 580 1210 557 1199 q 626 1222 603 1222 q 681 1201 660 1222 q 703 1151 703 1179 q 688 1108 703 1132 q 624 1061 672 1083 q 515 1013 569 1036 q 408 965 461 989 l 369 1019 z "},"Ř":{"ha":949,"x_min":46,"x_max":943,"o":"m 153 431 l 153 482 q 153 654 153 568 q 150 826 153 740 l 46 838 l 46 913 l 497 913 q 749 851 661 913 q 838 682 838 790 q 825 613 838 647 q 783 548 813 578 q 706 496 754 518 q 589 463 658 474 q 687 437 647 454 q 751 392 726 419 q 790 326 776 364 q 811 240 803 289 l 838 86 l 943 75 l 943 0 q 900 -10 918 -6 q 865 -16 882 -14 q 831 -19 849 -18 q 790 -19 814 -19 q 651 10 701 -19 q 589 122 600 40 l 564 283 q 524 387 553 354 q 432 419 494 419 l 382 419 q 382 248 382 329 q 385 86 382 167 l 493 75 l 493 0 l 46 0 l 46 75 l 150 86 q 153 257 153 171 q 153 431 153 343 m 440 832 l 385 832 q 382 660 382 744 q 382 497 382 575 l 435 497 q 521 511 486 497 q 576 549 556 525 q 606 603 597 572 q 615 667 615 633 q 571 792 615 751 q 440 832 526 832 m 271 1229 l 463 1104 l 654 1229 l 701 1185 l 522 979 l 403 979 l 225 1185 l 271 1229 z "},"Ŗ":{"ha":949,"x_min":46,"x_max":943,"o":"m 153 431 l 153 482 q 153 654 153 568 q 150 826 153 740 l 46 838 l 46 913 l 497 913 q 749 851 661 913 q 838 682 838 790 q 825 613 838 647 q 783 548 813 578 q 706 496 754 518 q 589 463 658 474 q 687 437 647 454 q 751 392 726 419 q 790 326 776 364 q 811 240 803 289 l 838 86 l 943 75 l 943 0 q 900 -10 918 -6 q 865 -16 882 -14 q 831 -19 849 -18 q 790 -19 814 -19 q 651 10 701 -19 q 589 122 600 40 l 564 283 q 524 387 553 354 q 432 419 494 419 l 382 419 q 382 248 382 329 q 385 86 382 167 l 493 75 l 493 0 l 46 0 l 46 75 l 150 86 q 153 257 153 171 q 153 431 153 343 m 440 832 l 385 832 q 382 660 382 744 q 382 497 382 575 l 435 497 q 521 511 486 497 q 576 549 556 525 q 606 603 597 572 q 615 667 615 633 q 571 792 615 751 q 440 832 526 832 m 601 -167 q 585 -233 601 -203 q 540 -287 568 -262 q 474 -333 511 -312 q 393 -367 436 -353 l 372 -311 q 434 -282 408 -296 q 481 -246 460 -268 q 426 -204 446 -229 q 406 -146 406 -179 q 433 -87 406 -110 q 501 -65 461 -65 q 542 -71 524 -65 q 588 -94 561 -76 q 601 -167 601 -135 z "},"Ṛ":{"ha":949,"x_min":46,"x_max":943,"o":"m 153 431 l 153 482 q 153 654 153 568 q 150 826 153 740 l 46 838 l 46 913 l 497 913 q 749 851 661 913 q 838 682 838 790 q 825 613 838 647 q 783 548 813 578 q 706 496 754 518 q 589 463 658 474 q 687 437 647 454 q 751 392 726 419 q 790 326 776 364 q 811 240 803 289 l 838 86 l 943 75 l 943 0 q 900 -10 918 -6 q 865 -16 882 -14 q 831 -19 849 -18 q 790 -19 814 -19 q 651 10 701 -19 q 589 122 600 40 l 564 283 q 524 387 553 354 q 432 419 494 419 l 382 419 q 382 248 382 329 q 385 86 382 167 l 493 75 l 493 0 l 46 0 l 46 75 l 150 86 q 153 257 153 171 q 153 431 153 343 m 440 832 l 385 832 q 382 660 382 744 q 382 497 382 575 l 435 497 q 521 511 486 497 q 576 549 556 525 q 606 603 597 572 q 615 667 615 633 q 571 792 615 751 q 440 832 526 832 m 507 -312 q 424 -282 458 -312 q 389 -203 389 -251 q 424 -123 389 -154 q 507 -92 458 -92 q 590 -123 556 -92 q 625 -203 625 -154 q 590 -282 625 -251 q 507 -312 556 -312 z "},"Ṝ":{"ha":949,"x_min":46,"x_max":943,"o":"m 153 431 l 153 482 q 153 654 153 568 q 150 826 153 740 l 46 838 l 46 913 l 497 913 q 749 851 661 913 q 838 682 838 790 q 825 613 838 647 q 783 548 813 578 q 706 496 754 518 q 589 463 658 474 q 687 437 647 454 q 751 392 726 419 q 790 326 776 364 q 811 240 803 289 l 838 86 l 943 75 l 943 0 q 900 -10 918 -6 q 865 -16 882 -14 q 831 -19 849 -18 q 790 -19 814 -19 q 651 10 701 -19 q 589 122 600 40 l 564 283 q 524 387 553 354 q 432 419 494 419 l 382 419 q 382 248 382 329 q 385 86 382 167 l 493 75 l 493 0 l 46 0 l 46 75 l 150 86 q 153 257 153 171 q 153 431 153 343 m 440 832 l 385 832 q 382 660 382 744 q 382 497 382 575 l 435 497 q 521 511 486 497 q 576 549 556 525 q 606 603 597 572 q 615 667 615 633 q 571 792 615 751 q 440 832 526 832 m 507 -312 q 424 -282 458 -312 q 389 -203 389 -251 q 424 -123 389 -154 q 507 -92 458 -92 q 590 -123 556 -92 q 625 -203 625 -154 q 590 -282 625 -251 q 507 -312 556 -312 m 253 1013 l 253 1136 l 700 1136 l 700 1013 l 253 1013 z "},"Ṟ":{"ha":949,"x_min":46,"x_max":943,"o":"m 153 431 l 153 482 q 153 654 153 568 q 150 826 153 740 l 46 838 l 46 913 l 497 913 q 749 851 661 913 q 838 682 838 790 q 825 613 838 647 q 783 548 813 578 q 706 496 754 518 q 589 463 658 474 q 687 437 647 454 q 751 392 726 419 q 790 326 776 364 q 811 240 803 289 l 838 86 l 943 75 l 943 0 q 900 -10 918 -6 q 865 -16 882 -14 q 831 -19 849 -18 q 790 -19 814 -19 q 651 10 701 -19 q 589 122 600 40 l 564 283 q 524 387 553 354 q 432 419 494 419 l 382 419 q 382 248 382 329 q 385 86 382 167 l 493 75 l 493 0 l 46 0 l 46 75 l 150 86 q 153 257 153 171 q 153 431 153 343 m 440 832 l 385 832 q 382 660 382 744 q 382 497 382 575 l 435 497 q 521 511 486 497 q 576 549 556 525 q 606 603 597 572 q 615 667 615 633 q 571 792 615 751 q 440 832 526 832 m 281 -268 l 281 -144 l 722 -144 l 722 -268 l 281 -268 z "},"Ś":{"ha":751,"x_min":47,"x_max":711,"o":"m 347 57 q 461 94 422 57 q 500 189 500 132 q 472 275 500 244 q 381 333 443 306 l 321 360 q 212 418 260 388 q 131 485 164 449 q 81 567 99 522 q 64 671 64 613 q 88 783 64 733 q 158 867 113 833 q 266 920 203 901 q 408 939 329 939 q 552 920 483 939 q 671 868 621 901 l 660 674 l 532 674 l 506 838 q 461 851 483 846 q 413 856 439 856 q 311 822 353 856 q 269 729 269 788 q 301 641 269 674 q 396 581 333 608 l 461 551 q 575 490 528 521 q 652 425 622 460 q 697 349 682 390 q 711 254 711 307 q 688 142 711 193 q 619 53 665 90 q 506 -6 574 15 q 349 -26 438 -26 q 188 -8 269 -26 q 47 47 107 10 l 56 253 l 185 253 l 213 82 q 276 63 244 69 q 347 57 308 57 m 313 1024 q 390 1098 351 1061 q 467 1171 429 1135 q 523 1215 500 1203 q 569 1226 546 1226 q 624 1205 603 1226 q 646 1156 646 1183 q 631 1112 646 1136 q 567 1065 615 1088 q 458 1017 513 1040 q 351 969 404 993 l 313 1024 z "},"Š":{"ha":751,"x_min":47,"x_max":711,"o":"m 347 57 q 461 94 422 57 q 500 189 500 132 q 472 275 500 244 q 381 333 443 306 l 321 360 q 212 418 260 388 q 131 485 164 449 q 81 567 99 522 q 64 671 64 613 q 88 783 64 733 q 158 867 113 833 q 266 920 203 901 q 408 939 329 939 q 552 920 483 939 q 671 868 621 901 l 660 674 l 532 674 l 506 838 q 461 851 483 846 q 413 856 439 856 q 311 822 353 856 q 269 729 269 788 q 301 641 269 674 q 396 581 333 608 l 461 551 q 575 490 528 521 q 652 425 622 460 q 697 349 682 390 q 711 254 711 307 q 688 142 711 193 q 619 53 665 90 q 506 -6 574 15 q 349 -26 438 -26 q 188 -8 269 -26 q 47 47 107 10 l 56 253 l 185 253 l 213 82 q 276 63 244 69 q 347 57 308 57 m 219 1239 l 411 1114 l 603 1239 l 650 1194 l 471 989 l 351 989 l 174 1194 l 219 1239 z "},"Ş":{"ha":751,"x_min":47,"x_max":711,"o":"m 347 57 q 461 94 422 57 q 500 189 500 132 q 472 275 500 244 q 381 333 443 306 l 321 360 q 212 418 260 388 q 131 485 164 449 q 81 567 99 522 q 64 671 64 613 q 88 783 64 733 q 158 867 113 833 q 266 920 203 901 q 408 939 329 939 q 552 920 483 939 q 671 868 621 901 l 660 674 l 532 674 l 506 838 q 461 851 483 846 q 413 856 439 856 q 311 822 353 856 q 269 729 269 788 q 301 641 269 674 q 396 581 333 608 l 461 551 q 575 490 528 521 q 652 425 622 460 q 697 349 682 390 q 711 254 711 307 q 688 142 711 193 q 619 53 665 90 q 506 -6 574 15 q 349 -26 438 -26 q 188 -8 269 -26 q 47 47 107 10 l 56 253 l 185 253 l 213 82 q 276 63 244 69 q 347 57 308 57 m 329 -124 l 349 6 l 421 6 l 413 -71 q 519 -116 486 -85 q 551 -189 551 -147 q 505 -277 551 -242 q 364 -312 458 -312 q 305 -308 331 -312 q 256 -294 279 -303 l 271 -231 q 308 -239 290 -236 q 344 -242 325 -242 q 399 -227 382 -242 q 417 -189 417 -212 q 395 -142 417 -157 q 329 -124 374 -126 z "},"Ș":{"ha":751,"x_min":47,"x_max":711,"o":"m 347 57 q 461 94 422 57 q 500 189 500 132 q 472 275 500 244 q 381 333 443 306 l 321 360 q 212 418 260 388 q 131 485 164 449 q 81 567 99 522 q 64 671 64 613 q 88 783 64 733 q 158 867 113 833 q 266 920 203 901 q 408 939 329 939 q 552 920 483 939 q 671 868 621 901 l 660 674 l 532 674 l 506 838 q 461 851 483 846 q 413 856 439 856 q 311 822 353 856 q 269 729 269 788 q 301 641 269 674 q 396 581 333 608 l 461 551 q 575 490 528 521 q 652 425 622 460 q 697 349 682 390 q 711 254 711 307 q 688 142 711 193 q 619 53 665 90 q 506 -6 574 15 q 349 -26 438 -26 q 188 -8 269 -26 q 47 47 107 10 l 56 253 l 185 253 l 213 82 q 276 63 244 69 q 347 57 308 57 m 472 -171 q 456 -237 472 -207 q 410 -292 439 -267 q 344 -337 382 -317 q 264 -371 307 -357 l 243 -315 q 305 -286 279 -300 q 351 -250 331 -272 q 297 -208 317 -233 q 276 -150 276 -183 q 304 -92 276 -114 q 372 -69 332 -69 q 413 -75 394 -69 q 458 -99 432 -81 q 472 -171 472 -139 z "},"Ŝ":{"ha":751,"x_min":47,"x_max":711,"o":"m 347 57 q 461 94 422 57 q 500 189 500 132 q 472 275 500 244 q 381 333 443 306 l 321 360 q 212 418 260 388 q 131 485 164 449 q 81 567 99 522 q 64 671 64 613 q 88 783 64 733 q 158 867 113 833 q 266 920 203 901 q 408 939 329 939 q 552 920 483 939 q 671 868 621 901 l 660 674 l 532 674 l 506 838 q 461 851 483 846 q 413 856 439 856 q 311 822 353 856 q 269 729 269 788 q 301 641 269 674 q 396 581 333 608 l 461 551 q 575 490 528 521 q 652 425 622 460 q 697 349 682 390 q 711 254 711 307 q 688 142 711 193 q 619 53 665 90 q 506 -6 574 15 q 349 -26 438 -26 q 188 -8 269 -26 q 47 47 107 10 l 56 253 l 185 253 l 213 82 q 276 63 244 69 q 347 57 308 57 m 442 1214 l 650 1004 l 608 954 l 394 1072 l 181 954 l 139 1004 l 347 1214 l 442 1214 z "},"Ṡ":{"ha":751,"x_min":47,"x_max":711,"o":"m 347 57 q 461 94 422 57 q 500 189 500 132 q 472 275 500 244 q 381 333 443 306 l 321 360 q 212 418 260 388 q 131 485 164 449 q 81 567 99 522 q 64 671 64 613 q 88 783 64 733 q 158 867 113 833 q 266 920 203 901 q 408 939 329 939 q 552 920 483 939 q 671 868 621 901 l 660 674 l 532 674 l 506 838 q 461 851 483 846 q 413 856 439 856 q 311 822 353 856 q 269 729 269 788 q 301 641 269 674 q 396 581 333 608 l 461 551 q 575 490 528 521 q 652 425 622 460 q 697 349 682 390 q 711 254 711 307 q 688 142 711 193 q 619 53 665 90 q 506 -6 574 15 q 349 -26 438 -26 q 188 -8 269 -26 q 47 47 107 10 l 56 253 l 185 253 l 213 82 q 276 63 244 69 q 347 57 308 57 m 404 985 q 321 1016 356 985 q 286 1096 286 1047 q 321 1175 286 1144 q 404 1206 356 1206 q 488 1175 453 1206 q 522 1096 522 1144 q 488 1016 522 1047 q 404 985 453 985 z "},"Ṣ":{"ha":751,"x_min":47,"x_max":711,"o":"m 347 57 q 461 94 422 57 q 500 189 500 132 q 472 275 500 244 q 381 333 443 306 l 321 360 q 212 418 260 388 q 131 485 164 449 q 81 567 99 522 q 64 671 64 613 q 88 783 64 733 q 158 867 113 833 q 266 920 203 901 q 408 939 329 939 q 552 920 483 939 q 671 868 621 901 l 660 674 l 532 674 l 506 838 q 461 851 483 846 q 413 856 439 856 q 311 822 353 856 q 269 729 269 788 q 301 641 269 674 q 396 581 333 608 l 461 551 q 575 490 528 521 q 652 425 622 460 q 697 349 682 390 q 711 254 711 307 q 688 142 711 193 q 619 53 665 90 q 506 -6 574 15 q 349 -26 438 -26 q 188 -8 269 -26 q 47 47 107 10 l 56 253 l 185 253 l 213 82 q 276 63 244 69 q 347 57 308 57 m 378 -312 q 294 -282 329 -312 q 260 -203 260 -251 q 294 -123 260 -154 q 378 -92 329 -92 q 461 -123 426 -92 q 496 -203 496 -154 q 461 -282 496 -251 q 378 -312 426 -312 z "},"ẞ":{"ha":1028,"x_min":46,"x_max":999,"o":"m 46 0 l 46 71 l 150 82 q 153 262 153 171 q 153 440 153 353 l 153 563 q 176 735 153 664 q 252 852 200 807 q 386 918 304 897 q 585 939 468 939 q 735 921 663 939 q 865 871 808 903 l 865 819 q 790 756 815 794 q 764 664 764 718 q 781 580 764 611 q 829 521 799 549 l 864 490 q 966 368 933 428 q 999 236 999 308 q 981 141 999 188 q 926 57 963 94 q 833 -3 889 19 q 704 -26 778 -26 q 587 -10 646 -26 q 483 43 528 7 l 492 246 l 607 246 l 644 58 q 660 56 651 57 q 676 56 668 56 q 754 90 726 56 q 782 178 782 125 q 764 253 782 221 q 701 331 746 286 l 664 367 q 615 419 636 394 q 581 469 594 443 q 560 522 567 494 q 554 585 554 550 q 611 734 554 667 q 765 839 668 801 q 693 851 729 847 q 613 856 657 856 q 503 842 546 856 q 433 797 460 828 q 397 716 407 765 q 386 596 386 667 l 386 401 q 387 210 386 314 q 390 0 388 107 l 46 0 z "},"Ť":{"ha":881,"x_min":28,"x_max":853,"o":"m 324 431 l 324 482 q 324 658 324 569 q 321 835 324 746 l 169 835 l 143 654 l 28 654 l 33 913 l 849 913 l 853 654 l 738 654 l 713 835 l 560 835 q 557 660 557 747 q 557 482 557 572 l 557 432 q 557 259 557 344 q 560 88 557 174 l 679 75 l 679 0 l 203 0 l 203 75 l 321 88 q 324 258 324 172 q 324 431 324 343 m 249 1229 l 440 1104 l 632 1229 l 679 1185 l 500 979 l 381 979 l 203 1185 l 249 1229 z "},"Ţ":{"ha":881,"x_min":28,"x_max":853,"o":"m 324 431 l 324 482 q 324 658 324 569 q 321 835 324 746 l 169 835 l 143 654 l 28 654 l 33 913 l 849 913 l 853 654 l 738 654 l 713 835 l 560 835 q 557 660 557 747 q 557 482 557 572 l 557 432 q 557 259 557 344 q 560 88 557 174 l 679 75 l 679 0 l 203 0 l 203 75 l 321 88 q 324 258 324 172 q 324 431 324 343 m 386 -124 l 406 6 l 478 6 l 469 -71 q 576 -116 543 -85 q 608 -189 608 -147 q 562 -277 608 -242 q 421 -312 515 -312 q 362 -308 388 -312 q 313 -294 336 -303 l 328 -231 q 365 -239 347 -236 q 401 -242 382 -242 q 456 -227 439 -242 q 474 -189 474 -212 q 452 -142 474 -157 q 386 -124 431 -126 z "},"Ț":{"ha":881,"x_min":28,"x_max":853,"o":"m 324 431 l 324 482 q 324 658 324 569 q 321 835 324 746 l 169 835 l 143 654 l 28 654 l 33 913 l 849 913 l 853 654 l 738 654 l 713 835 l 560 835 q 557 660 557 747 q 557 482 557 572 l 557 432 q 557 259 557 344 q 560 88 557 174 l 679 75 l 679 0 l 203 0 l 203 75 l 321 88 q 324 258 324 172 q 324 431 324 343 m 554 -171 q 538 -237 554 -207 q 492 -292 521 -267 q 426 -337 464 -317 q 346 -371 389 -357 l 325 -315 q 387 -286 361 -300 q 433 -250 413 -272 q 378 -208 399 -233 q 358 -150 358 -183 q 386 -92 358 -114 q 454 -69 414 -69 q 495 -75 476 -69 q 540 -99 514 -81 q 554 -171 554 -139 z "},"Ṭ":{"ha":881,"x_min":28,"x_max":853,"o":"m 324 431 l 324 482 q 324 658 324 569 q 321 835 324 746 l 169 835 l 143 654 l 28 654 l 33 913 l 849 913 l 853 654 l 738 654 l 713 835 l 560 835 q 557 660 557 747 q 557 482 557 572 l 557 432 q 557 259 557 344 q 560 88 557 174 l 679 75 l 679 0 l 203 0 l 203 75 l 321 88 q 324 258 324 172 q 324 431 324 343 m 440 -312 q 357 -282 392 -312 q 322 -203 322 -251 q 357 -123 322 -154 q 440 -92 392 -92 q 524 -123 489 -92 q 558 -203 558 -154 q 524 -282 558 -251 q 440 -312 489 -312 z "},"Ṯ":{"ha":881,"x_min":28,"x_max":853,"o":"m 324 431 l 324 482 q 324 658 324 569 q 321 835 324 746 l 169 835 l 143 654 l 28 654 l 33 913 l 849 913 l 853 654 l 738 654 l 713 835 l 560 835 q 557 660 557 747 q 557 482 557 572 l 557 432 q 557 259 557 344 q 560 88 557 174 l 679 75 l 679 0 l 203 0 l 203 75 l 321 88 q 324 258 324 172 q 324 431 324 343 m 219 -268 l 219 -144 l 661 -144 l 661 -268 l 219 -268 z "},"Ù":{"ha":1015,"x_min":40,"x_max":979,"o":"m 376 389 q 389 254 376 310 q 426 165 401 199 q 488 115 451 131 q 575 100 525 100 q 721 168 668 100 q 774 393 774 236 l 774 826 l 647 838 l 647 913 l 979 913 l 979 838 l 864 828 l 864 393 q 839 203 864 282 q 767 73 814 124 q 653 -2 721 22 q 499 -26 585 -26 q 356 -6 421 -26 q 244 58 292 14 q 169 173 196 103 q 143 344 143 243 l 143 496 q 143 662 143 579 q 140 828 143 744 l 40 838 l 40 913 l 493 913 l 493 838 l 378 826 q 376 661 376 743 q 376 496 376 579 l 376 389 m 653 1015 l 614 961 q 508 1008 561 985 q 400 1054 454 1031 q 335 1103 350 1078 q 319 1147 319 1128 q 341 1197 319 1175 q 396 1218 363 1218 q 442 1206 419 1218 q 499 1163 465 1194 q 574 1091 535 1128 q 653 1015 614 1054 z "},"Ú":{"ha":1015,"x_min":40,"x_max":979,"o":"m 376 389 q 389 254 376 310 q 426 165 401 199 q 488 115 451 131 q 575 100 525 100 q 721 168 668 100 q 774 393 774 236 l 774 826 l 647 838 l 647 913 l 979 913 l 979 838 l 864 828 l 864 393 q 839 203 864 282 q 767 73 814 124 q 653 -2 721 22 q 499 -26 585 -26 q 356 -6 421 -26 q 244 58 292 14 q 169 173 196 103 q 143 344 143 243 l 143 496 q 143 662 143 579 q 140 828 143 744 l 40 838 l 40 913 l 493 913 l 493 838 l 378 826 q 376 661 376 743 q 376 496 376 579 l 376 389 m 444 1015 q 522 1090 483 1053 q 599 1163 561 1126 q 655 1206 632 1194 q 701 1218 678 1218 q 756 1197 735 1218 q 778 1147 778 1175 q 763 1103 778 1128 q 699 1057 747 1079 q 590 1008 644 1032 q 483 961 536 985 l 444 1015 z "},"Û":{"ha":1015,"x_min":40,"x_max":979,"o":"m 376 389 q 389 254 376 310 q 426 165 401 199 q 488 115 451 131 q 575 100 525 100 q 721 168 668 100 q 774 393 774 236 l 774 826 l 647 838 l 647 913 l 979 913 l 979 838 l 864 828 l 864 393 q 839 203 864 282 q 767 73 814 124 q 653 -2 721 22 q 499 -26 585 -26 q 356 -6 421 -26 q 244 58 292 14 q 169 173 196 103 q 143 344 143 243 l 143 496 q 143 662 143 579 q 140 828 143 744 l 40 838 l 40 913 l 493 913 l 493 838 l 378 826 q 376 661 376 743 q 376 496 376 579 l 376 389 m 613 1210 l 821 1000 l 779 950 l 565 1068 l 351 950 l 310 1000 l 518 1210 l 613 1210 z "},"Ü":{"ha":1015,"x_min":40,"x_max":979,"o":"m 376 389 q 389 254 376 310 q 426 165 401 199 q 488 115 451 131 q 575 100 525 100 q 721 168 668 100 q 774 393 774 236 l 774 826 l 647 838 l 647 913 l 979 913 l 979 838 l 864 828 l 864 393 q 839 203 864 282 q 767 73 814 124 q 653 -2 721 22 q 499 -26 585 -26 q 356 -6 421 -26 q 244 58 292 14 q 169 173 196 103 q 143 344 143 243 l 143 496 q 143 662 143 579 q 140 828 143 744 l 40 838 l 40 913 l 493 913 l 493 838 l 378 826 q 376 661 376 743 q 376 496 376 579 l 376 389 m 392 990 q 321 1016 351 990 q 290 1086 290 1042 q 321 1156 290 1131 q 392 1182 351 1182 q 464 1156 433 1182 q 494 1086 494 1131 q 464 1016 494 1042 q 392 990 433 990 m 738 990 q 667 1016 697 990 q 636 1086 636 1042 q 667 1156 636 1131 q 738 1182 697 1182 q 810 1156 779 1182 q 840 1086 840 1131 q 810 1016 840 1042 q 738 990 779 990 z "},"Ū":{"ha":1015,"x_min":40,"x_max":979,"o":"m 376 389 q 389 254 376 310 q 426 165 401 199 q 488 115 451 131 q 575 100 525 100 q 721 168 668 100 q 774 393 774 236 l 774 826 l 647 838 l 647 913 l 979 913 l 979 838 l 864 828 l 864 393 q 839 203 864 282 q 767 73 814 124 q 653 -2 721 22 q 499 -26 585 -26 q 356 -6 421 -26 q 244 58 292 14 q 169 173 196 103 q 143 344 143 243 l 143 496 q 143 662 143 579 q 140 828 143 744 l 40 838 l 40 913 l 493 913 l 493 838 l 378 826 q 376 661 376 743 q 376 496 376 579 l 376 389 m 339 1013 l 339 1136 l 786 1136 l 786 1013 l 339 1013 z "},"Ů":{"ha":1015,"x_min":40,"x_max":979,"o":"m 376 389 q 389 254 376 310 q 426 165 401 199 q 488 115 451 131 q 575 100 525 100 q 721 168 668 100 q 774 393 774 236 l 774 826 l 647 838 l 647 913 l 979 913 l 979 838 l 864 828 l 864 393 q 839 203 864 282 q 767 73 814 124 q 653 -2 721 22 q 499 -26 585 -26 q 356 -6 421 -26 q 244 58 292 14 q 169 173 196 103 q 143 344 143 243 l 143 496 q 143 662 143 579 q 140 828 143 744 l 40 838 l 40 913 l 493 913 l 493 838 l 378 826 q 376 661 376 743 q 376 496 376 579 l 376 389 m 569 974 q 468 1010 510 974 q 426 1111 426 1047 q 468 1211 426 1174 q 569 1249 510 1249 q 671 1213 629 1249 q 713 1111 713 1176 q 671 1010 713 1046 q 569 974 629 974 m 569 1038 q 621 1058 601 1038 q 640 1111 640 1079 q 621 1163 640 1143 q 569 1183 601 1183 q 518 1163 538 1183 q 499 1111 499 1143 q 518 1058 499 1079 q 569 1038 538 1038 z "},"Ű":{"ha":1015,"x_min":40,"x_max":979,"o":"m 376 389 q 389 254 376 310 q 426 165 401 199 q 488 115 451 131 q 575 100 525 100 q 721 168 668 100 q 774 393 774 236 l 774 826 l 647 838 l 647 913 l 979 913 l 979 838 l 864 828 l 864 393 q 839 203 864 282 q 767 73 814 124 q 653 -2 721 22 q 499 -26 585 -26 q 356 -6 421 -26 q 244 58 292 14 q 169 173 196 103 q 143 344 143 243 l 143 496 q 143 662 143 579 q 140 828 143 744 l 40 838 l 40 913 l 493 913 l 493 838 l 378 826 q 376 661 376 743 q 376 496 376 579 l 376 389 m 406 997 l 482 1181 q 564 1246 511 1246 q 609 1231 589 1246 q 629 1190 629 1217 q 622 1158 629 1172 q 599 1124 614 1143 l 461 965 l 406 997 m 626 997 l 704 1181 q 785 1246 731 1246 q 830 1231 810 1246 q 850 1190 850 1217 q 843 1158 850 1172 q 819 1124 836 1143 l 682 965 l 626 997 z "},"Ų":{"ha":1015,"x_min":40,"x_max":979,"o":"m 40 838 l 40 913 l 493 913 l 493 838 l 378 826 q 376 661 376 743 q 376 496 376 579 l 376 389 q 389 254 376 310 q 426 165 401 199 q 488 115 451 131 q 574 100 525 100 q 720 168 667 100 q 774 393 774 236 l 774 826 l 647 838 l 647 913 l 979 913 l 979 838 l 864 828 l 864 393 q 818 151 864 243 q 690 15 772 60 q 628 -40 646 -10 q 610 -107 610 -71 q 637 -174 610 -150 q 708 -199 664 -199 q 749 -195 732 -199 q 783 -185 767 -192 l 803 -244 q 722 -295 771 -278 q 621 -312 674 -312 q 506 -274 546 -312 q 465 -178 465 -236 q 490 -90 465 -129 q 560 -24 515 -51 q 531 -26 546 -25 q 501 -26 517 -26 q 358 -6 424 -26 q 244 58 292 14 q 169 173 196 103 q 143 344 143 243 l 143 496 q 143 662 143 579 q 140 828 143 744 l 40 838 z "},"Ŭ":{"ha":1015,"x_min":40,"x_max":979,"o":"m 376 389 q 389 254 376 310 q 426 165 401 199 q 488 115 451 131 q 575 100 525 100 q 721 168 668 100 q 774 393 774 236 l 774 826 l 647 838 l 647 913 l 979 913 l 979 838 l 864 828 l 864 393 q 839 203 864 282 q 767 73 814 124 q 653 -2 721 22 q 499 -26 585 -26 q 356 -6 421 -26 q 244 58 292 14 q 169 173 196 103 q 143 344 143 243 l 143 496 q 143 662 143 579 q 140 828 143 744 l 40 838 l 40 913 l 493 913 l 493 838 l 378 826 q 376 661 376 743 q 376 496 376 579 l 376 389 m 336 1169 l 400 1194 q 463 1121 424 1147 q 565 1094 503 1094 q 667 1121 628 1094 q 731 1194 707 1147 l 794 1169 q 771 1098 788 1132 q 726 1038 754 1064 q 658 997 697 1013 q 565 982 618 982 q 473 997 513 982 q 405 1038 433 1013 q 360 1098 376 1064 q 336 1169 343 1132 z "},"Ǔ":{"ha":1015,"x_min":40,"x_max":979,"o":"m 376 389 q 389 254 376 310 q 426 165 401 199 q 488 115 451 131 q 575 100 525 100 q 721 168 668 100 q 774 393 774 236 l 774 826 l 647 838 l 647 913 l 979 913 l 979 838 l 864 828 l 864 393 q 839 203 864 282 q 767 73 814 124 q 653 -2 721 22 q 499 -26 585 -26 q 356 -6 421 -26 q 244 58 292 14 q 169 173 196 103 q 143 344 143 243 l 143 496 q 143 662 143 579 q 140 828 143 744 l 40 838 l 40 913 l 493 913 l 493 838 l 378 826 q 376 661 376 743 q 376 496 376 579 l 376 389 m 386 1229 l 578 1104 l 769 1229 l 817 1185 l 638 979 l 518 979 l 340 1185 l 386 1229 z "},"Ǘ":{"ha":1015,"x_min":40,"x_max":979,"o":"m 376 389 q 389 254 376 310 q 426 165 401 199 q 488 115 451 131 q 575 100 525 100 q 721 168 668 100 q 774 393 774 236 l 774 826 l 647 838 l 647 913 l 979 913 l 979 838 l 864 828 l 864 393 q 839 203 864 282 q 767 73 814 124 q 653 -2 721 22 q 499 -26 585 -26 q 356 -6 421 -26 q 244 58 292 14 q 169 173 196 103 q 143 344 143 243 l 143 496 q 143 662 143 579 q 140 828 143 744 l 40 838 l 40 913 l 493 913 l 493 838 l 378 826 q 376 661 376 743 q 376 496 376 579 l 376 389 m 292 1086 q 322 1156 292 1131 q 393 1182 353 1182 q 465 1156 435 1182 q 496 1086 496 1131 q 465 1016 496 1042 q 393 990 435 990 q 322 1016 353 990 q 292 1086 292 1042 m 547 1171 l 507 1225 l 607 1349 q 651 1388 631 1376 q 694 1400 672 1400 q 745 1378 726 1400 q 764 1331 764 1356 q 751 1291 764 1313 q 694 1247 738 1269 l 547 1171 m 638 1086 q 668 1156 638 1131 q 739 1182 699 1182 q 811 1156 781 1182 q 842 1086 842 1131 q 811 1016 842 1042 q 739 990 781 990 q 668 1016 699 990 q 638 1086 638 1042 z "},"Ǚ":{"ha":1015,"x_min":40,"x_max":979,"o":"m 376 389 q 389 254 376 310 q 426 165 401 199 q 488 115 451 131 q 575 100 525 100 q 721 168 668 100 q 774 393 774 236 l 774 826 l 647 838 l 647 913 l 979 913 l 979 838 l 864 828 l 864 393 q 839 203 864 282 q 767 73 814 124 q 653 -2 721 22 q 499 -26 585 -26 q 356 -6 421 -26 q 244 58 292 14 q 169 173 196 103 q 143 344 143 243 l 143 496 q 143 662 143 579 q 140 828 143 744 l 40 838 l 40 913 l 493 913 l 493 838 l 378 826 q 376 661 376 743 q 376 496 376 579 l 376 389 m 393 990 q 322 1016 353 990 q 292 1086 292 1042 q 322 1156 292 1131 q 393 1182 353 1182 q 465 1156 435 1182 q 496 1086 496 1131 q 465 1016 496 1042 q 393 990 435 990 m 739 990 q 668 1016 699 990 q 638 1086 638 1042 q 668 1156 638 1131 q 739 1182 699 1182 q 811 1156 781 1182 q 842 1086 842 1131 q 811 1016 842 1042 q 739 990 781 990 m 375 1425 l 567 1300 l 758 1425 l 806 1381 l 626 1175 l 507 1175 l 329 1381 l 375 1425 z "},"Ǜ":{"ha":1015,"x_min":40,"x_max":979,"o":"m 376 389 q 389 254 376 310 q 426 165 401 199 q 488 115 451 131 q 575 100 525 100 q 721 168 668 100 q 774 393 774 236 l 774 826 l 647 838 l 647 913 l 979 913 l 979 838 l 864 828 l 864 393 q 839 203 864 282 q 767 73 814 124 q 653 -2 721 22 q 499 -26 585 -26 q 356 -6 421 -26 q 244 58 292 14 q 169 173 196 103 q 143 344 143 243 l 143 496 q 143 662 143 579 q 140 828 143 744 l 40 838 l 40 913 l 493 913 l 493 838 l 378 826 q 376 661 376 743 q 376 496 376 579 l 376 389 m 292 1086 q 322 1156 292 1131 q 393 1182 353 1182 q 465 1156 433 1182 q 496 1086 496 1131 q 465 1016 496 1042 q 393 990 433 990 q 322 1016 353 990 q 292 1086 292 1042 m 440 1247 q 383 1290 397 1269 q 369 1329 369 1311 q 389 1378 369 1356 q 439 1400 408 1400 q 483 1388 463 1400 q 528 1349 504 1376 l 628 1225 l 588 1171 l 440 1247 m 638 1086 q 668 1156 638 1131 q 739 1182 699 1182 q 810 1156 779 1182 q 842 1086 842 1131 q 810 1016 842 1042 q 739 990 779 990 q 668 1016 699 990 q 638 1086 638 1042 z "},"Ǖ":{"ha":1015,"x_min":40,"x_max":979,"o":"m 376 389 q 389 254 376 310 q 426 165 401 199 q 488 115 451 131 q 575 100 525 100 q 721 168 668 100 q 774 393 774 236 l 774 826 l 647 838 l 647 913 l 979 913 l 979 838 l 864 828 l 864 393 q 839 203 864 282 q 767 73 814 124 q 653 -2 721 22 q 499 -26 585 -26 q 356 -6 421 -26 q 244 58 292 14 q 169 173 196 103 q 143 344 143 243 l 143 496 q 143 662 143 579 q 140 828 143 744 l 40 838 l 40 913 l 493 913 l 493 838 l 378 826 q 376 661 376 743 q 376 496 376 579 l 376 389 m 393 990 q 322 1016 353 990 q 292 1086 292 1042 q 322 1156 292 1131 q 393 1182 353 1182 q 465 1156 435 1182 q 496 1086 496 1131 q 465 1016 496 1042 q 393 990 435 990 m 739 990 q 668 1016 699 990 q 638 1086 638 1042 q 668 1156 638 1131 q 739 1182 699 1182 q 811 1156 781 1182 q 842 1086 842 1131 q 811 1016 842 1042 q 739 990 781 990 m 343 1236 l 343 1360 l 790 1360 l 790 1236 l 343 1236 z "},"Ụ":{"ha":1015,"x_min":40,"x_max":979,"o":"m 376 389 q 389 254 376 310 q 426 165 401 199 q 488 115 451 131 q 575 100 525 100 q 721 168 668 100 q 774 393 774 236 l 774 826 l 647 838 l 647 913 l 979 913 l 979 838 l 864 828 l 864 393 q 839 203 864 282 q 767 73 814 124 q 653 -2 721 22 q 499 -26 585 -26 q 356 -6 421 -26 q 244 58 292 14 q 169 173 196 103 q 143 344 143 243 l 143 496 q 143 662 143 579 q 140 828 143 744 l 40 838 l 40 913 l 493 913 l 493 838 l 378 826 q 376 661 376 743 q 376 496 376 579 l 376 389 m 515 -312 q 432 -282 467 -312 q 397 -203 397 -251 q 432 -123 397 -154 q 515 -92 467 -92 q 599 -123 564 -92 q 633 -203 633 -154 q 599 -282 633 -251 q 515 -312 564 -312 z "},"Ủ":{"ha":1015,"x_min":40,"x_max":979,"o":"m 376 389 q 389 254 376 310 q 426 165 401 199 q 488 115 451 131 q 575 100 525 100 q 721 168 668 100 q 774 393 774 236 l 774 826 l 647 838 l 647 913 l 979 913 l 979 838 l 864 828 l 864 393 q 839 203 864 282 q 767 73 814 124 q 653 -2 721 22 q 499 -26 585 -26 q 356 -6 421 -26 q 244 58 292 14 q 169 173 196 103 q 143 344 143 243 l 143 496 q 143 662 143 579 q 140 828 143 744 l 40 838 l 40 913 l 493 913 l 493 838 l 378 826 q 376 661 376 743 q 376 496 376 579 l 376 389 m 531 983 l 518 1042 q 578 1061 565 1051 q 592 1082 592 1071 q 567 1107 592 1097 q 478 1122 542 1117 l 490 1261 q 699 1111 699 1244 q 655 1025 699 1057 q 531 983 611 993 z "},"Ư":{"ha":1015,"x_min":40,"x_max":1051,"o":"m 376 389 q 389 254 376 310 q 426 165 401 199 q 488 115 451 131 q 575 100 525 100 q 721 168 668 100 q 774 393 774 236 l 774 826 l 647 838 l 647 913 l 864 913 l 864 832 q 919 867 900 844 q 939 918 939 889 q 931 948 939 935 q 915 974 924 961 q 899 1003 907 988 q 892 1039 892 1018 q 914 1088 892 1067 q 971 1110 936 1110 q 1006 1105 990 1110 q 1036 1088 1021 1100 q 1049 1050 1046 1067 q 1051 1013 1051 1033 q 1037 926 1051 967 q 997 854 1022 886 q 937 800 971 822 q 864 767 903 778 l 864 393 q 839 203 864 282 q 767 73 814 124 q 653 -2 721 22 q 499 -26 585 -26 q 356 -6 421 -26 q 244 58 292 14 q 169 173 196 103 q 143 344 143 243 l 143 496 q 143 662 143 579 q 140 828 143 744 l 40 838 l 40 913 l 493 913 l 493 838 l 378 826 q 376 661 376 743 q 376 496 376 579 l 376 389 z "},"Ứ":{"ha":1015,"x_min":40,"x_max":1051,"o":"m 376 389 q 389 254 376 310 q 426 165 401 199 q 488 115 451 131 q 575 100 525 100 q 721 168 668 100 q 774 393 774 236 l 774 826 l 647 838 l 647 913 l 864 913 l 864 832 q 919 867 900 844 q 939 918 939 889 q 931 948 939 935 q 915 974 924 961 q 899 1003 907 988 q 892 1039 892 1018 q 914 1088 892 1067 q 971 1110 936 1110 q 1006 1105 990 1110 q 1036 1088 1021 1100 q 1049 1050 1046 1067 q 1051 1013 1051 1033 q 1037 926 1051 967 q 997 854 1022 886 q 937 800 971 822 q 864 767 903 778 l 864 393 q 839 203 864 282 q 767 73 814 124 q 653 -2 721 22 q 499 -26 585 -26 q 356 -6 421 -26 q 244 58 292 14 q 169 173 196 103 q 143 344 143 243 l 143 496 q 143 662 143 579 q 140 828 143 744 l 40 838 l 40 913 l 493 913 l 493 838 l 378 826 q 376 661 376 743 q 376 496 376 579 l 376 389 m 475 1019 q 553 1094 514 1057 q 629 1167 592 1131 q 685 1210 663 1199 q 732 1222 708 1222 q 787 1201 765 1222 q 808 1151 808 1179 q 793 1108 808 1132 q 729 1061 778 1083 q 621 1013 675 1036 q 514 965 567 989 l 475 1019 z "},"Ự":{"ha":1015,"x_min":40,"x_max":1051,"o":"m 376 389 q 389 254 376 310 q 426 165 401 199 q 488 115 451 131 q 575 100 525 100 q 721 168 668 100 q 774 393 774 236 l 774 826 l 647 838 l 647 913 l 864 913 l 864 832 q 919 867 900 844 q 939 918 939 889 q 931 948 939 935 q 915 974 924 961 q 899 1003 907 988 q 892 1039 892 1018 q 914 1088 892 1067 q 971 1110 936 1110 q 1006 1105 990 1110 q 1036 1088 1021 1100 q 1049 1050 1046 1067 q 1051 1013 1051 1033 q 1037 926 1051 967 q 997 854 1022 886 q 937 800 971 822 q 864 767 903 778 l 864 393 q 839 203 864 282 q 767 73 814 124 q 653 -2 721 22 q 499 -26 585 -26 q 356 -6 421 -26 q 244 58 292 14 q 169 173 196 103 q 143 344 143 243 l 143 496 q 143 662 143 579 q 140 828 143 744 l 40 838 l 40 913 l 493 913 l 493 838 l 378 826 q 376 661 376 743 q 376 496 376 579 l 376 389 m 503 -312 q 419 -282 454 -312 q 385 -203 385 -251 q 419 -123 385 -154 q 503 -92 454 -92 q 586 -123 551 -92 q 621 -203 621 -154 q 586 -282 621 -251 q 503 -312 551 -312 z "},"Ừ":{"ha":1015,"x_min":40,"x_max":1051,"o":"m 376 389 q 389 254 376 310 q 426 165 401 199 q 488 115 451 131 q 575 100 525 100 q 721 168 668 100 q 774 393 774 236 l 774 826 l 647 838 l 647 913 l 864 913 l 864 832 q 919 867 900 844 q 939 918 939 889 q 931 948 939 935 q 915 974 924 961 q 899 1003 907 988 q 892 1039 892 1018 q 914 1088 892 1067 q 971 1110 936 1110 q 1006 1105 990 1110 q 1036 1088 1021 1100 q 1049 1050 1046 1067 q 1051 1013 1051 1033 q 1037 926 1051 967 q 997 854 1022 886 q 937 800 971 822 q 864 767 903 778 l 864 393 q 839 203 864 282 q 767 73 814 124 q 653 -2 721 22 q 499 -26 585 -26 q 356 -6 421 -26 q 244 58 292 14 q 169 173 196 103 q 143 344 143 243 l 143 496 q 143 662 143 579 q 140 828 143 744 l 40 838 l 40 913 l 493 913 l 493 838 l 378 826 q 376 661 376 743 q 376 496 376 579 l 376 389 m 619 1019 l 581 965 q 474 1012 528 989 q 367 1058 421 1035 q 301 1107 317 1082 q 286 1151 286 1132 q 308 1201 286 1179 q 363 1222 329 1222 q 409 1210 386 1222 q 465 1167 432 1199 q 541 1095 501 1132 q 619 1019 581 1058 z "},"Ử":{"ha":1015,"x_min":40,"x_max":1051,"o":"m 376 389 q 389 254 376 310 q 426 165 401 199 q 488 115 451 131 q 575 100 525 100 q 721 168 668 100 q 774 393 774 236 l 774 826 l 647 838 l 647 913 l 864 913 l 864 832 q 919 867 900 844 q 939 918 939 889 q 931 948 939 935 q 915 974 924 961 q 899 1003 907 988 q 892 1039 892 1018 q 914 1088 892 1067 q 971 1110 936 1110 q 1006 1105 990 1110 q 1036 1088 1021 1100 q 1049 1050 1046 1067 q 1051 1013 1051 1033 q 1037 926 1051 967 q 997 854 1022 886 q 937 800 971 822 q 864 767 903 778 l 864 393 q 839 203 864 282 q 767 73 814 124 q 653 -2 721 22 q 499 -26 585 -26 q 356 -6 421 -26 q 244 58 292 14 q 169 173 196 103 q 143 344 143 243 l 143 496 q 143 662 143 579 q 140 828 143 744 l 40 838 l 40 913 l 493 913 l 493 838 l 378 826 q 376 661 376 743 q 376 496 376 579 l 376 389 m 549 983 l 536 1042 q 597 1061 583 1051 q 610 1082 610 1071 q 585 1107 610 1097 q 496 1122 560 1117 l 508 1261 q 717 1111 717 1244 q 673 1025 717 1057 q 549 983 629 993 z "},"Ữ":{"ha":1015,"x_min":40,"x_max":1051,"o":"m 376 389 q 389 254 376 310 q 426 165 401 199 q 488 115 451 131 q 575 100 525 100 q 721 168 668 100 q 774 393 774 236 l 774 826 l 647 838 l 647 913 l 864 913 l 864 832 q 919 867 900 844 q 939 918 939 889 q 931 948 939 935 q 915 974 924 961 q 899 1003 907 988 q 892 1039 892 1018 q 914 1088 892 1067 q 971 1110 936 1110 q 1006 1105 990 1110 q 1036 1088 1021 1100 q 1049 1050 1046 1067 q 1051 1013 1051 1033 q 1037 926 1051 967 q 997 854 1022 886 q 937 800 971 822 q 864 767 903 778 l 864 393 q 839 203 864 282 q 767 73 814 124 q 653 -2 721 22 q 499 -26 585 -26 q 356 -6 421 -26 q 244 58 292 14 q 169 173 196 103 q 143 344 143 243 l 143 496 q 143 662 143 579 q 140 828 143 744 l 40 838 l 40 913 l 493 913 l 493 838 l 378 826 q 376 661 376 743 q 376 496 376 579 l 376 389 m 311 1000 q 365 1142 322 1092 q 469 1193 407 1193 q 527 1182 503 1193 q 575 1156 551 1171 q 619 1126 596 1140 q 668 1111 642 1111 q 722 1133 700 1111 q 757 1194 743 1156 l 815 1171 q 762 1028 804 1079 q 660 976 719 976 q 600 988 628 976 q 550 1014 572 999 q 507 1044 529 1029 q 457 1058 485 1058 q 404 1036 425 1058 q 369 976 383 1014 l 311 1000 z "},"Ũ":{"ha":1015,"x_min":40,"x_max":979,"o":"m 376 389 q 389 254 376 310 q 426 165 401 199 q 488 115 451 131 q 575 100 525 100 q 721 168 668 100 q 774 393 774 236 l 774 826 l 647 838 l 647 913 l 979 913 l 979 838 l 864 828 l 864 393 q 839 203 864 282 q 767 73 814 124 q 653 -2 721 22 q 499 -26 585 -26 q 356 -6 421 -26 q 244 58 292 14 q 169 173 196 103 q 143 344 143 243 l 143 496 q 143 662 143 579 q 140 828 143 744 l 40 838 l 40 913 l 493 913 l 493 838 l 378 826 q 376 661 376 743 q 376 496 376 579 l 376 389 m 311 1000 q 365 1142 322 1092 q 469 1193 407 1193 q 527 1182 503 1193 q 575 1156 551 1171 q 619 1126 596 1140 q 668 1111 642 1111 q 722 1133 700 1111 q 757 1194 743 1156 l 815 1171 q 762 1028 804 1079 q 660 976 719 976 q 600 988 628 976 q 550 1014 572 999 q 507 1044 529 1029 q 457 1058 485 1058 q 404 1036 425 1058 q 369 976 383 1014 l 311 1000 z "},"Ẃ":{"ha":1363,"x_min":11,"x_max":1358,"o":"m 869 -3 l 674 631 l 481 -3 l 344 -3 l 96 829 l 11 838 l 11 913 l 442 913 l 442 838 l 340 826 l 482 264 l 649 825 l 547 838 l 547 913 l 964 913 l 964 838 l 842 822 l 1003 257 l 1163 822 l 1065 838 l 1065 913 l 1358 913 l 1358 838 l 1250 819 l 1006 -3 l 869 -3 m 671 1019 q 749 1094 710 1057 q 825 1167 788 1131 q 881 1210 858 1199 q 928 1222 904 1222 q 983 1201 961 1222 q 1004 1151 1004 1179 q 989 1108 1004 1132 q 925 1061 974 1083 q 817 1013 871 1036 q 710 965 763 989 l 671 1019 z "},"Ŵ":{"ha":1363,"x_min":11,"x_max":1358,"o":"m 869 -3 l 674 631 l 481 -3 l 344 -3 l 96 829 l 11 838 l 11 913 l 442 913 l 442 838 l 340 826 l 482 264 l 649 825 l 547 838 l 547 913 l 964 913 l 964 838 l 842 822 l 1003 257 l 1163 822 l 1065 838 l 1065 913 l 1358 913 l 1358 838 l 1250 819 l 1006 -3 l 869 -3 m 790 1214 l 999 1004 l 957 954 l 743 1072 l 529 954 l 488 1004 l 696 1214 l 790 1214 z "},"Ẅ":{"ha":1363,"x_min":11,"x_max":1358,"o":"m 869 -3 l 674 631 l 481 -3 l 344 -3 l 96 829 l 11 838 l 11 913 l 442 913 l 442 838 l 340 826 l 482 264 l 649 825 l 547 838 l 547 913 l 964 913 l 964 838 l 842 822 l 1003 257 l 1163 822 l 1065 838 l 1065 913 l 1358 913 l 1358 838 l 1250 819 l 1006 -3 l 869 -3 m 571 990 q 500 1016 531 990 q 469 1086 469 1042 q 500 1156 469 1131 q 571 1182 531 1182 q 643 1156 613 1182 q 674 1086 674 1131 q 643 1016 674 1042 q 571 990 613 990 m 917 990 q 846 1016 876 990 q 815 1086 815 1042 q 846 1156 815 1131 q 917 1182 876 1182 q 989 1156 958 1182 q 1019 1086 1019 1131 q 989 1016 1019 1042 q 917 990 958 990 z "},"Ẁ":{"ha":1363,"x_min":11,"x_max":1358,"o":"m 869 -3 l 674 631 l 481 -3 l 344 -3 l 96 829 l 11 838 l 11 913 l 442 913 l 442 838 l 340 826 l 482 264 l 649 825 l 547 838 l 547 913 l 964 913 l 964 838 l 842 822 l 1003 257 l 1163 822 l 1065 838 l 1065 913 l 1358 913 l 1358 838 l 1250 819 l 1006 -3 l 869 -3 m 819 1019 l 781 965 q 674 1012 728 989 q 567 1058 621 1035 q 501 1107 517 1082 q 486 1151 486 1132 q 508 1201 486 1179 q 563 1222 529 1222 q 609 1210 586 1222 q 665 1167 632 1199 q 741 1095 701 1132 q 819 1019 781 1058 z "},"Ý":{"ha":867,"x_min":11,"x_max":864,"o":"m 675 0 l 199 0 l 199 75 l 318 88 q 319 207 319 144 q 319 358 319 269 l 89 829 l 11 838 l 11 913 l 458 913 l 458 838 l 354 825 l 513 474 l 672 822 l 576 838 l 576 913 l 864 913 l 864 838 l 763 821 l 553 394 q 553 299 553 342 q 553 219 553 256 q 553 151 553 183 q 554 88 554 118 l 675 75 l 675 0 m 413 1015 q 490 1090 451 1053 q 567 1163 529 1126 q 623 1206 600 1194 q 669 1218 646 1218 q 724 1197 703 1218 q 746 1147 746 1175 q 731 1103 746 1128 q 667 1057 715 1079 q 558 1008 613 1032 q 451 961 504 985 l 413 1015 z "},"Ÿ":{"ha":867,"x_min":11,"x_max":864,"o":"m 675 0 l 199 0 l 199 75 l 318 88 q 319 207 319 144 q 319 358 319 269 l 89 829 l 11 838 l 11 913 l 458 913 l 458 838 l 354 825 l 513 474 l 672 822 l 576 838 l 576 913 l 864 913 l 864 838 l 763 821 l 553 394 q 553 299 553 342 q 553 219 553 256 q 553 151 553 183 q 554 88 554 118 l 675 75 l 675 0 m 336 990 q 265 1016 296 990 q 235 1086 235 1042 q 265 1156 235 1131 q 336 1182 296 1182 q 408 1156 378 1182 q 439 1086 439 1131 q 408 1016 439 1042 q 336 990 378 990 m 682 990 q 611 1016 642 990 q 581 1086 581 1042 q 611 1156 581 1131 q 682 1182 642 1182 q 754 1156 724 1182 q 785 1086 785 1131 q 754 1016 785 1042 q 682 990 724 990 z "},"Ŷ":{"ha":867,"x_min":11,"x_max":864,"o":"m 675 0 l 199 0 l 199 75 l 318 88 q 319 207 319 144 q 319 358 319 269 l 89 829 l 11 838 l 11 913 l 458 913 l 458 838 l 354 825 l 513 474 l 672 822 l 576 838 l 576 913 l 864 913 l 864 838 l 763 821 l 553 394 q 553 299 553 342 q 553 219 553 256 q 553 151 553 183 q 554 88 554 118 l 675 75 l 675 0 m 550 1214 l 758 1004 l 717 954 l 503 1072 l 289 954 l 247 1004 l 456 1214 l 550 1214 z "},"Ẏ":{"ha":867,"x_min":11,"x_max":864,"o":"m 675 0 l 199 0 l 199 75 l 318 88 q 319 207 319 144 q 319 358 319 269 l 89 829 l 11 838 l 11 913 l 458 913 l 458 838 l 354 825 l 513 474 l 672 822 l 576 838 l 576 913 l 864 913 l 864 838 l 763 821 l 553 394 q 553 299 553 342 q 553 219 553 256 q 553 151 553 183 q 554 88 554 118 l 675 75 l 675 0 m 514 985 q 431 1016 465 985 q 396 1096 396 1047 q 431 1175 396 1144 q 514 1206 465 1206 q 597 1175 563 1206 q 632 1096 632 1144 q 597 1016 632 1047 q 514 985 563 985 z "},"Ỵ":{"ha":867,"x_min":11,"x_max":864,"o":"m 675 0 l 199 0 l 199 75 l 318 88 q 319 207 319 144 q 319 358 319 269 l 89 829 l 11 838 l 11 913 l 458 913 l 458 838 l 354 825 l 513 474 l 672 822 l 576 838 l 576 913 l 864 913 l 864 838 l 763 821 l 553 394 q 553 299 553 342 q 553 219 553 256 q 553 151 553 183 q 554 88 554 118 l 675 75 l 675 0 m 436 -312 q 353 -282 388 -312 q 318 -203 318 -251 q 353 -123 318 -154 q 436 -92 388 -92 q 519 -123 485 -92 q 554 -203 554 -154 q 519 -282 554 -251 q 436 -312 485 -312 z "},"Ỳ":{"ha":867,"x_min":11,"x_max":864,"o":"m 675 0 l 199 0 l 199 75 l 318 88 q 319 207 319 144 q 319 358 319 269 l 89 829 l 11 838 l 11 913 l 458 913 l 458 838 l 354 825 l 513 474 l 672 822 l 576 838 l 576 913 l 864 913 l 864 838 l 763 821 l 553 394 q 553 299 553 342 q 553 219 553 256 q 553 151 553 183 q 554 88 554 118 l 675 75 l 675 0 m 558 1019 l 519 965 q 413 1012 467 989 q 306 1058 360 1035 q 240 1107 256 1082 q 225 1151 225 1132 q 247 1201 225 1179 q 301 1222 268 1222 q 348 1210 325 1222 q 404 1167 371 1199 q 480 1095 440 1132 q 558 1019 519 1058 z "},"Ỷ":{"ha":867,"x_min":11,"x_max":864,"o":"m 675 0 l 199 0 l 199 75 l 318 88 q 319 207 319 144 q 319 358 319 269 l 89 829 l 11 838 l 11 913 l 458 913 l 458 838 l 354 825 l 513 474 l 672 822 l 576 838 l 576 913 l 864 913 l 864 838 l 763 821 l 553 394 q 553 299 553 342 q 553 219 553 256 q 553 151 553 183 q 554 88 554 118 l 675 75 l 675 0 m 468 974 l 456 1032 q 516 1051 503 1042 q 529 1072 529 1061 q 504 1097 529 1088 q 415 1113 479 1107 l 428 1251 q 636 1101 636 1235 q 592 1015 636 1047 q 468 974 549 983 z "},"Ỹ":{"ha":867,"x_min":11,"x_max":864,"o":"m 675 0 l 199 0 l 199 75 l 318 88 q 319 207 319 144 q 319 358 319 269 l 89 829 l 11 838 l 11 913 l 458 913 l 458 838 l 354 825 l 513 474 l 672 822 l 576 838 l 576 913 l 864 913 l 864 838 l 763 821 l 553 394 q 553 299 553 342 q 553 219 553 256 q 553 151 553 183 q 554 88 554 118 l 675 75 l 675 0 m 233 1000 q 287 1142 244 1092 q 392 1193 329 1193 q 449 1182 425 1193 q 497 1156 474 1171 q 541 1126 518 1140 q 590 1111 564 1111 q 644 1133 622 1111 q 679 1194 665 1156 l 738 1171 q 684 1028 726 1079 q 582 976 642 976 q 522 988 550 976 q 472 1014 494 999 q 429 1044 451 1029 q 379 1058 407 1058 q 326 1036 347 1058 q 292 976 306 1014 l 233 1000 z "},"Ź":{"ha":782,"x_min":28,"x_max":754,"o":"m 643 258 l 754 258 l 743 0 l 28 0 l 28 64 l 474 833 l 188 833 l 151 654 l 42 654 l 53 913 l 740 913 l 740 849 l 293 79 l 607 79 l 643 258 m 347 1019 q 425 1094 386 1057 q 501 1167 464 1131 q 558 1210 535 1199 q 604 1222 581 1222 q 659 1201 638 1222 q 681 1151 681 1179 q 665 1108 681 1132 q 601 1061 650 1083 q 493 1013 547 1036 q 386 965 439 989 l 347 1019 z "},"Ž":{"ha":782,"x_min":28,"x_max":754,"o":"m 643 258 l 754 258 l 743 0 l 28 0 l 28 64 l 474 833 l 188 833 l 151 654 l 42 654 l 53 913 l 740 913 l 740 849 l 293 79 l 607 79 l 643 258 m 233 1229 l 425 1104 l 617 1229 l 664 1185 l 485 979 l 365 979 l 188 1185 l 233 1229 z "},"Ż":{"ha":782,"x_min":28,"x_max":754,"o":"m 643 258 l 754 258 l 743 0 l 28 0 l 28 64 l 474 833 l 188 833 l 151 654 l 42 654 l 53 913 l 740 913 l 740 849 l 293 79 l 607 79 l 643 258 m 431 985 q 347 1016 382 985 q 313 1096 313 1047 q 347 1175 313 1144 q 431 1206 382 1206 q 514 1175 479 1206 q 549 1096 549 1144 q 514 1016 549 1047 q 431 985 479 985 z "},"Ẓ":{"ha":782,"x_min":28,"x_max":754,"o":"m 643 258 l 754 258 l 743 0 l 28 0 l 28 64 l 474 833 l 188 833 l 151 654 l 42 654 l 53 913 l 740 913 l 740 849 l 293 79 l 607 79 l 643 258 m 407 -312 q 324 -282 358 -312 q 289 -203 289 -251 q 324 -123 289 -154 q 407 -92 358 -92 q 490 -123 456 -92 q 525 -203 525 -154 q 490 -282 525 -251 q 407 -312 456 -312 z "},"Ð":{"ha":979,"x_min":46,"x_max":932,"o":"m 547 428 l 386 428 q 386 248 386 332 q 389 81 386 164 l 435 81 q 623 178 554 81 q 692 457 692 275 q 623 737 692 642 q 436 832 554 832 l 389 832 q 386 661 386 744 q 386 508 386 578 l 547 508 l 547 428 m 46 0 l 46 75 l 150 86 q 153 257 153 171 q 153 428 153 343 l 46 428 l 46 508 l 153 508 q 153 667 153 588 q 150 826 153 747 l 46 838 l 46 913 l 458 913 q 657 881 569 913 q 806 791 744 850 q 899 648 867 732 q 932 458 932 564 q 897 265 932 350 q 797 121 861 179 q 640 31 732 63 q 433 0 547 0 l 46 0 z "},"Þ":{"ha":864,"x_min":46,"x_max":839,"o":"m 153 431 l 153 482 q 153 653 153 568 q 150 826 153 739 l 46 838 l 46 913 l 500 913 l 500 838 l 383 825 q 382 785 382 806 q 382 743 382 764 l 433 743 q 620 725 543 743 q 746 672 697 707 q 817 588 794 638 q 839 476 839 539 q 819 364 839 415 q 750 275 799 313 q 620 216 701 238 q 417 194 539 194 l 381 194 q 382 141 382 167 q 383 88 382 115 l 500 75 l 500 0 l 46 0 l 46 75 l 150 86 q 153 257 153 171 q 153 431 153 343 m 381 432 l 381 275 l 424 275 q 568 329 515 275 q 621 471 621 383 q 573 613 621 563 q 425 663 525 663 l 381 663 l 381 483 l 381 432 z "},"Ə":{"ha":921,"x_min":47,"x_max":875,"o":"m 47 385 q 49 450 47 421 q 56 507 50 479 l 629 507 q 561 758 621 675 q 393 840 501 840 q 263 813 324 840 q 158 742 203 786 l 115 797 q 256 903 174 868 q 431 939 339 939 q 610 906 528 939 q 751 813 692 874 q 842 662 810 751 q 875 460 875 572 q 840 247 875 339 q 749 95 806 156 q 616 4 692 35 q 460 -26 540 -26 q 280 4 357 -26 q 151 90 203 35 q 73 220 99 144 q 47 385 47 296 m 464 54 q 584 144 540 54 q 631 425 628 235 l 296 425 q 290 370 292 397 q 289 311 289 343 q 303 197 289 244 q 340 117 317 149 q 396 69 364 85 q 464 54 428 54 z "},"à":{"ha":738,"x_min":43,"x_max":743,"o":"m 332 92 q 370 101 351 92 q 417 129 389 110 l 417 356 q 381 343 397 349 q 351 332 364 338 q 276 277 304 313 q 249 193 249 242 q 272 116 249 140 q 332 92 296 92 m 576 -19 q 477 6 515 -19 q 424 81 439 32 q 381 38 401 57 q 338 6 361 19 q 288 -14 315 -7 q 225 -21 261 -21 q 94 24 144 -21 q 43 157 43 69 q 55 226 43 194 q 97 285 67 257 q 178 339 126 314 q 311 388 231 364 q 360 401 332 394 q 417 415 388 408 l 417 461 q 412 538 417 507 q 394 588 407 569 q 359 613 381 606 q 304 621 338 621 q 286 621 294 621 q 267 619 278 621 l 260 558 q 228 459 257 489 q 158 429 199 429 q 65 499 82 429 q 152 640 71 586 q 385 693 233 693 q 576 631 518 693 q 633 431 633 569 l 633 119 q 664 79 633 79 q 685 85 675 79 q 706 110 694 92 l 743 85 q 678 4 718 28 q 576 -19 639 -19 m 450 811 l 397 768 q 369 789 383 778 q 338 814 356 800 q 297 844 319 828 q 243 885 274 861 q 179 943 203 917 q 156 1001 156 969 q 180 1058 156 1038 q 232 1078 204 1078 q 290 1058 267 1078 q 340 992 313 1038 q 378 929 363 956 q 408 882 394 903 q 431 844 421 861 q 450 811 440 828 z "},"á":{"ha":738,"x_min":43,"x_max":743,"o":"m 332 92 q 370 101 351 92 q 417 129 389 110 l 417 356 q 381 343 397 349 q 351 332 364 338 q 276 277 304 313 q 249 193 249 242 q 272 116 249 140 q 332 92 296 92 m 576 -19 q 477 6 515 -19 q 424 81 439 32 q 381 38 401 57 q 338 6 361 19 q 288 -14 315 -7 q 225 -21 261 -21 q 94 24 144 -21 q 43 157 43 69 q 55 226 43 194 q 97 285 67 257 q 178 339 126 314 q 311 388 231 364 q 360 401 332 394 q 417 415 388 408 l 417 461 q 412 538 417 507 q 394 588 407 569 q 359 613 381 606 q 304 621 338 621 q 286 621 294 621 q 267 619 278 621 l 260 558 q 228 459 257 489 q 158 429 199 429 q 65 499 82 429 q 152 640 71 586 q 385 693 233 693 q 576 631 518 693 q 633 431 633 569 l 633 119 q 664 79 633 79 q 685 85 675 79 q 706 110 694 92 l 743 85 q 678 4 718 28 q 576 -19 639 -19 m 286 811 q 304 843 294 826 q 326 881 314 860 q 356 928 339 901 q 394 990 372 954 q 446 1058 422 1038 q 504 1078 469 1078 q 556 1058 532 1078 q 579 1001 579 1038 q 556 942 579 969 q 492 885 533 915 q 439 844 461 861 q 399 814 417 828 q 367 789 381 800 q 339 768 353 778 l 286 811 z "},"â":{"ha":738,"x_min":43,"x_max":743,"o":"m 332 92 q 370 101 351 92 q 417 129 389 110 l 417 356 q 381 343 397 349 q 351 332 364 338 q 276 277 304 313 q 249 193 249 242 q 272 116 249 140 q 332 92 296 92 m 576 -19 q 477 6 515 -19 q 424 81 439 32 q 381 38 401 57 q 338 6 361 19 q 288 -14 315 -7 q 225 -21 261 -21 q 94 24 144 -21 q 43 157 43 69 q 55 226 43 194 q 97 285 67 257 q 178 339 126 314 q 311 388 231 364 q 360 401 332 394 q 417 415 388 408 l 417 461 q 412 538 417 507 q 394 588 407 569 q 359 613 381 606 q 304 621 338 621 q 286 621 294 621 q 267 619 278 621 l 260 558 q 228 459 257 489 q 158 429 199 429 q 65 499 82 429 q 152 640 71 586 q 385 693 233 693 q 576 631 518 693 q 633 431 633 569 l 633 119 q 664 79 633 79 q 685 85 675 79 q 706 110 694 92 l 743 85 q 678 4 718 28 q 576 -19 639 -19 m 564 757 l 378 900 l 192 757 l 142 803 l 333 1046 l 422 1046 l 614 803 l 564 757 z "},"ã":{"ha":738,"x_min":43,"x_max":743,"o":"m 332 92 q 370 101 351 92 q 417 129 389 110 l 417 356 q 381 343 397 349 q 351 332 364 338 q 276 277 304 313 q 249 193 249 242 q 272 116 249 140 q 332 92 296 92 m 576 -19 q 477 6 515 -19 q 424 81 439 32 q 381 38 401 57 q 338 6 361 19 q 288 -14 315 -7 q 225 -21 261 -21 q 94 24 144 -21 q 43 157 43 69 q 55 226 43 194 q 97 285 67 257 q 178 339 126 314 q 311 388 231 364 q 360 401 332 394 q 417 415 388 408 l 417 461 q 412 538 417 507 q 394 588 407 569 q 359 613 381 606 q 304 621 338 621 q 286 621 294 621 q 267 619 278 621 l 260 558 q 228 459 257 489 q 158 429 199 429 q 65 499 82 429 q 152 640 71 586 q 385 693 233 693 q 576 631 518 693 q 633 431 633 569 l 633 119 q 664 79 633 79 q 685 85 675 79 q 706 110 694 92 l 743 85 q 678 4 718 28 q 576 -19 639 -19 m 118 817 q 171 960 129 910 q 274 1010 213 1010 q 329 999 306 1010 q 376 972 353 988 q 418 943 396 957 q 467 929 440 929 q 518 951 497 929 q 553 1011 539 972 l 610 988 q 557 844 599 896 q 457 793 515 793 q 401 805 428 793 q 351 831 374 817 q 309 860 331 846 q 260 875 288 875 q 210 853 231 875 q 175 793 189 832 l 118 817 z "},"ä":{"ha":738,"x_min":43,"x_max":743,"o":"m 332 92 q 370 101 351 92 q 417 129 389 110 l 417 356 q 381 343 397 349 q 351 332 364 338 q 276 277 304 313 q 249 193 249 242 q 272 116 249 140 q 332 92 296 92 m 576 -19 q 477 6 515 -19 q 424 81 439 32 q 381 38 401 57 q 338 6 361 19 q 288 -14 315 -7 q 225 -21 261 -21 q 94 24 144 -21 q 43 157 43 69 q 55 226 43 194 q 97 285 67 257 q 178 339 126 314 q 311 388 231 364 q 360 401 332 394 q 417 415 388 408 l 417 461 q 412 538 417 507 q 394 588 407 569 q 359 613 381 606 q 304 621 338 621 q 286 621 294 621 q 267 619 278 621 l 260 558 q 228 459 257 489 q 158 429 199 429 q 65 499 82 429 q 152 640 71 586 q 385 693 233 693 q 576 631 518 693 q 633 431 633 569 l 633 119 q 664 79 633 79 q 685 85 675 79 q 706 110 694 92 l 743 85 q 678 4 718 28 q 576 -19 639 -19 m 533 799 q 459 825 492 799 q 426 900 426 851 q 459 974 426 947 q 533 1001 492 1001 q 608 974 576 1001 q 640 900 640 947 q 608 825 640 851 q 533 799 576 799 m 200 799 q 126 825 158 799 q 93 900 93 851 q 126 974 93 947 q 200 1001 158 1001 q 276 974 244 1001 q 307 900 307 947 q 276 825 307 851 q 200 799 244 799 z "},"ā":{"ha":738,"x_min":43,"x_max":743,"o":"m 332 92 q 370 101 351 92 q 417 129 389 110 l 417 356 q 381 343 397 349 q 351 332 364 338 q 276 277 304 313 q 249 193 249 242 q 272 116 249 140 q 332 92 296 92 m 576 -19 q 477 6 515 -19 q 424 81 439 32 q 381 38 401 57 q 338 6 361 19 q 288 -14 315 -7 q 225 -21 261 -21 q 94 24 144 -21 q 43 157 43 69 q 55 226 43 194 q 97 285 67 257 q 178 339 126 314 q 311 388 231 364 q 360 401 332 394 q 417 415 388 408 l 417 461 q 412 538 417 507 q 394 588 407 569 q 359 613 381 606 q 304 621 338 621 q 286 621 294 621 q 267 619 278 621 l 260 558 q 228 459 257 489 q 158 429 199 429 q 65 499 82 429 q 152 640 71 586 q 385 693 233 693 q 576 631 518 693 q 633 431 633 569 l 633 119 q 664 79 633 79 q 685 85 675 79 q 706 110 694 92 l 743 85 q 678 4 718 28 q 576 -19 639 -19 m 149 815 l 149 939 l 590 939 l 590 815 l 149 815 z "},"ă":{"ha":738,"x_min":43,"x_max":743,"o":"m 332 92 q 370 101 351 92 q 417 129 389 110 l 417 356 q 381 343 397 349 q 351 332 364 338 q 276 277 304 313 q 249 193 249 242 q 272 116 249 140 q 332 92 296 92 m 576 -19 q 477 6 515 -19 q 424 81 439 32 q 381 38 401 57 q 338 6 361 19 q 288 -14 315 -7 q 225 -21 261 -21 q 94 24 144 -21 q 43 157 43 69 q 55 226 43 194 q 97 285 67 257 q 178 339 126 314 q 311 388 231 364 q 360 401 332 394 q 417 415 388 408 l 417 461 q 412 538 417 507 q 394 588 407 569 q 359 613 381 606 q 304 621 338 621 q 286 621 294 621 q 267 619 278 621 l 260 558 q 228 459 257 489 q 158 429 199 429 q 65 499 82 429 q 152 640 71 586 q 385 693 233 693 q 576 631 518 693 q 633 431 633 569 l 633 119 q 664 79 633 79 q 685 85 675 79 q 706 110 694 92 l 743 85 q 678 4 718 28 q 576 -19 639 -19 m 144 1003 l 213 1024 q 272 937 235 972 q 369 901 308 901 q 469 938 431 901 q 526 1024 507 974 l 594 1003 q 578 928 592 967 q 539 859 565 890 q 471 807 513 828 q 369 786 429 786 q 268 807 310 786 q 200 859 226 828 q 160 928 174 890 q 144 1003 147 967 z "},"ắ":{"ha":738,"x_min":43,"x_max":743,"o":"m 332 92 q 370 101 351 92 q 417 129 389 110 l 417 356 q 381 343 397 349 q 351 332 364 338 q 276 277 304 313 q 249 193 249 242 q 272 116 249 140 q 332 92 296 92 m 576 -19 q 477 6 515 -19 q 424 81 439 32 q 381 38 401 57 q 338 6 361 19 q 288 -14 315 -7 q 225 -21 261 -21 q 94 24 144 -21 q 43 157 43 69 q 55 226 43 194 q 97 285 67 257 q 178 339 126 314 q 311 388 231 364 q 360 401 332 394 q 417 415 388 408 l 417 461 q 412 538 417 507 q 394 588 407 569 q 359 613 381 606 q 304 621 338 621 q 286 621 294 621 q 267 619 278 621 l 260 558 q 228 459 257 489 q 158 429 199 429 q 65 499 82 429 q 152 640 71 586 q 385 693 233 693 q 576 631 518 693 q 633 431 633 569 l 633 119 q 664 79 633 79 q 685 85 675 79 q 706 110 694 92 l 743 85 q 678 4 718 28 q 576 -19 639 -19 m 382 776 q 288 792 328 776 q 221 832 249 807 q 176 891 193 857 q 153 963 160 925 l 217 989 q 280 915 240 940 q 382 889 319 889 q 484 915 444 889 q 547 988 524 940 l 611 963 q 588 891 604 925 q 543 832 571 857 q 476 792 515 807 q 382 776 436 776 m 315 978 l 357 1072 q 392 1148 375 1118 q 424 1194 408 1178 q 455 1217 439 1211 q 488 1224 471 1224 q 536 1204 513 1224 q 560 1149 560 1185 q 554 1118 560 1133 q 535 1085 549 1103 q 497 1046 521 1068 q 438 996 474 1024 l 372 939 l 315 978 z "},"ặ":{"ha":738,"x_min":43,"x_max":743,"o":"m 332 92 q 370 101 351 92 q 417 129 389 110 l 417 356 q 381 343 397 349 q 351 332 364 338 q 276 277 304 313 q 249 193 249 242 q 272 116 249 140 q 332 92 296 92 m 576 -19 q 477 6 515 -19 q 424 81 439 32 q 381 38 401 57 q 338 6 361 19 q 288 -14 315 -7 q 225 -21 261 -21 q 94 24 144 -21 q 43 157 43 69 q 55 226 43 194 q 97 285 67 257 q 178 339 126 314 q 311 388 231 364 q 360 401 332 394 q 417 415 388 408 l 417 461 q 412 538 417 507 q 394 588 407 569 q 359 613 381 606 q 304 621 338 621 q 286 621 294 621 q 267 619 278 621 l 260 558 q 228 459 257 489 q 158 429 199 429 q 65 499 82 429 q 152 640 71 586 q 385 693 233 693 q 576 631 518 693 q 633 431 633 569 l 633 119 q 664 79 633 79 q 685 85 675 79 q 706 110 694 92 l 743 85 q 678 4 718 28 q 576 -19 639 -19 m 144 1003 l 213 1024 q 272 937 235 972 q 369 901 308 901 q 469 938 431 901 q 526 1024 507 974 l 594 1003 q 578 928 592 967 q 539 859 565 890 q 471 807 513 828 q 369 786 429 786 q 268 807 310 786 q 200 859 226 828 q 160 928 174 890 q 144 1003 147 967 m 363 -312 q 279 -282 314 -312 q 244 -203 244 -251 q 279 -123 244 -154 q 363 -92 314 -92 q 446 -123 411 -92 q 481 -203 481 -154 q 446 -282 481 -251 q 363 -312 411 -312 z "},"ằ":{"ha":738,"x_min":43,"x_max":743,"o":"m 332 92 q 370 101 351 92 q 417 129 389 110 l 417 356 q 381 343 397 349 q 351 332 364 338 q 276 277 304 313 q 249 193 249 242 q 272 116 249 140 q 332 92 296 92 m 576 -19 q 477 6 515 -19 q 424 81 439 32 q 381 38 401 57 q 338 6 361 19 q 288 -14 315 -7 q 225 -21 261 -21 q 94 24 144 -21 q 43 157 43 69 q 55 226 43 194 q 97 285 67 257 q 178 339 126 314 q 311 388 231 364 q 360 401 332 394 q 417 415 388 408 l 417 461 q 412 538 417 507 q 394 588 407 569 q 359 613 381 606 q 304 621 338 621 q 286 621 294 621 q 267 619 278 621 l 260 558 q 228 459 257 489 q 158 429 199 429 q 65 499 82 429 q 152 640 71 586 q 385 693 233 693 q 576 631 518 693 q 633 431 633 569 l 633 119 q 664 79 633 79 q 685 85 675 79 q 706 110 694 92 l 743 85 q 678 4 718 28 q 576 -19 639 -19 m 140 963 l 204 989 q 267 915 228 940 q 369 889 307 889 q 472 915 432 889 q 535 988 511 940 l 599 963 q 575 891 592 925 q 531 832 558 857 q 463 792 503 807 q 369 776 424 776 q 276 792 315 776 q 208 832 236 807 q 164 891 181 857 q 140 963 147 925 m 314 996 q 254 1046 278 1024 q 217 1085 231 1068 q 197 1118 203 1103 q 192 1149 192 1133 q 215 1204 192 1185 q 264 1224 239 1224 q 297 1217 281 1224 q 328 1194 313 1211 q 359 1148 343 1178 q 394 1072 375 1118 l 436 978 l 379 939 l 314 996 z "},"ẳ":{"ha":738,"x_min":43,"x_max":743,"o":"m 332 92 q 370 101 351 92 q 417 129 389 110 l 417 356 q 381 343 397 349 q 351 332 364 338 q 276 277 304 313 q 249 193 249 242 q 272 116 249 140 q 332 92 296 92 m 576 -19 q 477 6 515 -19 q 424 81 439 32 q 381 38 401 57 q 338 6 361 19 q 288 -14 315 -7 q 225 -21 261 -21 q 94 24 144 -21 q 43 157 43 69 q 55 226 43 194 q 97 285 67 257 q 178 339 126 314 q 311 388 231 364 q 360 401 332 394 q 417 415 388 408 l 417 461 q 412 538 417 507 q 394 588 407 569 q 359 613 381 606 q 304 621 338 621 q 286 621 294 621 q 267 619 278 621 l 260 558 q 228 459 257 489 q 158 429 199 429 q 65 499 82 429 q 152 640 71 586 q 385 693 233 693 q 576 631 518 693 q 633 431 633 569 l 633 119 q 664 79 633 79 q 685 85 675 79 q 706 110 694 92 l 743 85 q 678 4 718 28 q 576 -19 639 -19 m 325 958 l 313 1017 q 373 1036 360 1026 q 386 1057 386 1046 q 361 1082 386 1072 q 272 1097 336 1092 l 285 1236 q 493 1086 493 1219 q 449 1000 493 1032 q 325 958 406 968 m 140 964 l 204 989 q 267 915 228 942 q 369 889 307 889 q 472 915 432 889 q 535 989 511 942 l 599 964 q 575 892 592 926 q 530 833 558 858 q 462 792 501 807 q 369 776 422 776 q 277 792 317 776 q 209 833 238 807 q 164 892 181 858 q 140 964 147 926 z "},"ẵ":{"ha":738,"x_min":43,"x_max":743,"o":"m 332 92 q 370 101 351 92 q 417 129 389 110 l 417 356 q 381 343 397 349 q 351 332 364 338 q 276 277 304 313 q 249 193 249 242 q 272 116 249 140 q 332 92 296 92 m 576 -19 q 477 6 515 -19 q 424 81 439 32 q 381 38 401 57 q 338 6 361 19 q 288 -14 315 -7 q 225 -21 261 -21 q 94 24 144 -21 q 43 157 43 69 q 55 226 43 194 q 97 285 67 257 q 178 339 126 314 q 311 388 231 364 q 360 401 332 394 q 417 415 388 408 l 417 461 q 412 538 417 507 q 394 588 407 569 q 359 613 381 606 q 304 621 338 621 q 286 621 294 621 q 267 619 278 621 l 260 558 q 228 459 257 489 q 158 429 199 429 q 65 499 82 429 q 152 640 71 586 q 385 693 233 693 q 576 631 518 693 q 633 431 633 569 l 633 119 q 664 79 633 79 q 685 85 675 79 q 706 110 694 92 l 743 85 q 678 4 718 28 q 576 -19 639 -19 m 369 776 q 276 792 315 776 q 208 832 236 807 q 164 891 181 857 q 140 963 147 925 l 204 989 q 267 915 228 940 q 369 889 307 889 q 472 915 432 889 q 535 988 511 940 l 599 963 q 575 891 592 925 q 531 832 558 857 q 463 792 503 807 q 369 776 424 776 m 124 1038 q 173 1153 135 1113 q 274 1193 211 1193 q 335 1184 310 1193 q 382 1167 360 1175 q 426 1151 404 1158 q 474 1144 447 1144 q 560 1201 533 1144 l 615 1182 q 567 1065 604 1107 q 471 1024 531 1024 q 407 1033 435 1024 q 356 1051 379 1042 q 313 1066 335 1058 q 264 1074 292 1074 q 213 1058 235 1074 q 179 1017 192 1043 l 124 1038 z "},"ǎ":{"ha":738,"x_min":43,"x_max":743,"o":"m 332 92 q 370 101 351 92 q 417 129 389 110 l 417 356 q 381 343 397 349 q 351 332 364 338 q 276 277 304 313 q 249 193 249 242 q 272 116 249 140 q 332 92 296 92 m 576 -19 q 477 6 515 -19 q 424 81 439 32 q 381 38 401 57 q 338 6 361 19 q 288 -14 315 -7 q 225 -21 261 -21 q 94 24 144 -21 q 43 157 43 69 q 55 226 43 194 q 97 285 67 257 q 178 339 126 314 q 311 388 231 364 q 360 401 332 394 q 417 415 388 408 l 417 461 q 412 538 417 507 q 394 588 407 569 q 359 613 381 606 q 304 621 338 621 q 286 621 294 621 q 267 619 278 621 l 260 558 q 228 459 257 489 q 158 429 199 429 q 65 499 82 429 q 152 640 71 586 q 385 693 233 693 q 576 631 518 693 q 633 431 633 569 l 633 119 q 664 79 633 79 q 685 85 675 79 q 706 110 694 92 l 743 85 q 678 4 718 28 q 576 -19 639 -19 m 199 1065 l 369 921 l 540 1065 l 594 1021 l 429 785 l 310 785 l 144 1021 l 199 1065 z "},"ấ":{"ha":738,"x_min":43,"x_max":758,"o":"m 332 92 q 370 101 351 92 q 417 129 389 110 l 417 356 q 381 343 397 349 q 351 332 364 338 q 276 277 304 313 q 249 193 249 242 q 272 116 249 140 q 332 92 296 92 m 576 -19 q 477 6 515 -19 q 424 81 439 32 q 381 38 401 57 q 338 6 361 19 q 288 -14 315 -7 q 225 -21 261 -21 q 94 24 144 -21 q 43 157 43 69 q 55 226 43 194 q 97 285 67 257 q 178 339 126 314 q 311 388 231 364 q 360 401 332 394 q 417 415 388 408 l 417 461 q 412 538 417 507 q 394 588 407 569 q 359 613 381 606 q 304 621 338 621 q 286 621 294 621 q 267 619 278 621 l 260 558 q 228 459 257 489 q 158 429 199 429 q 65 499 82 429 q 152 640 71 586 q 385 693 233 693 q 576 631 518 693 q 633 431 633 569 l 633 119 q 664 79 633 79 q 685 85 675 79 q 706 110 694 92 l 743 85 q 678 4 718 28 q 576 -19 639 -19 m 168 753 l 126 801 l 335 1013 l 429 1013 l 638 801 l 596 753 l 382 871 l 168 753 m 597 904 l 549 954 l 585 1029 q 635 1107 608 1086 q 686 1128 661 1128 q 735 1109 713 1128 q 758 1054 758 1090 q 740 1004 758 1031 q 681 956 721 978 l 597 904 z "},"ậ":{"ha":738,"x_min":43,"x_max":743,"o":"m 332 92 q 370 101 351 92 q 417 129 389 110 l 417 356 q 381 343 397 349 q 351 332 364 338 q 276 277 304 313 q 249 193 249 242 q 272 116 249 140 q 332 92 296 92 m 576 -19 q 477 6 515 -19 q 424 81 439 32 q 381 38 401 57 q 338 6 361 19 q 288 -14 315 -7 q 225 -21 261 -21 q 94 24 144 -21 q 43 157 43 69 q 55 226 43 194 q 97 285 67 257 q 178 339 126 314 q 311 388 231 364 q 360 401 332 394 q 417 415 388 408 l 417 461 q 412 538 417 507 q 394 588 407 569 q 359 613 381 606 q 304 621 338 621 q 286 621 294 621 q 267 619 278 621 l 260 558 q 228 459 257 489 q 158 429 199 429 q 65 499 82 429 q 152 640 71 586 q 385 693 233 693 q 576 631 518 693 q 633 431 633 569 l 633 119 q 664 79 633 79 q 685 85 675 79 q 706 110 694 92 l 743 85 q 678 4 718 28 q 576 -19 639 -19 m 564 757 l 378 900 l 192 757 l 142 803 l 333 1046 l 422 1046 l 614 803 l 564 757 m 363 -312 q 279 -282 314 -312 q 244 -203 244 -251 q 279 -123 244 -154 q 363 -92 314 -92 q 446 -123 411 -92 q 481 -203 481 -154 q 446 -282 481 -251 q 363 -312 411 -312 z "},"ầ":{"ha":738,"x_min":10,"x_max":743,"o":"m 332 92 q 370 101 351 92 q 417 129 389 110 l 417 356 q 381 343 397 349 q 351 332 364 338 q 276 277 304 313 q 249 193 249 242 q 272 116 249 140 q 332 92 296 92 m 576 -19 q 477 6 515 -19 q 424 81 439 32 q 381 38 401 57 q 338 6 361 19 q 288 -14 315 -7 q 225 -21 261 -21 q 94 24 144 -21 q 43 157 43 69 q 55 226 43 194 q 97 285 67 257 q 178 339 126 314 q 311 388 231 364 q 360 401 332 394 q 417 415 388 408 l 417 461 q 412 538 417 507 q 394 588 407 569 q 359 613 381 606 q 304 621 338 621 q 286 621 294 621 q 267 619 278 621 l 260 558 q 228 459 257 489 q 158 429 199 429 q 65 499 82 429 q 152 640 71 586 q 385 693 233 693 q 576 631 518 693 q 633 431 633 569 l 633 119 q 664 79 633 79 q 685 85 675 79 q 706 110 694 92 l 743 85 q 678 4 718 28 q 576 -19 639 -19 m 88 956 q 28 1004 47 978 q 10 1054 10 1031 q 33 1109 10 1090 q 82 1128 56 1128 q 133 1107 106 1128 q 183 1029 160 1086 l 219 954 l 171 904 l 88 956 m 168 753 l 126 801 l 335 1013 l 429 1013 l 638 801 l 596 753 l 382 871 l 168 753 z "},"ẩ":{"ha":738,"x_min":43,"x_max":769,"o":"m 332 92 q 370 101 351 92 q 417 129 389 110 l 417 356 q 381 343 397 349 q 351 332 364 338 q 276 277 304 313 q 249 193 249 242 q 272 116 249 140 q 332 92 296 92 m 576 -19 q 477 6 515 -19 q 424 81 439 32 q 381 38 401 57 q 338 6 361 19 q 288 -14 315 -7 q 225 -21 261 -21 q 94 24 144 -21 q 43 157 43 69 q 55 226 43 194 q 97 285 67 257 q 178 339 126 314 q 311 388 231 364 q 360 401 332 394 q 417 415 388 408 l 417 461 q 412 538 417 507 q 394 588 407 569 q 359 613 381 606 q 304 621 338 621 q 286 621 294 621 q 267 619 278 621 l 260 558 q 228 459 257 489 q 158 429 199 429 q 65 499 82 429 q 152 640 71 586 q 385 693 233 693 q 576 631 518 693 q 633 431 633 569 l 633 119 q 664 79 633 79 q 685 85 675 79 q 706 110 694 92 l 743 85 q 678 4 718 28 q 576 -19 639 -19 m 168 753 l 126 801 l 335 1013 l 429 1013 l 638 801 l 596 753 l 382 871 l 168 753 m 582 958 q 647 985 629 971 q 664 1019 664 1000 q 638 1052 664 1042 q 550 1069 613 1063 l 564 1208 q 719 1157 668 1200 q 769 1039 769 1114 q 726 940 769 976 q 603 892 682 903 l 582 958 z "},"ẫ":{"ha":738,"x_min":43,"x_max":743,"o":"m 332 92 q 370 101 351 92 q 417 129 389 110 l 417 356 q 381 343 397 349 q 351 332 364 338 q 276 277 304 313 q 249 193 249 242 q 272 116 249 140 q 332 92 296 92 m 576 -19 q 477 6 515 -19 q 424 81 439 32 q 381 38 401 57 q 338 6 361 19 q 288 -14 315 -7 q 225 -21 261 -21 q 94 24 144 -21 q 43 157 43 69 q 55 226 43 194 q 97 285 67 257 q 178 339 126 314 q 311 388 231 364 q 360 401 332 394 q 417 415 388 408 l 417 461 q 412 538 417 507 q 394 588 407 569 q 359 613 381 606 q 304 621 338 621 q 286 621 294 621 q 267 619 278 621 l 260 558 q 228 459 257 489 q 158 429 199 429 q 65 499 82 429 q 152 640 71 586 q 385 693 233 693 q 576 631 518 693 q 633 431 633 569 l 633 119 q 664 79 633 79 q 685 85 675 79 q 706 110 694 92 l 743 85 q 678 4 718 28 q 576 -19 639 -19 m 168 753 l 126 801 l 335 983 l 429 983 l 638 801 l 596 753 l 382 856 l 168 753 m 136 1025 q 188 1140 147 1100 q 286 1181 229 1181 q 347 1172 322 1181 q 394 1156 372 1164 q 438 1140 417 1147 q 486 1133 460 1133 q 572 1190 546 1133 l 628 1169 q 576 1053 617 1094 q 483 1013 536 1013 q 419 1022 447 1013 q 368 1039 392 1031 q 326 1055 347 1047 q 276 1063 304 1063 q 226 1047 247 1063 q 192 1006 204 1032 l 136 1025 z "},"ạ":{"ha":738,"x_min":43,"x_max":743,"o":"m 332 92 q 370 101 351 92 q 417 129 389 110 l 417 356 q 381 343 397 349 q 351 332 364 338 q 276 277 304 313 q 249 193 249 242 q 272 116 249 140 q 332 92 296 92 m 576 -19 q 477 6 515 -19 q 424 81 439 32 q 381 38 401 57 q 338 6 361 19 q 288 -14 315 -7 q 225 -21 261 -21 q 94 24 144 -21 q 43 157 43 69 q 55 226 43 194 q 97 285 67 257 q 178 339 126 314 q 311 388 231 364 q 360 401 332 394 q 417 415 388 408 l 417 461 q 412 538 417 507 q 394 588 407 569 q 359 613 381 606 q 304 621 338 621 q 286 621 294 621 q 267 619 278 621 l 260 558 q 228 459 257 489 q 158 429 199 429 q 65 499 82 429 q 152 640 71 586 q 385 693 233 693 q 576 631 518 693 q 633 431 633 569 l 633 119 q 664 79 633 79 q 685 85 675 79 q 706 110 694 92 l 743 85 q 678 4 718 28 q 576 -19 639 -19 m 363 -312 q 279 -282 314 -312 q 244 -203 244 -251 q 279 -123 244 -154 q 363 -92 314 -92 q 446 -123 411 -92 q 481 -203 481 -154 q 446 -282 481 -251 q 363 -312 411 -312 z "},"ả":{"ha":738,"x_min":43,"x_max":743,"o":"m 332 92 q 370 101 351 92 q 417 129 389 110 l 417 356 q 381 343 397 349 q 351 332 364 338 q 276 277 304 313 q 249 193 249 242 q 272 116 249 140 q 332 92 296 92 m 576 -19 q 477 6 515 -19 q 424 81 439 32 q 381 38 401 57 q 338 6 361 19 q 288 -14 315 -7 q 225 -21 261 -21 q 94 24 144 -21 q 43 157 43 69 q 55 226 43 194 q 97 285 67 257 q 178 339 126 314 q 311 388 231 364 q 360 401 332 394 q 417 415 388 408 l 417 461 q 412 538 417 507 q 394 588 407 569 q 359 613 381 606 q 304 621 338 621 q 286 621 294 621 q 267 619 278 621 l 260 558 q 228 459 257 489 q 158 429 199 429 q 65 499 82 429 q 152 640 71 586 q 385 693 233 693 q 576 631 518 693 q 633 431 633 569 l 633 119 q 664 79 633 79 q 685 85 675 79 q 706 110 694 92 l 743 85 q 678 4 718 28 q 576 -19 639 -19 m 342 772 l 322 838 q 386 866 369 851 q 403 900 403 881 q 377 932 403 922 q 289 950 351 942 l 304 1089 q 459 1037 408 1081 q 510 918 510 993 q 466 819 510 856 q 342 772 422 782 z "},"å":{"ha":738,"x_min":43,"x_max":743,"o":"m 332 92 q 370 101 351 92 q 417 129 389 110 l 417 356 q 381 343 397 349 q 351 332 364 338 q 276 277 304 313 q 249 193 249 242 q 272 116 249 140 q 332 92 296 92 m 576 -19 q 477 6 515 -19 q 424 81 439 32 q 381 38 401 57 q 338 6 361 19 q 288 -14 315 -7 q 225 -21 261 -21 q 94 24 144 -21 q 43 157 43 69 q 55 226 43 194 q 97 285 67 257 q 178 339 126 314 q 311 388 231 364 q 360 401 332 394 q 417 415 388 408 l 417 461 q 412 538 417 507 q 394 588 407 569 q 359 613 381 606 q 304 621 338 621 q 286 621 294 621 q 267 619 278 621 l 260 558 q 228 459 257 489 q 158 429 199 429 q 65 499 82 429 q 152 640 71 586 q 385 693 233 693 q 576 631 518 693 q 633 431 633 569 l 633 119 q 664 79 633 79 q 685 85 675 79 q 706 110 694 92 l 743 85 q 678 4 718 28 q 576 -19 639 -19 m 369 839 q 431 867 410 839 q 451 928 451 896 q 431 988 451 961 q 369 1015 410 1015 q 308 988 329 1015 q 288 928 288 961 q 308 867 288 896 q 369 839 329 839 m 369 768 q 304 779 335 768 q 251 811 274 790 q 215 861 228 832 q 201 928 201 890 q 215 993 201 964 q 251 1043 228 1022 q 304 1075 274 1064 q 369 1086 335 1086 q 435 1076 404 1086 q 488 1045 465 1065 q 524 995 511 1025 q 538 928 538 965 q 524 860 538 890 q 488 810 511 831 q 435 778 465 789 q 369 768 404 768 z "},"ą":{"ha":738,"x_min":43,"x_max":783,"o":"m 43 157 q 55 226 43 194 q 97 285 67 257 q 178 339 126 314 q 311 388 231 364 q 360 401 332 394 q 417 415 388 408 l 417 461 q 412 538 417 507 q 394 587 407 568 q 359 613 381 606 q 304 621 338 621 q 287 621 296 621 q 267 619 278 621 l 261 557 q 228 457 258 488 q 158 426 199 426 q 65 497 82 426 q 152 639 71 585 q 385 693 233 693 q 576 631 518 693 q 633 431 633 569 l 633 121 q 663 79 633 79 q 683 85 674 79 q 706 110 693 92 l 743 85 q 710 35 728 54 q 668 -1 693 15 q 611 -51 632 -26 q 590 -111 590 -76 q 617 -175 590 -151 q 689 -199 644 -199 q 764 -185 732 -199 l 783 -244 q 701 -295 749 -276 q 599 -314 653 -314 q 486 -275 526 -314 q 446 -178 446 -236 q 478 -87 446 -125 q 568 -21 511 -49 q 475 8 510 -18 q 425 81 440 35 q 381 38 401 57 q 338 6 361 19 q 288 -14 315 -7 q 225 -21 261 -21 q 94 24 144 -21 q 43 157 43 69 m 332 92 q 370 101 351 92 q 417 129 389 110 l 417 356 q 381 343 397 349 q 351 332 364 338 q 276 277 304 313 q 249 193 249 242 q 272 116 249 140 q 332 92 296 92 z "},"æ":{"ha":1096,"x_min":43,"x_max":1057,"o":"m 249 194 q 275 115 249 138 q 336 92 301 92 q 364 94 351 92 q 390 103 376 97 q 418 122 403 110 q 454 153 433 133 q 424 238 435 192 q 413 336 413 283 l 413 353 q 379 342 394 347 q 351 331 364 338 q 276 277 304 311 q 249 194 249 243 m 758 -21 q 601 11 671 -21 q 485 104 531 43 q 425 44 454 68 q 365 5 396 19 q 303 -15 335 -10 q 236 -21 271 -21 q 95 25 147 -21 q 43 157 43 71 q 55 226 43 194 q 97 285 67 257 q 178 338 126 313 q 311 386 231 363 q 360 400 333 393 q 417 415 388 407 l 417 461 q 412 538 417 507 q 394 587 407 568 q 360 613 382 606 q 306 621 339 621 q 287 621 296 621 q 267 619 278 621 l 261 557 q 228 457 258 488 q 158 426 199 426 q 65 497 82 426 q 152 639 71 585 q 385 693 233 693 q 572 621 514 693 q 666 676 615 658 q 769 693 717 693 q 892 671 839 693 q 983 609 946 649 q 1038 515 1019 569 q 1057 399 1057 461 q 1056 359 1057 376 q 1050 325 1054 342 l 647 325 q 667 229 651 269 q 708 163 683 189 q 765 124 733 136 q 833 111 797 111 q 931 133 890 111 q 1003 186 971 154 l 1050 142 q 933 19 1007 58 q 758 -21 860 -21 m 756 621 q 717 610 736 621 q 684 572 699 599 q 660 503 669 546 q 647 397 650 461 l 767 397 q 833 417 817 397 q 850 485 850 438 q 822 588 850 554 q 756 621 794 621 z "},"ç":{"ha":713,"x_min":39,"x_max":674,"o":"m 438 621 q 378 606 408 621 q 324 560 349 592 q 285 480 300 529 q 271 360 271 431 q 324 175 271 239 q 465 111 378 111 q 553 133 515 111 q 621 189 590 154 l 669 146 q 557 20 629 61 q 385 -21 485 -21 q 251 1 314 -21 q 141 69 188 24 q 67 180 94 114 q 39 333 39 246 q 68 485 39 418 q 149 599 97 553 q 268 669 200 644 q 414 693 336 693 q 515 677 469 693 q 595 633 561 661 q 649 569 629 606 q 674 490 669 532 q 579 418 651 418 q 508 447 539 418 q 474 550 478 476 l 464 619 q 451 621 457 621 q 438 621 444 621 m 322 -124 l 342 6 l 414 6 l 406 -71 q 512 -116 479 -85 q 544 -189 544 -147 q 498 -277 544 -242 q 357 -312 451 -312 q 298 -308 324 -312 q 249 -294 272 -303 l 264 -231 q 301 -239 283 -236 q 338 -242 318 -242 q 392 -227 375 -242 q 410 -189 410 -212 q 388 -142 410 -157 q 322 -124 367 -126 z "},"ć":{"ha":713,"x_min":39,"x_max":674,"o":"m 438 621 q 378 606 408 621 q 324 560 349 592 q 285 480 300 529 q 271 360 271 431 q 324 175 271 239 q 465 111 378 111 q 553 133 515 111 q 621 189 590 154 l 669 146 q 557 20 629 61 q 385 -21 485 -21 q 251 1 314 -21 q 141 69 188 24 q 67 180 94 114 q 39 333 39 246 q 68 485 39 418 q 149 599 97 553 q 268 669 200 644 q 414 693 336 693 q 515 677 469 693 q 595 633 561 661 q 649 569 629 606 q 674 490 669 532 q 579 418 651 418 q 508 447 539 418 q 474 550 478 476 l 464 619 q 451 621 457 621 q 438 621 444 621 m 304 811 q 322 843 313 826 q 344 881 332 860 q 374 928 357 901 q 413 990 390 954 q 464 1058 440 1038 q 522 1078 488 1078 q 574 1058 550 1078 q 597 1001 597 1038 q 574 942 597 969 q 510 885 551 915 q 457 844 479 861 q 417 814 435 828 q 385 789 399 800 q 357 768 371 778 l 304 811 z "},"č":{"ha":713,"x_min":39,"x_max":674,"o":"m 438 621 q 378 606 408 621 q 324 560 349 592 q 285 480 300 529 q 271 360 271 431 q 324 175 271 239 q 465 111 378 111 q 553 133 515 111 q 621 189 590 154 l 669 146 q 557 20 629 61 q 385 -21 485 -21 q 251 1 314 -21 q 141 69 188 24 q 67 180 94 114 q 39 333 39 246 q 68 485 39 418 q 149 599 97 553 q 268 669 200 644 q 414 693 336 693 q 515 677 469 693 q 595 633 561 661 q 649 569 629 606 q 674 490 669 532 q 579 418 651 418 q 508 447 539 418 q 474 550 478 476 l 464 619 q 451 621 457 621 q 438 621 444 621 m 236 1065 l 407 921 l 578 1065 l 632 1021 l 467 785 l 347 785 l 182 1021 l 236 1065 z "},"ĉ":{"ha":713,"x_min":39,"x_max":674,"o":"m 438 621 q 378 606 408 621 q 324 560 349 592 q 285 480 300 529 q 271 360 271 431 q 324 175 271 239 q 465 111 378 111 q 553 133 515 111 q 621 189 590 154 l 669 146 q 557 20 629 61 q 385 -21 485 -21 q 251 1 314 -21 q 141 69 188 24 q 67 180 94 114 q 39 333 39 246 q 68 485 39 418 q 149 599 97 553 q 268 669 200 644 q 414 693 336 693 q 515 677 469 693 q 595 633 561 661 q 649 569 629 606 q 674 490 669 532 q 579 418 651 418 q 508 447 539 418 q 474 550 478 476 l 464 619 q 451 621 457 621 q 438 621 444 621 m 590 757 l 404 900 l 218 757 l 168 803 l 360 1046 l 449 1046 l 640 803 l 590 757 z "},"ċ":{"ha":713,"x_min":39,"x_max":674,"o":"m 438 621 q 378 606 408 621 q 324 560 349 592 q 285 480 300 529 q 271 360 271 431 q 324 175 271 239 q 465 111 378 111 q 553 133 515 111 q 621 189 590 154 l 669 146 q 557 20 629 61 q 385 -21 485 -21 q 251 1 314 -21 q 141 69 188 24 q 67 180 94 114 q 39 333 39 246 q 68 485 39 418 q 149 599 97 553 q 268 669 200 644 q 414 693 336 693 q 515 677 469 693 q 595 633 561 661 q 649 569 629 606 q 674 490 669 532 q 579 418 651 418 q 508 447 539 418 q 474 550 478 476 l 464 619 q 451 621 457 621 q 438 621 444 621 m 426 792 q 343 822 378 792 q 308 901 308 853 q 343 981 308 950 q 426 1013 378 1013 q 510 981 475 1013 q 544 901 544 950 q 510 822 544 853 q 426 792 475 792 z "},"ď":{"ha":849,"x_min":40,"x_max":964,"o":"m 275 332 q 315 158 275 217 q 419 100 356 100 q 506 132 467 100 l 506 546 q 424 575 468 575 q 317 516 360 575 q 275 332 275 457 m 524 -15 l 513 65 q 317 -21 432 -21 q 208 2 258 -21 q 119 69 157 25 q 61 179 82 114 q 40 329 40 244 q 66 481 40 414 q 134 596 92 549 q 232 668 176 643 q 346 693 288 693 q 442 674 403 693 q 514 618 482 654 l 514 874 l 417 888 l 417 946 l 710 1008 l 732 994 l 726 800 l 726 81 l 794 65 l 794 0 l 524 -15 m 897 1019 q 951 1001 938 1019 q 964 953 964 982 q 952 884 964 924 q 921 801 940 844 l 879 715 l 813 715 l 819 996 q 897 1019 858 1019 z "},"đ":{"ha":825,"x_min":40,"x_max":794,"o":"m 285 728 l 285 808 l 514 808 l 514 874 l 417 888 l 417 946 l 710 1008 l 732 994 l 726 808 l 794 808 l 794 728 l 726 728 l 726 81 l 794 65 l 794 0 l 524 -15 l 513 65 q 424 0 472 21 q 317 -21 375 -21 q 208 1 258 -21 q 119 67 157 24 q 61 175 82 111 q 40 322 40 239 q 66 468 40 403 q 134 578 92 533 q 231 647 176 622 q 344 671 286 671 q 442 652 403 671 q 514 597 482 633 l 514 728 l 285 728 m 275 325 q 315 157 275 214 q 419 100 356 100 q 465 108 444 100 q 506 132 486 117 l 506 525 q 424 554 468 554 q 317 497 360 554 q 275 325 275 440 z "},"ḍ":{"ha":825,"x_min":40,"x_max":794,"o":"m 275 332 q 315 158 275 217 q 419 100 356 100 q 506 132 467 100 l 506 546 q 424 575 468 575 q 317 516 360 575 q 275 332 275 457 m 524 -15 l 513 65 q 317 -21 432 -21 q 208 2 258 -21 q 119 69 157 25 q 61 179 82 114 q 40 329 40 244 q 66 481 40 414 q 134 596 92 549 q 232 668 176 643 q 346 693 288 693 q 442 674 403 693 q 514 618 482 654 l 514 874 l 417 888 l 417 946 l 710 1008 l 732 994 l 726 800 l 726 81 l 794 65 l 794 0 l 524 -15 m 447 -312 q 364 -282 399 -312 q 329 -203 329 -251 q 364 -123 329 -154 q 447 -92 399 -92 q 531 -123 496 -92 q 565 -203 565 -154 q 531 -282 565 -251 q 447 -312 496 -312 z "},"ḏ":{"ha":825,"x_min":40,"x_max":794,"o":"m 275 332 q 315 158 275 217 q 419 100 356 100 q 506 132 467 100 l 506 546 q 424 575 468 575 q 317 516 360 575 q 275 332 275 457 m 524 -15 l 513 65 q 317 -21 432 -21 q 208 2 258 -21 q 119 69 157 25 q 61 179 82 114 q 40 329 40 244 q 66 481 40 414 q 134 596 92 549 q 232 668 176 643 q 346 693 288 693 q 442 674 403 693 q 514 618 482 654 l 514 874 l 417 888 l 417 946 l 710 1008 l 732 994 l 726 800 l 726 81 l 794 65 l 794 0 l 524 -15 m 226 -268 l 226 -144 l 668 -144 l 668 -268 l 226 -268 z "},"è":{"ha":724,"x_min":40,"x_max":685,"o":"m 397 693 q 519 671 465 693 q 610 609 574 649 q 665 515 646 569 q 685 399 685 461 q 676 325 685 358 l 275 325 q 294 229 279 269 q 335 163 310 189 q 392 124 360 136 q 461 111 425 111 q 558 133 518 111 q 629 186 597 154 l 678 142 q 561 19 635 58 q 386 -21 488 -21 q 247 3 310 -21 q 138 74 183 28 q 66 185 92 119 q 40 335 40 251 q 71 489 40 422 q 151 601 101 556 q 266 669 201 646 q 397 693 331 693 m 383 621 q 345 610 364 621 q 312 572 326 599 q 287 503 297 546 q 275 397 276 461 l 393 397 q 460 417 443 397 q 478 485 478 438 q 450 588 478 554 q 383 621 422 621 m 472 811 l 419 768 q 392 789 406 778 q 360 814 378 800 q 319 844 342 828 q 265 885 296 861 q 201 943 225 917 q 178 1001 178 969 q 202 1058 178 1038 q 254 1078 226 1078 q 312 1058 289 1078 q 363 992 335 1038 q 401 929 385 956 q 430 882 417 903 q 453 844 443 861 q 472 811 463 828 z "},"é":{"ha":724,"x_min":40,"x_max":685,"o":"m 397 693 q 519 671 465 693 q 610 609 574 649 q 665 515 646 569 q 685 399 685 461 q 676 325 685 358 l 275 325 q 294 229 279 269 q 335 163 310 189 q 392 124 360 136 q 461 111 425 111 q 558 133 518 111 q 629 186 597 154 l 678 142 q 561 19 635 58 q 386 -21 488 -21 q 247 3 310 -21 q 138 74 183 28 q 66 185 92 119 q 40 335 40 251 q 71 489 40 422 q 151 601 101 556 q 266 669 201 646 q 397 693 331 693 m 383 621 q 345 610 364 621 q 312 572 326 599 q 287 503 297 546 q 275 397 276 461 l 393 397 q 460 417 443 397 q 478 485 478 438 q 450 588 478 554 q 383 621 422 621 m 301 811 q 319 843 310 826 q 342 881 329 860 q 371 928 354 901 q 410 990 388 954 q 461 1058 438 1038 q 519 1078 485 1078 q 571 1058 547 1078 q 594 1001 594 1038 q 572 942 594 969 q 507 885 549 915 q 454 844 476 861 q 414 814 432 828 q 382 789 396 800 q 354 768 368 778 l 301 811 z "},"ê":{"ha":724,"x_min":40,"x_max":685,"o":"m 397 693 q 519 671 465 693 q 610 609 574 649 q 665 515 646 569 q 685 399 685 461 q 676 325 685 358 l 275 325 q 294 229 279 269 q 335 163 310 189 q 392 124 360 136 q 461 111 425 111 q 558 133 518 111 q 629 186 597 154 l 678 142 q 561 19 635 58 q 386 -21 488 -21 q 247 3 310 -21 q 138 74 183 28 q 66 185 92 119 q 40 335 40 251 q 71 489 40 422 q 151 601 101 556 q 266 669 201 646 q 397 693 331 693 m 383 621 q 345 610 364 621 q 312 572 326 599 q 287 503 297 546 q 275 397 276 461 l 393 397 q 460 417 443 397 q 478 485 478 438 q 450 588 478 554 q 383 621 422 621 m 574 757 l 388 900 l 201 757 l 151 803 l 343 1046 l 432 1046 l 624 803 l 574 757 z "},"ě":{"ha":724,"x_min":40,"x_max":685,"o":"m 397 693 q 519 671 465 693 q 610 609 574 649 q 665 515 646 569 q 685 399 685 461 q 676 325 685 358 l 275 325 q 294 229 279 269 q 335 163 310 189 q 392 124 360 136 q 461 111 425 111 q 558 133 518 111 q 629 186 597 154 l 678 142 q 561 19 635 58 q 386 -21 488 -21 q 247 3 310 -21 q 138 74 183 28 q 66 185 92 119 q 40 335 40 251 q 71 489 40 422 q 151 601 101 556 q 266 669 201 646 q 397 693 331 693 m 383 621 q 345 610 364 621 q 312 572 326 599 q 287 503 297 546 q 275 397 276 461 l 393 397 q 460 417 443 397 q 478 485 478 438 q 450 588 478 554 q 383 621 422 621 m 217 1065 l 388 921 l 558 1065 l 613 1021 l 447 785 l 328 785 l 163 1021 l 217 1065 z "},"ë":{"ha":724,"x_min":40,"x_max":685,"o":"m 397 693 q 519 671 465 693 q 610 609 574 649 q 665 515 646 569 q 685 399 685 461 q 676 325 685 358 l 275 325 q 294 229 279 269 q 335 163 310 189 q 392 124 360 136 q 461 111 425 111 q 558 133 518 111 q 629 186 597 154 l 678 142 q 561 19 635 58 q 386 -21 488 -21 q 247 3 310 -21 q 138 74 183 28 q 66 185 92 119 q 40 335 40 251 q 71 489 40 422 q 151 601 101 556 q 266 669 201 646 q 397 693 331 693 m 383 621 q 345 610 364 621 q 312 572 326 599 q 287 503 297 546 q 275 397 276 461 l 393 397 q 460 417 443 397 q 478 485 478 438 q 450 588 478 554 q 383 621 422 621 m 560 799 q 485 825 518 799 q 453 900 453 851 q 485 974 453 947 q 560 1001 518 1001 q 635 974 603 1001 q 667 900 667 947 q 635 825 667 851 q 560 799 603 799 m 226 799 q 152 825 185 799 q 119 900 119 851 q 152 974 119 947 q 226 1001 185 1001 q 302 974 271 1001 q 333 900 333 947 q 302 825 333 851 q 226 799 271 799 z "},"ē":{"ha":724,"x_min":40,"x_max":685,"o":"m 397 693 q 519 671 465 693 q 610 609 574 649 q 665 515 646 569 q 685 399 685 461 q 676 325 685 358 l 275 325 q 294 229 279 269 q 335 163 310 189 q 392 124 360 136 q 461 111 425 111 q 558 133 518 111 q 629 186 597 154 l 678 142 q 561 19 635 58 q 386 -21 488 -21 q 247 3 310 -21 q 138 74 183 28 q 66 185 92 119 q 40 335 40 251 q 71 489 40 422 q 151 601 101 556 q 266 669 201 646 q 397 693 331 693 m 383 621 q 345 610 364 621 q 312 572 326 599 q 287 503 297 546 q 275 397 276 461 l 393 397 q 460 417 443 397 q 478 485 478 438 q 450 588 478 554 q 383 621 422 621 m 165 815 l 165 939 l 607 939 l 607 815 l 165 815 z "},"ė":{"ha":724,"x_min":40,"x_max":685,"o":"m 397 693 q 519 671 465 693 q 610 609 574 649 q 665 515 646 569 q 685 399 685 461 q 676 325 685 358 l 275 325 q 294 229 279 269 q 335 163 310 189 q 392 124 360 136 q 461 111 425 111 q 558 133 518 111 q 629 186 597 154 l 678 142 q 561 19 635 58 q 386 -21 488 -21 q 247 3 310 -21 q 138 74 183 28 q 66 185 92 119 q 40 335 40 251 q 71 489 40 422 q 151 601 101 556 q 266 669 201 646 q 397 693 331 693 m 383 621 q 345 610 364 621 q 312 572 326 599 q 287 503 297 546 q 275 397 276 461 l 393 397 q 460 417 443 397 q 478 485 478 438 q 450 588 478 554 q 383 621 422 621 m 399 792 q 315 822 350 792 q 281 901 281 853 q 315 981 281 950 q 399 1013 350 1013 q 482 981 447 1013 q 517 901 517 950 q 482 822 517 853 q 399 792 447 792 z "},"ę":{"ha":724,"x_min":40,"x_max":685,"o":"m 329 -178 q 356 -86 329 -126 q 428 -18 382 -46 q 407 -20 417 -19 q 386 -21 397 -21 q 247 4 311 -21 q 138 75 183 29 q 66 188 92 121 q 40 338 40 254 q 71 490 40 424 q 151 602 101 557 q 266 670 201 647 q 397 693 331 693 q 519 671 465 693 q 610 609 574 649 q 665 515 646 569 q 685 399 685 461 q 676 325 685 358 l 275 325 q 294 229 279 269 q 335 163 310 189 q 392 124 360 136 q 461 111 425 111 q 558 133 518 111 q 629 186 597 154 l 678 142 q 624 67 654 97 q 551 13 593 36 q 491 -41 510 -11 q 472 -107 472 -71 q 499 -174 472 -150 q 571 -199 526 -199 q 613 -195 594 -199 q 646 -185 631 -192 l 665 -244 q 585 -295 633 -278 q 482 -312 538 -312 q 369 -274 408 -312 q 329 -178 329 -236 m 382 621 q 344 610 363 621 q 312 572 326 599 q 288 503 297 546 q 275 397 278 461 l 393 397 q 460 417 443 397 q 478 485 478 436 q 450 588 478 554 q 382 621 422 621 z "},"ĕ":{"ha":724,"x_min":40,"x_max":685,"o":"m 397 693 q 519 671 465 693 q 610 609 574 649 q 665 515 646 569 q 685 399 685 461 q 676 325 685 358 l 275 325 q 294 229 279 269 q 335 163 310 189 q 392 124 360 136 q 461 111 425 111 q 558 133 518 111 q 629 186 597 154 l 678 142 q 561 19 635 58 q 386 -21 488 -21 q 247 3 310 -21 q 138 74 183 28 q 66 185 92 119 q 40 335 40 251 q 71 489 40 422 q 151 601 101 556 q 266 669 201 646 q 397 693 331 693 m 383 621 q 345 610 364 621 q 312 572 326 599 q 287 503 297 546 q 275 397 276 461 l 393 397 q 460 417 443 397 q 478 485 478 438 q 450 588 478 554 q 383 621 422 621 m 151 1003 l 219 1024 q 278 937 242 972 q 376 901 315 901 q 476 938 438 901 q 533 1024 514 974 l 601 1003 q 585 928 599 967 q 546 859 572 890 q 478 807 519 828 q 376 786 436 786 q 275 807 317 786 q 207 859 233 828 q 167 928 181 890 q 151 1003 154 967 z "},"ế":{"ha":724,"x_min":40,"x_max":764,"o":"m 397 693 q 519 671 465 693 q 610 609 574 649 q 665 515 646 569 q 685 399 685 461 q 676 325 685 358 l 275 325 q 294 229 279 269 q 335 163 310 189 q 392 124 360 136 q 461 111 425 111 q 558 133 518 111 q 629 186 597 154 l 678 142 q 561 19 635 58 q 386 -21 488 -21 q 247 3 310 -21 q 138 74 183 28 q 66 185 92 119 q 40 335 40 251 q 71 489 40 422 q 151 601 101 556 q 266 669 201 646 q 397 693 331 693 m 383 621 q 345 610 364 621 q 312 572 326 599 q 287 503 297 546 q 275 397 276 461 l 393 397 q 460 417 443 397 q 478 485 478 438 q 450 588 478 554 q 383 621 422 621 m 174 753 l 132 801 l 340 1013 l 435 1013 l 643 801 l 601 753 l 388 871 l 174 753 m 603 904 l 554 954 l 590 1029 q 640 1107 614 1086 q 692 1128 667 1128 q 741 1109 718 1128 q 764 1054 764 1090 q 745 1004 764 1031 q 686 956 726 978 l 603 904 z "},"ệ":{"ha":724,"x_min":40,"x_max":685,"o":"m 397 693 q 519 671 465 693 q 610 609 574 649 q 665 515 646 569 q 685 399 685 461 q 676 325 685 358 l 275 325 q 294 229 279 269 q 335 163 310 189 q 392 124 360 136 q 461 111 425 111 q 558 133 518 111 q 629 186 597 154 l 678 142 q 561 19 635 58 q 386 -21 488 -21 q 247 3 310 -21 q 138 74 183 28 q 66 185 92 119 q 40 335 40 251 q 71 489 40 422 q 151 601 101 556 q 266 669 201 646 q 397 693 331 693 m 383 621 q 345 610 364 621 q 312 572 326 599 q 287 503 297 546 q 275 397 276 461 l 393 397 q 460 417 443 397 q 478 485 478 438 q 450 588 478 554 q 383 621 422 621 m 574 757 l 388 900 l 201 757 l 151 803 l 343 1046 l 432 1046 l 624 803 l 574 757 m 376 -312 q 293 -282 328 -312 q 258 -203 258 -251 q 293 -123 258 -154 q 376 -92 328 -92 q 460 -123 425 -92 q 494 -203 494 -154 q 460 -282 494 -251 q 376 -312 425 -312 z "},"ề":{"ha":724,"x_min":4,"x_max":685,"o":"m 397 693 q 519 671 465 693 q 610 609 574 649 q 665 515 646 569 q 685 399 685 461 q 676 325 685 358 l 275 325 q 294 229 279 269 q 335 163 310 189 q 392 124 360 136 q 461 111 425 111 q 558 133 518 111 q 629 186 597 154 l 678 142 q 561 19 635 58 q 386 -21 488 -21 q 247 3 310 -21 q 138 74 183 28 q 66 185 92 119 q 40 335 40 251 q 71 489 40 422 q 151 601 101 556 q 266 669 201 646 q 397 693 331 693 m 383 621 q 345 610 364 621 q 312 572 326 599 q 287 503 297 546 q 275 397 276 461 l 393 397 q 460 417 443 397 q 478 485 478 438 q 450 588 478 554 q 383 621 422 621 m 82 956 q 23 1004 42 978 q 4 1054 4 1031 q 27 1109 4 1090 q 76 1128 50 1128 q 127 1107 100 1128 q 178 1029 154 1086 l 214 954 l 165 904 l 82 956 m 163 753 l 121 801 l 329 1013 l 424 1013 l 632 801 l 590 753 l 376 871 l 163 753 z "},"ể":{"ha":724,"x_min":40,"x_max":764,"o":"m 397 693 q 519 671 465 693 q 610 609 574 649 q 665 515 646 569 q 685 399 685 461 q 676 325 685 358 l 275 325 q 294 229 279 269 q 335 163 310 189 q 392 124 360 136 q 461 111 425 111 q 558 133 518 111 q 629 186 597 154 l 678 142 q 561 19 635 58 q 386 -21 488 -21 q 247 3 310 -21 q 138 74 183 28 q 66 185 92 119 q 40 335 40 251 q 71 489 40 422 q 151 601 101 556 q 266 669 201 646 q 397 693 331 693 m 383 621 q 345 610 364 621 q 312 572 326 599 q 287 503 297 546 q 275 397 276 461 l 393 397 q 460 417 443 397 q 478 485 478 438 q 450 588 478 554 q 383 621 422 621 m 163 753 l 121 801 l 329 1013 l 424 1013 l 632 801 l 590 753 l 376 871 l 163 753 m 576 958 q 641 985 624 971 q 658 1019 658 1000 q 633 1052 658 1042 q 544 1069 607 1063 l 558 1208 q 713 1157 663 1200 q 764 1039 764 1114 q 720 940 764 976 q 597 892 676 903 l 576 958 z "},"ễ":{"ha":724,"x_min":40,"x_max":685,"o":"m 397 693 q 519 671 465 693 q 610 609 574 649 q 665 515 646 569 q 685 399 685 461 q 676 325 685 358 l 275 325 q 294 229 279 269 q 335 163 310 189 q 392 124 360 136 q 461 111 425 111 q 558 133 518 111 q 629 186 597 154 l 678 142 q 561 19 635 58 q 386 -21 488 -21 q 247 3 310 -21 q 138 74 183 28 q 66 185 92 119 q 40 335 40 251 q 71 489 40 422 q 151 601 101 556 q 266 669 201 646 q 397 693 331 693 m 383 621 q 345 610 364 621 q 312 572 326 599 q 287 503 297 546 q 275 397 276 461 l 393 397 q 460 417 443 397 q 478 485 478 438 q 450 588 478 554 q 383 621 422 621 m 163 753 l 121 801 l 329 983 l 424 983 l 632 801 l 590 753 l 376 856 l 163 753 m 131 1025 q 183 1140 142 1100 q 281 1181 224 1181 q 342 1172 317 1181 q 389 1156 367 1164 q 433 1140 411 1147 q 481 1133 454 1133 q 567 1190 540 1133 l 622 1169 q 571 1053 611 1094 q 478 1013 531 1013 q 414 1022 442 1013 q 363 1039 386 1031 q 320 1055 342 1047 q 271 1063 299 1063 q 220 1047 242 1063 q 186 1006 199 1032 l 131 1025 z "},"ẹ":{"ha":724,"x_min":40,"x_max":685,"o":"m 397 693 q 519 671 465 693 q 610 609 574 649 q 665 515 646 569 q 685 399 685 461 q 676 325 685 358 l 275 325 q 294 229 279 269 q 335 163 310 189 q 392 124 360 136 q 461 111 425 111 q 558 133 518 111 q 629 186 597 154 l 678 142 q 561 19 635 58 q 386 -21 488 -21 q 247 3 310 -21 q 138 74 183 28 q 66 185 92 119 q 40 335 40 251 q 71 489 40 422 q 151 601 101 556 q 266 669 201 646 q 397 693 331 693 m 383 621 q 345 610 364 621 q 312 572 326 599 q 287 503 297 546 q 275 397 276 461 l 393 397 q 460 417 443 397 q 478 485 478 438 q 450 588 478 554 q 383 621 422 621 m 376 -312 q 293 -282 328 -312 q 258 -203 258 -251 q 293 -123 258 -154 q 376 -92 328 -92 q 460 -123 425 -92 q 494 -203 494 -154 q 460 -282 494 -251 q 376 -312 425 -312 z "},"ẻ":{"ha":724,"x_min":40,"x_max":685,"o":"m 397 693 q 519 671 465 693 q 610 609 574 649 q 665 515 646 569 q 685 399 685 461 q 676 325 685 358 l 275 325 q 294 229 279 269 q 335 163 310 189 q 392 124 360 136 q 461 111 425 111 q 558 133 518 111 q 629 186 597 154 l 678 142 q 561 19 635 58 q 386 -21 488 -21 q 247 3 310 -21 q 138 74 183 28 q 66 185 92 119 q 40 335 40 251 q 71 489 40 422 q 151 601 101 556 q 266 669 201 646 q 397 693 331 693 m 383 621 q 345 610 364 621 q 312 572 326 599 q 287 503 297 546 q 275 397 276 461 l 393 397 q 460 417 443 397 q 478 485 478 438 q 450 588 478 554 q 383 621 422 621 m 343 772 l 324 838 q 388 866 371 851 q 404 900 404 881 q 378 932 404 922 q 290 950 353 942 l 306 1089 q 460 1037 410 1081 q 511 918 511 993 q 467 819 511 856 q 343 772 424 782 z "},"ẽ":{"ha":724,"x_min":40,"x_max":685,"o":"m 397 693 q 519 671 465 693 q 610 609 574 649 q 665 515 646 569 q 685 399 685 461 q 676 325 685 358 l 275 325 q 294 229 279 269 q 335 163 310 189 q 392 124 360 136 q 461 111 425 111 q 558 133 518 111 q 629 186 597 154 l 678 142 q 561 19 635 58 q 386 -21 488 -21 q 247 3 310 -21 q 138 74 183 28 q 66 185 92 119 q 40 335 40 251 q 71 489 40 422 q 151 601 101 556 q 266 669 201 646 q 397 693 331 693 m 383 621 q 345 610 364 621 q 312 572 326 599 q 287 503 297 546 q 275 397 276 461 l 393 397 q 460 417 443 397 q 478 485 478 438 q 450 588 478 554 q 383 621 422 621 m 131 817 q 183 960 142 910 q 286 1010 225 1010 q 342 999 318 1010 q 389 972 365 988 q 431 943 408 957 q 479 929 453 929 q 531 951 510 929 q 565 1011 551 972 l 622 988 q 569 844 611 896 q 469 793 528 793 q 413 805 440 793 q 364 831 386 817 q 322 860 343 846 q 272 875 300 875 q 222 853 243 875 q 188 793 201 832 l 131 817 z "},"ğ":{"ha":754,"x_min":21,"x_max":740,"o":"m 342 -233 q 499 -203 446 -233 q 551 -126 551 -172 q 529 -72 551 -96 q 450 -47 507 -47 l 304 -47 q 178 -35 228 -47 q 161 -72 167 -54 q 156 -115 156 -90 q 201 -206 156 -178 q 342 -233 246 -233 m 51 468 q 69 558 51 517 q 122 629 86 599 q 213 676 158 660 q 342 693 268 693 q 472 676 417 693 q 563 629 526 660 l 718 696 l 740 682 l 740 575 l 608 575 q 633 468 633 529 q 615 381 633 421 q 561 310 597 340 q 470 263 525 281 q 342 246 415 246 q 215 263 269 246 q 199 199 199 233 q 217 160 199 175 q 279 146 235 146 l 442 146 q 575 131 521 146 q 663 90 629 117 q 712 26 697 63 q 726 -57 726 -11 q 700 -156 726 -110 q 623 -238 674 -203 q 496 -294 572 -274 q 319 -315 419 -315 q 176 -302 233 -315 q 83 -266 118 -289 q 35 -214 49 -243 q 21 -153 21 -185 q 136 -10 21 -64 q 74 38 93 8 q 56 101 56 67 q 83 194 56 150 q 163 282 111 238 q 78 360 106 311 q 51 468 51 408 m 343 626 q 272 585 296 626 q 249 469 249 544 q 270 353 249 394 q 340 311 292 311 q 413 353 389 311 q 438 471 438 396 q 413 585 438 544 q 343 626 389 626 m 131 1003 l 199 1024 q 258 937 221 972 q 356 901 294 901 q 455 938 417 901 q 513 1024 493 974 l 581 1003 q 565 928 578 967 q 525 859 551 890 q 457 807 499 828 q 356 786 415 786 q 254 807 296 786 q 186 859 213 828 q 147 928 160 890 q 131 1003 133 967 z "},"ġ":{"ha":754,"x_min":21,"x_max":740,"o":"m 342 -233 q 499 -203 446 -233 q 551 -126 551 -172 q 529 -72 551 -96 q 450 -47 507 -47 l 304 -47 q 178 -35 228 -47 q 161 -72 167 -54 q 156 -115 156 -90 q 201 -206 156 -178 q 342 -233 246 -233 m 51 468 q 69 558 51 517 q 122 629 86 599 q 213 676 158 660 q 342 693 268 693 q 472 676 417 693 q 563 629 526 660 l 718 696 l 740 682 l 740 575 l 608 575 q 633 468 633 529 q 615 381 633 421 q 561 310 597 340 q 470 263 525 281 q 342 246 415 246 q 215 263 269 246 q 199 199 199 233 q 217 160 199 175 q 279 146 235 146 l 442 146 q 575 131 521 146 q 663 90 629 117 q 712 26 697 63 q 726 -57 726 -11 q 700 -156 726 -110 q 623 -238 674 -203 q 496 -294 572 -274 q 319 -315 419 -315 q 176 -302 233 -315 q 83 -266 118 -289 q 35 -214 49 -243 q 21 -153 21 -185 q 136 -10 21 -64 q 74 38 93 8 q 56 101 56 67 q 83 194 56 150 q 163 282 111 238 q 78 360 106 311 q 51 468 51 408 m 343 626 q 272 585 296 626 q 249 469 249 544 q 270 353 249 394 q 340 311 292 311 q 413 353 389 311 q 438 471 438 396 q 413 585 438 544 q 343 626 389 626 m 351 792 q 268 822 303 792 q 233 901 233 853 q 268 981 233 950 q 351 1013 303 1013 q 435 981 400 1013 q 469 901 469 950 q 435 822 469 853 q 351 792 400 792 z "},"ģ":{"ha":754,"x_min":21,"x_max":740,"o":"m 342 -233 q 499 -203 446 -233 q 551 -126 551 -172 q 529 -72 551 -96 q 450 -47 507 -47 l 304 -47 q 178 -35 228 -47 q 161 -72 167 -54 q 156 -115 156 -90 q 201 -206 156 -178 q 342 -233 246 -233 m 51 468 q 69 558 51 517 q 122 629 86 599 q 213 676 158 660 q 342 693 268 693 q 472 676 417 693 q 563 629 526 660 l 718 696 l 740 682 l 740 575 l 608 575 q 633 468 633 529 q 615 381 633 421 q 561 310 597 340 q 470 263 525 281 q 342 246 415 246 q 215 263 269 246 q 199 199 199 233 q 217 160 199 175 q 279 146 235 146 l 442 146 q 575 131 521 146 q 663 90 629 117 q 712 26 697 63 q 726 -57 726 -11 q 700 -156 726 -110 q 623 -238 674 -203 q 496 -294 572 -274 q 319 -315 419 -315 q 176 -302 233 -315 q 83 -266 118 -289 q 35 -214 49 -243 q 21 -153 21 -185 q 136 -10 21 -64 q 74 38 93 8 q 56 101 56 67 q 83 194 56 150 q 163 282 111 238 q 78 360 106 311 q 51 468 51 408 m 343 626 q 272 585 296 626 q 249 469 249 544 q 270 353 249 394 q 340 311 292 311 q 413 353 389 311 q 438 471 438 396 q 413 585 438 544 q 343 626 389 626 m 253 885 q 269 950 253 919 q 315 1006 286 981 q 381 1050 343 1031 q 461 1085 418 1069 l 482 1029 q 420 1000 446 1014 q 374 964 394 986 q 428 922 408 947 q 449 864 449 897 q 421 806 449 828 q 353 783 393 783 q 312 789 331 783 q 267 813 293 794 q 253 885 253 853 z "},"ǧ":{"ha":754,"x_min":21,"x_max":740,"o":"m 342 -233 q 499 -203 446 -233 q 551 -126 551 -172 q 529 -72 551 -96 q 450 -47 507 -47 l 304 -47 q 178 -35 228 -47 q 161 -72 167 -54 q 156 -115 156 -90 q 201 -206 156 -178 q 342 -233 246 -233 m 51 468 q 69 558 51 517 q 122 629 86 599 q 213 676 158 660 q 342 693 268 693 q 472 676 417 693 q 563 629 526 660 l 718 696 l 740 682 l 740 575 l 608 575 q 633 468 633 529 q 615 381 633 421 q 561 310 597 340 q 470 263 525 281 q 342 246 415 246 q 215 263 269 246 q 199 199 199 233 q 217 160 199 175 q 279 146 235 146 l 442 146 q 575 131 521 146 q 663 90 629 117 q 712 26 697 63 q 726 -57 726 -11 q 700 -156 726 -110 q 623 -238 674 -203 q 496 -294 572 -274 q 319 -315 419 -315 q 176 -302 233 -315 q 83 -266 118 -289 q 35 -214 49 -243 q 21 -153 21 -185 q 136 -10 21 -64 q 74 38 93 8 q 56 101 56 67 q 83 194 56 150 q 163 282 111 238 q 78 360 106 311 q 51 468 51 408 m 343 626 q 272 585 296 626 q 249 469 249 544 q 270 353 249 394 q 340 311 292 311 q 413 353 389 311 q 438 471 438 396 q 413 585 438 544 q 343 626 389 626 m 178 1065 l 349 921 l 519 1065 l 574 1021 l 408 785 l 289 785 l 124 1021 l 178 1065 z "},"ĝ":{"ha":754,"x_min":21,"x_max":740,"o":"m 342 -233 q 499 -203 446 -233 q 551 -126 551 -172 q 529 -72 551 -96 q 450 -47 507 -47 l 304 -47 q 178 -35 228 -47 q 161 -72 167 -54 q 156 -115 156 -90 q 201 -206 156 -178 q 342 -233 246 -233 m 51 468 q 69 558 51 517 q 122 629 86 599 q 213 676 158 660 q 342 693 268 693 q 472 676 417 693 q 563 629 526 660 l 718 696 l 740 682 l 740 575 l 608 575 q 633 468 633 529 q 615 381 633 421 q 561 310 597 340 q 470 263 525 281 q 342 246 415 246 q 215 263 269 246 q 199 199 199 233 q 217 160 199 175 q 279 146 235 146 l 442 146 q 575 131 521 146 q 663 90 629 117 q 712 26 697 63 q 726 -57 726 -11 q 700 -156 726 -110 q 623 -238 674 -203 q 496 -294 572 -274 q 319 -315 419 -315 q 176 -302 233 -315 q 83 -266 118 -289 q 35 -214 49 -243 q 21 -153 21 -185 q 136 -10 21 -64 q 74 38 93 8 q 56 101 56 67 q 83 194 56 150 q 163 282 111 238 q 78 360 106 311 q 51 468 51 408 m 343 626 q 272 585 296 626 q 249 469 249 544 q 270 353 249 394 q 340 311 292 311 q 413 353 389 311 q 438 471 438 396 q 413 585 438 544 q 343 626 389 626 m 535 757 l 349 900 l 163 757 l 113 803 l 304 1046 l 393 1046 l 585 803 l 535 757 z "}}}
